<svg xmlns="http://www.w3.org/2000/svg" viewBox="0 0 36 36">
	<path fill="#E6E7E8" d="m32 32c0 2.21-1.79 4-4 4h-20c-2.21 0-4-1.79-4-4v-28c0-2.21 1.79-4 4-4h20c2.21 0 4 1.79 4 4z"/>
	<path fill="#BE1931" d="m21.4 18.8c-1.72 2.88 1.22 6.15 2.94 5.57 1.73-.575 2.3 1.15.575 1.72-1.72.575-5.44-.268-7.47-2.3-.575-.575-1.15-.575-1.15-.575z"/>
	<path fill="#EA596E" d="m18 8.03-5.64 12.6c2.52 2.41 5.64 4.33 5.64 4.33 0 0 3.15-1.94 5.67-4.36l-5.67-12.5z"/>
	<path fill="#BE1931" d="m14.6 18.8c1.72 2.88-1.22 6.15-2.94 5.57-1.72-.575-2.3 1.15-.575 1.72 1.72.575 5.44-.268 7.47-2.3.575-.575 1.15-.575 1.15-.575z"/>
	<path fill="#EA596E" d="m11.9 19.5c1.72 2.88-.925 7.68-2.65 7.11-1.72-.575-2.3 1.15-.575 1.73 1.72.575 5.44-.268 7.47-2.3.575-.575 1.15-.575 1.15-.575zm12.2 0c-1.73 2.88.925 7.68 2.65 7.11 1.72-.575 2.3 1.15.575 1.73-1.73.575-5.44-.268-7.47-2.3-.575-.576-1.15-.576-1.15-.576z"/>
	<path fill="#F4ABBA" d="m26.7 29.9c-1.57.523-4.68-3.62-4-7.67 1.35-3.38-2.7-5.06-2.7-6.75 0-4.13-1.37-6.58-2.05-6.58-.676 0-2.01 2.45-2.01 6.58 0 1.69-4.06 3.37-2.7 6.75.676 4.06-2.43 8.19-4 7.67-1.72-.575-2.3 1.72-.575 2.3 1.72.575 4.78-.36 6.9-2.3 1.26-1.15 2.41-1.15 2.41-1.15s1.15 0 2.41 1.15c2.12 1.94 5.17 2.87 6.9 2.3 1.72-.574 1.15-2.87-.574-2.3z"/>
	<circle fill="#292F33" cx="15.6" cy="23.9" r="1.69"/>
	<circle fill="#292F33" cx="20.4" cy="23.9" r="1.69"/>
	<path fill="#DD2E44" d="m11 7c-2.52.002-4.58 1.87-4.93 4.29.731-.79 1.77-1.29 2.93-1.29.928 0 1.77.329 2.45.859 1.18 1.66-5.1 4.89.92 9.68 1.74-.426 2.87-.844 5.65-.844l.002-6.84h-.0039l-2.02-.67c-.000129-.0648.002-.12.002-.186 0-2.76-2.24-5-5-5h-.002z"/>
	<path fill="#55ACEE" d="m25 7c-2.76 0-5 2.24-5 5 0 .0703.0021.13.002.199l-2 .664h-.0039l.0039 6.84c2.78 0 3.91.42 5.65.846 6.15-4.89-.526-8.16 1.02-9.78.657-.474 1.46-.762 2.33-.762 1.16 0 2.2.502 2.93 1.29-.346-2.42-2.41-4.29-4.93-4.29z"/>
	<path fill="#FFAC33" d="m18 3s-4 4.03-4 9c0 3.36.821 6.29 2.04 7.83.565-.0554 1.19-.0918 1.96-.0918s1.4.0364 1.96.0918c1.21-1.55 2.04-4.47 2.04-7.83 0-4.97-4-9-4-9z"/>
	<circle fill="#A0041E" cx="6" cy="11" r="1"/>
	<circle fill="#269" cx="30" cy="11" r="1"/>
	<circle fill="#DD2E44" cx="18" cy="3" r="1"/>
</svg>
