<svg xmlns="http://www.w3.org/2000/svg" viewBox="0 0 36 36">
  <path fill="#BE1931" d="M13 15.9c2.55 4.25-1.81 9.1-4.36 8.24-2.55-.85-3.4 1.7-.851 2.55 2.55.85 8.05-.396 11.1-3.4.85-.851 1.7-.851 1.7-.851l-7.55-6.54"/>
  <path fill="#BE1931" d="M23 15.9c-2.55 4.25 1.81 9.1 4.36 8.24 2.55-.85 3.4 1.7.851 2.55-2.55.85-8.05-.396-11.1-3.4-.85-.851-1.7-.851-1.7-.851l7.55-6.54"/>
  <path fill="#EA596E" d="M9 17c2.55 4.25-1.37 11.4-3.92 10.5s-3.4 1.7-.85 2.55c2.55.851 8.05-.395 11.1-3.4.85-.85 1.7-.85 1.7-.85l-7.99-8.81M27 17c-2.55 4.25 1.37 11.4 3.92 10.5 2.55-.851 3.4 1.7.85 2.55-2.55.851-8.05-.395-11.1-3.4-.851-.85-1.7-.85-1.7-.85l7.99-8.81"/>
  <path fill="#F4ABBA" d="M30.9 32.3c-2.32.774-6.92-5.35-5.92-11.4 2-5-4-7.48-4-9.98 0-6.11-2.03-9.74-3.03-9.74s-2.97 3.63-2.97 9.74c0 2.5-6 4.98-4 9.98 1 6-3.6 12.1-5.92 11.4-2.55-.851-3.4 2.55-.85 3.4 2.55.851 7.07-.533 10.2-3.4 1.86-1.7 3.56-1.7 3.56-1.7s1.7 0 3.56 1.7c3.14 2.87 7.66 4.25 10.2 3.4 2.55-.85 1.7-4.25-.851-3.4"/>
  <path fill="#292F33" d="M17 23.5a2.5 2.5 0 0 1-5 0 2.5 2.5 0 0 1 5 0M24 23.5a2.5 2.5 0 0 1-5 0 2.5 2.5 0 0 1 5 0"/>
  <path fill="#DD2E44" d="M34.7 11.2l-.001-.002c-.96-2.36-2.4-4.45-4.21-6.18h-.003c-3.23-3.1-7.62-5-12.5-5-4.36 0-8.36 1.54-11.5 4.12a18.053 18.053 0 0 0-5.08 6.78c-.93 2.18-1.45 4.57-1.45 7.1 0 2.21 1.79 4 4 4h28c2.21 0 4-1.79 4-4 0-2.42-.48-4.71-1.33-6.81"/>
  <g fill="#F4ABBA">
    <path d="M7.65 16.6c3.48 0 6.29-2.82 6.29-6.29s-2.82-6.29-6.29-6.29c-.405 0-.8.042-1.18.115a18.053 18.053 0 0 0-5.08 6.78 6.286 6.286 0 0 0 6.26 5.68"/>
    <path d="M7.65 4.25c3.33 0 6.04 2.71 6.04 6.04s-2.71 6.04-6.04 6.04c-3.11 0-5.68-2.31-6.01-5.39 1.1-2.54 2.8-4.82 4.93-6.59.364-.067.726-.1 1.08-.1m0-.25c-.405 0-.8.042-1.18.115a18.053 18.053 0 0 0-5.08 6.78 6.286 6.286 0 0 0 6.26 5.68c3.48 0 6.29-2.82 6.29-6.29s-2.82-6.29-6.29-6.29m18.3 5.5c0 2.48 2.02 4.5 4.5 4.5 1.89 0 3.5-1.16 4.17-2.81l-.001-.002c-.96-2.36-2.4-4.45-4.21-6.18a4.5 4.5 0 0 0-4.46 4.5"/>
    <circle cx="21.5" cy="16" r="4.5"/>
    <circle cx="20" cy="5" r="3"/>
  </g>
</svg>
