<svg xmlns="http://www.w3.org/2000/svg" viewBox="0 0 36 36">
	<path fill="#55ACEE" d="m25 0h-14c-1.1 0-2 .896-2 2v11s0 1 1 2l6.43 5h3.14l6.43-5c1-1 1-2 1-2v-11c0-1.1-.896-2-2-2z"/>
	<path fill="#E1E8ED" d="M12 0v16.555L16.429 20h3.142L24 16.555V0z"/>
	<path fill="#DD2E44" d="M14 0v18.111L16.429 20h3.142L22 18.111V0z"/>
	<path fill="#FFAC33" d="m21.9 21c.06-.163.098-.337.098-.52 0-.828-.672-1.5-1.5-1.5h-5c-.829 0-1.5.672-1.5 1.5 0 .183.038.357.098.52-2.44 1.37-4.1 3.98-4.1 6.98 0 4.42 3.58 8 8 8 4.42 0 8-3.58 8-8 0-3-1.65-5.61-4.1-6.98z"/>
	<circle fill="#FFD983" cx="18" cy="28" r="6"/>
	<path fill="#FFAC33" d="m18 23c-.0022.000878-3.32 1.28-3.32 2.81 0 .615.536 1.3 1.18 1.92.119.47.0263 1.01-.168 1.44-.0263-.0044-.0536-.0062-.079-.0145-.619-.205-.834.364-.304.61-.199.212-.417.322-.606.259-.65-.217-.869.435-.217.65.28.0931.698.0825 1.15-.0145-.311.428-.672.685-.931.597-.65-.217-.869.65-.217.869.65.217 1.8-.136 2.61-.869.474-.435.909-.435.909-.435s.434 0 .909.435c.803.733 1.95 1.08 2.61.869.65-.217.435-1.08-.217-.869-.256.0856-.619-.169-.931-.597.448.0966.865.107 1.15.0132.65-.216.434-.869-.218-.65-.189.0632-.406-.047-.606-.258.536-.246.315-.816-.302-.61-.0263.0088-.0544.011-.0825.0154-.194-.435-.287-.97-.169-1.44.641-.615 1.18-1.31 1.18-1.92 0-1.53-3.32-2.81-3.32-2.81zm-.896 5.36c.352 0 .637.286.637.641 0 .355-.285.637-.637.637s-.641-.285-.641-.637.286-.641.641-.641zm1.79 0c.352 0 .641.286.641.641 0 .355-.286.637-.641.637-.355 0-.637-.285-.637-.637s.285-.641.637-.641z"/>
</svg>
