<svg xmlns="http://www.w3.org/2000/svg" viewBox="0 0 36 36">
	<path fill="#EA596E" d="m26.8 8.01c1.36 1.36 3.36 1.71 5.05 1.03l3.61 3.61c.737.74.738 1.94-.004 2.68l-20.1 20.1c-.743.739-1.94.737-2.68 0l-3.61-3.61c.672-1.68.33-3.68-1.03-5.05-1.37-1.36-3.36-1.71-5.05-1.03l-2.36-2.36c-.74-.737-.742-1.94 0-2.68l20.1-20.1c.739-.74 1.94-.741 2.68.002l2.36 2.36c-.677 1.68-.331 3.68 1.03 5.05z"/>
	<path fill="#BE1931" d="m22 2.72c-.485.000375-.969.184-1.34.553l-2.24 2.24 12.1 12 2.2-2.2c.74-.737.739-1.94 0-2.68l-1.88-1.88c-1.9.503-4 .0202-5.48-1.47-1.49-1.48-1.98-3.59-1.47-5.48l-.541-.545c-.37-.368-.855-.551-1.34-.551zm-4.98 4.22-10.2 10.2 12.1 12 10.2-10.2-12.1-12zm.703 4.87c.699.026 1.32.197 1.73.611.665.665.831 2 .803 3.36.381.635 1.06 1.11 1.74 1.38.0256-.0351.0533-.0694.0723-.107.445-.891 1.3-.511.986.334.444.0114.798-.104.934-.377.467-.942 1.41-.47.938.467-.203.405-.663.845-1.25 1.22.8.126 1.47.0104 1.65-.359.472-.937 1.64-.232 1.17.705-.475.94-2.1 1.8-3.76 1.88-.983.0432-1.45.514-1.45.514s-.469.47-.512 1.45c-.076 1.66-.943 3.29-1.88 3.76-.943.468-1.64-.708-.705-1.18.375-.185.488-.851.361-1.65-.379.589-.822 1.05-1.22 1.25-.938.473-1.4-.47-.467-.938.272-.136.389-.492.375-.936-.839.307-1.22-.541-.332-.988.0365-.0185.0683-.0466.102-.0703-.264-.685-.744-1.37-1.38-1.74-1.36.0285-2.68-.136-3.35-.801-1.66-1.66.544-6.61.549-6.62h.00195v-.00195c.00546-.00243 2.8-1.24 4.89-1.16zm2.56 5.7c-.251.000297-.501.0946-.691.285-.38.38-.376 1 .00391 1.38s.993.384 1.38 0c.384-.384.387-.999.00391-1.38-.192-.192-.442-.285-.693-.285zm-14.9 1.01-2.15 2.15c-.739.739-.742 1.94-.00391 2.68l.543.541c1.9-.505 4-.0192 5.48 1.47 1.49 1.49 1.97 3.59 1.47 5.48l1.88 1.88c.741.739 1.94.739 2.68-.00195l2.19-2.19-12.1-12zm12.9.92c-.25-.000897-.499.0945-.689.285-.384.384-.38 1.01 0 1.39.38.38 1 .374 1.38-.00586.38-.38.384-.993 0-1.38-.192-.192-.444-.288-.693-.289z"/>
</svg>
