<svg xmlns="http://www.w3.org/2000/svg" viewBox="0 0 36 36">
	<path fill="#FFAC33" d="m5.12 5h6c1.1 0 1.88-.104 1.88 1v-2c0-1.1-.773-2-1.88-2h-8c-2 0-3.58 2.12-3 5 0 0 1.79 9.38 1.92 9.96.333 1.54 2.12 3.04 4.04 3.04h6.96c1.1 0-.039-1.9-.039-3v-2c0 1.1-.773 2-1.88 2h-4c-1.1 0-1.83-1.04-2-2s-1.58-7.33-1.58-7.33c-.333-1.92.479-2.67 1.58-2.67zm25.8 0h-6c-1.1 0-2.94-.104-2.94 1v-2c0-1.1 1.83-2 2.94-2h8c2 0 3.58 2.12 3 5 0 0-1.63 9.42-1.77 10-.354 1.5-2.04 3-4 3h-7.15c-1.1 0-1.02-1.9-1.02-3v-2c0 1.1 1.83 2 2.94 2h4c1.1 0 1.83-1.04 2-2s1.58-7.33 1.58-7.33c.332-1.92-.479-2.67-1.58-2.67zm-10.1 17c0-6.96-2.71 0-2.71 0s-3-6.96-3 0-3.29 10-3.29 10h12.3c-.001 0-3.29-3.04-3.29-10z"/>
	<path fill="#FFCC4D" d="m29.1 6.58c0 6.78-6.77 18.2-11 18.2-4.23 0-11-11.4-11-18.2 0-5.2 1-6.32 3-6.32 1.37 0 6.02-.027 8-.027l7-.001c2.92-.001 4 .684 4 6.35z"/>
	<path fill="#C1694F" d="m27 33c0 1.1.227 2-.877 2h-16c-1.1 0-1.12-.896-1.12-2v-1c0-1.1 1.16-2 2.21-2h13.9c1.04 0 1.88.896 1.88 2v1z"/>
	<path fill="#C1694F" d="m29 34.6c0 .76.165 1.38-1.25 1.38h-19.2c-1.29 0-1.5-.615-1.5-1.38v-.25c0-.76.738-1.38 1.5-1.38h19.2c.759 0 1.25.615 1.25 1.38v.25z"/>
	<path fill="#FFAC33" d="m18.1 2c-.0036.00143-5.4 2.08-5.4 4.57 0 .999.871 2.12 1.91 3.12.194.764.0428 1.63-.273 2.35-.0428-.0072-.0871-.01-.128-.0236-1.01-.334-1.36.592-.495.992-.323.344-.678.523-.985.421-1.06-.353-1.41.707-.353 1.06.455.151 1.14.134 1.86-.0236-.506.696-1.09 1.11-1.51.971-1.06-.353-1.41 1.06-.353 1.41 1.06.353 2.93-.221 4.24-1.41.771-.707 1.48-.707 1.48-.707s.706 0 1.48.707c1.31 1.19 3.18 1.76 4.24 1.41 1.06-.353.707-1.76-.353-1.41-.417.139-1.01-.275-1.51-.971.728.157 1.41.173 1.86.0214 1.06-.352.705-1.41-.354-1.06-.307.103-.66-.0764-.985-.419.871-.4.513-1.33-.492-.992-.0428.0143-.0885.0178-.134.025-.315-.708-.466-1.58-.275-2.34 1.04-.999 1.92-2.13 1.92-3.13 0-2.49-5.4-4.57-5.4-4.57zm-1.46 8.71c.573 0 1.04.465 1.04 1.04 0 .577-.464 1.04-1.04 1.04-.571 0-1.04-.464-1.04-1.04 0-.571.465-1.04 1.04-1.04zm2.91 0c.573 0 1.04.465 1.04 1.04 0 .577-.465 1.04-1.04 1.04s-1.04-.464-1.04-1.04c0-.571.464-1.04 1.04-1.04z"/>
</svg>
