<svg xmlns="http://www.w3.org/2000/svg" viewBox="0 0 36 36">
	<path fill="#55ACEE" d="m18 8-7-8h-11l14 17 11.5-4.75z"/>
	<path fill="#3B88C3" d="m25 0-7 8 5.39 7.31 12.6-15.3z"/>
	<path fill="#FFAC33" d="m23.3 16c.08-.217.131-.448.131-.693 0-1.1-.896-2-2-2h-6.67c-1.1 0-2 .896-2 2 0 .245.05.476.131.693-3.26 1.83-5.46 5.31-5.46 9.31 0 5.89 4.78 10.7 10.7 10.7 5.89 0 10.7-4.78 10.7-10.7-.001-4-2.21-7.48-5.46-9.31z"/>
	<circle fill="#FFD983" cx="18.1" cy="25.3" r="8"/>
	<path fill="#FFAC33" d="m18 18.9c-.0029.0011-4.33 1.67-4.33 3.67 0 .802.699 1.7 1.54 2.5.156.613.0344 1.31-.22 1.89-.0344-.0057-.0699-.008-.103-.0189-.808-.268-1.09.475-.397.797-.26.276-.544.42-.791.338-.848-.284-1.13.567-.283.848.365.121.911.108 1.5-.0189-.406.559-.877.894-1.21.779-.848-.284-1.13.848-.283 1.13.848.284 2.36-.178 3.4-1.13.619-.567 1.19-.567 1.19-.567s.567 0 1.19.567c1.05.957 2.55 1.42 3.4 1.13.848-.283.567-1.42-.283-1.13-.335.112-.808-.221-1.21-.779.585.126 1.13.139 1.5.0172.848-.283.566-1.13-.284-.848-.246.0825-.53-.0613-.791-.336.699-.321.411-1.07-.395-.797-.0344.0115-.0711.0143-.108.0201-.253-.569-.374-1.27-.221-1.88.837-.802 1.54-1.71 1.54-2.51 0-2-4.33-3.67-4.33-3.67zm-1.17 6.99c.46 0 .831.374.831.837s-.373.831-.831.831c-.458 0-.837-.373-.837-.831s.374-.837.837-.837zm2.33 0c.46 0 .837.374.837.837s-.374.831-.837.831-.831-.373-.831-.831.373-.837.831-.837z"/>
</svg>
