<svg xmlns="http://www.w3.org/2000/svg" viewBox="0 0 36 36">
  <path fill="#292F33" d="M32 3.75H4c-2.21 0-4 1.79-4 4v18c0 2.21 1.79 4 4 4h28c2.21 0 4-1.79 4-4v-18c0-2.21-1.79-4-4-4"/>
  <path fill="#E6E7E8" d="M18 6.28c-.005.002-7.56 2.91-7.56 6.4 0 1.4 1.22 2.97 2.68 4.37.272 1.07.06 2.29-.383 3.29-.06-.01-.122-.014-.18-.033-1.41-.468-1.9.829-.693 1.39-.453.482-.95.733-1.38.59-1.48-.495-1.98.99-.494 1.48.637.212 1.59.188 2.61-.033-.709.975-1.53 1.56-2.12 1.36-1.48-.495-1.98 1.48-.494 1.98 1.48.495 4.11-.31 5.94-1.98 1.08-.99 2.07-.99 2.07-.99s.989 0 2.07.99c1.83 1.67 4.45 2.47 5.94 1.98 1.48-.494.99-2.47-.494-1.98-.584.195-1.41-.385-2.12-1.36 1.02.22 1.97.243 2.61.03 1.48-.493.988-1.98-.496-1.48-.43.144-.924-.107-1.38-.587 1.22-.56.718-1.86-.689-1.39-.06.02-.124.025-.188.035-.441-.992-.653-2.21-.385-3.28 1.46-1.4 2.69-2.98 2.69-4.38 0-3.49-7.56-6.4-7.56-6.4zm-2.04 12.2c.803 0 1.45.652 1.45 1.46s-.65 1.45-1.45 1.45-1.46-.65-1.46-1.45.652-1.46 1.46-1.46zm4.07 0c.803 0 1.46.652 1.46 1.46s-.652 1.45-1.46 1.45-1.45-.65-1.45-1.45.65-1.46 1.45-1.46z"/>
</svg>
