<svg xmlns="http://www.w3.org/2000/svg" viewBox="0 0 36 36">
	<path fill="#FFD983" d="m32 20.2-14.7-14.4c-.658-.659-1.52-.746-2.38-.746h-10.1c-1.85 0-2.88 1.03-2.88 2.88v10.1c0 .861.089 1.72.746 2.38l14.6 14.7c1.31 1.31 3.38 1.31 4.69 0l10.1-10.1c1.31-1.31 1.28-3.44-.03-4.75zm-23.6-8.76c-.585.585-1.53.585-2.12 0s-.586-1.53 0-2.12c.585-.586 1.53-.585 2.12 0 .585.586.586 1.53 0 2.12z"/>
	<path fill="#D99E82" d="m9.95 7.77c-1.43-1.43-3.75-1.43-5.18 0-1.43 1.43-1.43 3.75 0 5.18 1.43 1.43 3.75 1.43 5.18 0 1.43-1.43 1.43-3.75-.001-5.18zm-1.53 3.65c-.585.585-1.53.585-2.12 0s-.586-1.53 0-2.12c.585-.587 1.53-.585 2.12 0s.586 1.53 0 2.12z"/>
	<path fill="#D99E82" d="m10.5 13.4c-.0021.0049-3.29 7.4-.82 9.87.99.99 2.96 1.24 4.99 1.2.949.564 1.66 1.58 2.06 2.6-.0495.0354-.0962.0764-.151.104-1.33.666-.757 1.93.493 1.47.0205.661-.153 1.19-.559 1.39-1.4.696-.7 2.1.697 1.4.6-.301 1.26-.991 1.82-1.87.188 1.19.0212 2.18-.537 2.46-1.4.696-.354 2.45 1.05 1.75 1.4-.696 2.69-3.13 2.8-5.6.0636-1.46.764-2.16.764-2.16s.699-.699 2.16-.764c2.47-.113 4.89-1.4 5.6-2.8.697-1.4-1.05-2.45-1.75-1.05-.275.551-1.27.725-2.46.537.877-.566 1.56-1.22 1.87-1.82.698-1.4-.701-2.1-1.4-.696-.202.406-.729.578-1.39.561.467-1.26-.808-1.82-1.47-.496-.0283.0566-.07.105-.108.158-1.01-.39-2.02-1.1-2.59-2.05.0424-2.02-.205-4.01-1.2-5-2.47-2.47-9.87.82-9.87.82zm7.18 10.1c.568-.568 1.49-.564 2.06.0071.571.571.566 1.48 0 2.05-.566.566-1.49.573-2.06.0071-.566-.566-.571-1.49 0-2.06zm2.88-2.88c.568-.568 1.49-.571 2.06 0s.564 1.49-.0071 2.06c-.571.571-1.48.566-2.05 0-.566-.566-.573-1.49-.0071-2.06z"/>
	<path fill="#C1694F" d="m8.51 10.5c-.391.391-1.02.391-1.42 0-.391-.391-.39-1.02 0-1.41l8.48-8.48c.391-.391 1.02-.391 1.42 0 .391.391.39 1.02 0 1.41l-8.48 8.48z"/>
</svg>
