<svg xmlns="http://www.w3.org/2000/svg" viewBox="0 0 36 36">
  <path fill="#EA596E" d="M31 11C31 5 18 0 18 0v25s13-8 13-14z"/>
  <path fill="#EA596E" d="M5 11C5 5 18 0 18 0v25c.001 0-13-8-13-14z"/>
  <path fill="#F4ABBA" d="M18 0s-1.88 1.28-3.92 3.11c-2-1.18-4.66-1.93-5.09-1.67-.631.372-1.67 5.82-.434 7.91.156.264.342.496.541.713-.064.315-.1.627-.1.936 0 3.83 9 12 9 12s9-8.17 9-12c0-.309-.035-.621-.1-.936.2-.217.386-.449.542-.713 1.23-2.09.197-7.54-.434-7.91-.437-.258-3.09.494-5.09 1.67-2.04-1.83-3.92-3.11-3.92-3.11z"/>
  <path fill="#BE1931" d="M13 15.9c2.55 4.25-1.81 9.1-4.36 8.24-2.55-.851-3.4 1.7-.851 2.55s8.05-.396 11.1-3.4c.851-.851 1.7-.851 1.7-.851l-7.55-6.54z"/>
  <path fill="#BE1931" d="M23 15.9c-2.55 4.25 1.81 9.1 4.36 8.24 2.55-.851 3.4 1.7.851 2.55s-8.05-.396-11.1-3.4c-.851-.851-1.7-.851-1.7-.851l7.55-6.54z"/>
  <path fill="#EA596E" d="M9 17c2.55 4.25-1.37 11.4-3.92 10.5s-3.4 1.7-.851 2.55 8.05-.396 11.1-3.4c.851-.851 1.7-.851 1.7-.851l-7.99-8.81zm18 0c-2.55 4.25 1.37 11.4 3.92 10.5 2.55-.851 3.4 1.7.851 2.55-2.55.851-8.05-.396-11.1-3.4-.851-.852-1.7-.852-1.7-.852l7.99-8.81z"/>
  <path fill="#F4ABBA" d="M30.9 32.4c-2.32.774-6.92-5.35-5.92-11.4 2-5-4-7.48-4-9.98 0-6.11-2.03-9.74-3.03-9.74s-2.97 3.63-2.97 9.74c0 2.5-6 4.98-4 9.98 1 6-3.6 12.1-5.92 11.4-2.55-.851-3.4 2.55-.851 3.4 2.55.851 7.07-.533 10.2-3.4 1.86-1.7 3.56-1.7 3.56-1.7s1.7 0 3.56 1.7c3.14 2.87 7.66 4.25 10.2 3.4 2.55-.85 1.7-4.25-.85-3.4z"/>
  <circle cx="14.5" cy="23.5" r="2.5" fill="#292F33"/>
  <circle cx="21.5" cy="23.5" r="2.5" fill="#292F33"/>
  <path fill="#EA596E" d="M23.7 28.2c0 2.4-1.7 5.01-5.49 5.01s-5.49-2.61-5.49-5.01 1.7-3 5.49-3 5.49.608 5.49 3z"/>
  <path fill="#662113" d="M16.6 29c0 .991-.187 1.28-.824 1.28s-.824-.29-.824-1.28c0-.991.187-1.28.824-1.28s.824.289.824 1.28zm4.94 0c0 .991-.187 1.28-.824 1.28s-.824-.29-.824-1.28c0-.991.187-1.28.824-1.28s.824.289.824 1.28z"/>
  <path fill="#EA596E" d="M13.4 4.89c-1.59-.928-3.22-1.52-3.52-1.35-.418.247-.793 3.66-.258 6.05.933-1.82 2.23-3.43 3.77-4.7zM22.6 4.89c1.59-.928 3.22-1.52 3.52-1.35.418.247.793 3.66.258 6.05a14.953 14.953 0 0 0-3.77-4.7z"/>
</svg>
