<svg xmlns="http://www.w3.org/2000/svg" viewBox="0 0 36 36">
	<path fill="#269" d="m18 0s-.00195.00195-.00195.00195c-.0234.00902-13 5-13 11 0 2.41 2.11 5.14 4.62 7.55.458 1.84.0917 3.92-.666 5.62-.104-.0162-.211-.0274-.311-.0605-2.42-.807-3.3 1.45-1.21 2.41-.774.815-1.62 1.24-2.35.998-2.55-.851-3.4 1.7-.85 2.55 1.11.369 2.77.32 4.54-.0723-1.23 1.71-2.68 2.69-3.69 2.35-2.55-.851-3.4 2.55-.85 3.4 2.55.851 7.07-.533 10.2-3.4 1.86-1.7 3.56-1.7 3.56-1.7s1.7.00112 3.56 1.7c3.14 2.87 7.66 4.25 10.2 3.4 2.55-.85 1.7-4.25-.85-3.4-1.01.338-2.46-.641-3.69-2.35 1.77.389 3.43.436 4.53.0684 2.55-.851 1.7-3.4-.852-2.55-.733.244-1.58-.182-2.35-.994 2.1-.958 1.22-3.22-1.2-2.41-.103.0344-.214.0463-.322.0625v-.00195c-.755-1.7-1.12-3.77-.672-5.61 2.52-2.41 4.64-5.15 4.64-7.57 0-6-13-11-13-11v-.00195h-.00195z"/>
</svg>
