<svg xmlns="http://www.w3.org/2000/svg" viewBox="0 0 36 36">
	<path fill="#55ACEE" d="m24 .826-.0014.0014c-.0169.0065-9.39 3.61-9.39 7.94 0 1.74 1.52 3.71 3.34 5.45.331 1.33.0662 2.83-.481 4.06-.0751-.0117-.152-.0198-.225-.0437-1.75-.583-2.38 1.05-.874 1.74-.559.589-1.17.895-1.7.721-1.84-.615-2.46 1.23-.614 1.84.802.266 2 .231 3.28-.0522-.888 1.23-1.94 1.94-2.66 1.7-1.84-.615-2.46 1.84-.614 2.46 1.84.615 5.11-.385 7.37-2.46 1.34-1.23 2.57-1.23 2.57-1.23s1.23.000795 2.57 1.23c2.27 2.07 5.53 3.07 7.37 2.46 1.84-.614 1.23-3.07-.614-2.46-.729.244-1.78-.463-2.66-1.7 1.28.281 2.48.315 3.27.0494 1.84-.615 1.23-2.46-.615-1.84-.529.176-1.14-.131-1.7-.718 1.52-.692.881-2.33-.867-1.74-.0744.0248-.155.0334-.233.0451v-.0014c-.545-1.23-.809-2.72-.485-4.05 1.82-1.74 3.35-3.72 3.35-5.47 0-4.33-9.39-7.94-9.39-7.94v-.0014h-.0014z"/>
	<path fill="#269" d="m12 8.83-.0014.0014c-.0169.0065-9.39 3.61-9.39 7.94 0 1.74 1.52 3.71 3.34 5.45.331 1.33.0662 2.83-.481 4.06-.0751-.0117-.152-.0198-.225-.0437-1.75-.583-2.38 1.05-.874 1.74-.559.589-1.17.895-1.7.721-1.84-.615-2.46 1.23-.614 1.84.802.266 2 .231 3.28-.0522-.888 1.23-1.94 1.94-2.66 1.7-1.84-.615-2.46 1.84-.614 2.46 1.84.615 5.11-.385 7.37-2.46 1.34-1.23 2.57-1.23 2.57-1.23s1.23.000795 2.57 1.23c2.27 2.07 5.53 3.07 7.37 2.46 1.84-.614 1.23-3.07-.614-2.46-.729.244-1.78-.463-2.66-1.7 1.28.281 2.48.315 3.27.0494 1.84-.615 1.23-2.46-.615-1.84-.529.176-1.14-.131-1.7-.718 1.52-.692.881-2.33-.867-1.74-.0744.0248-.155.0334-.233.0451v-.0014c-.545-1.23-.809-2.72-.485-4.05 1.82-1.74 3.35-3.72 3.35-5.47 0-4.33-9.39-7.94-9.39-7.94v-.0014h-.0014z"/>
</svg>
