<svg xmlns="http://www.w3.org/2000/svg" viewBox="0 0 36 36">
	<path fill="#E1E8ED" d="m18 0c-.0098.00375-13 5-13 11 0 2.41 2.11 5.14 4.62 7.55-.174 1.83-.446 3.37-.77 4.72-1.43 2.06-4.03 3.13-5.44 2.24-2.27-1.44-3.71.835-1.44 2.27 1.03.654 2.77 1.01 4.69 1.03-1.61 2.55-3.24 3.11-3.29 3.68.0038.0015.0079.0024.0117.0039-1.06.715-.997 2.65.844 3.26.687.168 1.07.218 1.64.248 2.95 0 1.65-1.74 4.04-1.74 1.88 6e-6 1.35 1.74 4.04 1.74 1.97 0 2.17-2.14 4.04-2.14s2.07 2.14 4.04 2.14c2.69 0 2.16-1.74 4.04-1.74 2.4 0 1.09 1.74 4.04 1.74.569-.0298.95-.0798 1.64-.248 1.84-.613 1.91-2.55.844-3.26.0038-.0015.008-.0024.0117-.0039-.0557-.632-2.08-1.26-3.85-4.65 2.95-2.28 5.04-6.09 5.03-8.37-.01-2.69-2.7-2.68-2.69.0098.0058 1.51-1.86 2.99-4.08 3.35-.276-1.25-.505-2.65-.66-4.28 2.51-2.41 4.62-5.14 4.62-7.55 0-6-13-11-13-11z"/>
	<g fill="#292F33">
		<circle cx="14.5" cy="23.5" r="2.5"/>
		<circle cx="21.5" cy="23.5" r="2.5"/>
		<path d="m19.8 28.1c1.42 1.06 1.92 2.79 1.13 3.86-.799 1.07-2.6 1.07-4.02 0-1.42-1.06-1.92-2.79-1.13-3.86.799-1.07 2.6-1.07 4.02 0z" stroke-width=".536"/>
	</g>
</svg>
