<svg xmlns="http://www.w3.org/2000/svg" viewBox="0 0 36 36">
	<path fill="#EA596E" d="m18 .984.002 24c.000881 0-9.54-6.21-11.9-11.8 3.5-8.54 6.91-10.1 11.9-12.2"/>
	<path fill="#EA596E" d="m18 .984.002 24c-.000881 0 9.54-6.21 11.9-11.8-3.5-8.54-6.91-10.1-11.9-12.2"/>
	<path fill="#F4ABBA" d="m27 11c0 3.83-9 12-9 12s-9-8.17-9-12c0-5 9-11 9-11s9 6 9 11"/>
	<path fill="#BE1931" d="m13 15.9c2.55 4.25-1.81 9.1-4.36 8.24-2.55-.851-3.4 1.7-.851 2.55s8.05-.396 11.1-3.4c.851-.851 1.7-.851 1.7-.851l-7.55-6.54"/>
	<path fill="#BE1931" d="m23 15.9c-2.55 4.25 1.81 9.1 4.36 8.24 2.55-.851 3.4 1.7.851 2.55s-8.05-.396-11.1-3.4c-.851-.851-1.7-.851-1.7-.851l7.55-6.54"/>
	<path fill="#EA596E" d="m9 17c2.55 4.25-1.37 11.4-3.92 10.5s-3.4 1.7-.851 2.55 8.05-.396 11.1-3.4c.851-.851 1.7-.851 1.7-.851s-7.99-8.81-7.99-8.81m18 0c-2.55 4.25 1.37 11.4 3.92 10.5 2.55-.851 3.4 1.7.851 2.55-2.55.851-8.05-.396-11.1-3.4-.851-.852-1.7-.852-1.7-.852s7.99-8.81 7.99-8.81"/>
	<path fill="#F4ABBA" d="m30.9 32.4c-2.32.774-6.92-5.35-5.92-11.4 2-5-4-7.48-4-9.98 0-6.11-2.03-9.74-3.03-9.74s-2.97 3.63-2.97 9.74c0 2.5-6 4.98-4 9.98 1 6-3.6 12.1-5.92 11.4-2.55-.851-3.4 2.55-.851 3.4 2.55.851 7.07-.533 10.2-3.4 1.86-1.7 3.56-1.7 3.56-1.7s1.7 0 3.56 1.7c3.14 2.87 7.66 4.25 10.2 3.4 2.55-.85 1.7-4.25-.85-3.4"/>
	<circle fill="#292F33" cx="14.5" cy="23.5" r="2.5"/>
	<circle fill="#292F33" cx="21.5" cy="23.5" r="2.5"/>
	<path fill="#DD2E44" d="m6.08 12c0-5.02 4.93-11 11.9-11 7 0 11.9 6.02 11.9 11 0 .717-4.93 2.87-11.9 2.87-7 0-11.9-2.15-11.9-2.87"/>
	<path fill="#77B255" d="m18 .984s4.97 3.97 5.96 7.95c.964 3.86 0 6.96 0 6.96h-11.9s-.994-2.98 0-6.96c.994-3.97 5.96-7.95 5.96-7.95"/>
	<path fill="#414042" d="m6.08 10.9s2.98 2.98 11.9 2.98c8.94 0 11.9-2.98 11.9-2.98s.994 1.99 0 2.98-3.97 2.98-11.9 2.98-10.9-1.99-11.9-2.98c-.994-.994 0-2.98 0-2.98"/>
	<ellipse fill="#414042" cx="18" cy=".984" rx="1.99" ry=".994"/>
	<ellipse fill="#FFD983" cx="18" cy="10.9" rx="2.98" ry="1.99"/>
</svg>
