<svg xmlns="http://www.w3.org/2000/svg" viewBox="0 0 36 36">
	<path fill="#744EAA" d="M31 11C31 5 18 0 18 0v25s13-8 13-14z"/>
	<path fill="#744EAA" d="m5 11c0-6 13-11 13-11v25c.001 0-13-8-13-14z"/>
	<path fill="#AA8DD8" d="m27 11c0 3.83-9 12-9 12s-9-8.17-9-12c0-5 9-11 9-11s9 6 9 11z"/>
	<path fill="#553986" d="m13 15.9c2.55 4.25-1.81 9.1-4.36 8.24-2.55-.851-3.4 1.7-.851 2.55s8.05-.396 11.1-3.4c.851-.851 1.7-.851 1.7-.851l-7.55-6.54z"/>
	<path fill="#553986" d="m23 15.9c-2.55 4.25 1.81 9.1 4.36 8.24 2.55-.851 3.4 1.7.851 2.55s-8.05-.396-11.1-3.4c-.851-.851-1.7-.851-1.7-.851l7.55-6.54z"/>
	<path fill="#744EAA" d="m9 17c2.55 4.25-1.37 11.4-3.92 10.5s-3.4 1.7-.851 2.55 8.05-.396 11.1-3.4c.851-.851 1.7-.851 1.7-.851l-7.99-8.81zm18 0c-2.55 4.25 1.37 11.4 3.92 10.5 2.55-.851 3.4 1.7.851 2.55-2.55.851-8.05-.396-11.1-3.4-.851-.852-1.7-.852-1.7-.852l7.99-8.81z"/>
	<path fill="#AA8DD8" d="m30.9 32.4c-2.32.774-6.92-5.35-5.92-11.4 2-5-4-7.48-4-9.98 0-6.11-2.03-9.74-3.03-9.74s-2.97 3.63-2.97 9.74c0 2.5-6 4.98-4 9.98 1 6-3.6 12.1-5.92 11.4-2.55-.851-3.4 2.55-.851 3.4 2.55.851 7.07-.533 10.2-3.4 1.86-1.7 3.56-1.7 3.56-1.7s1.7 0 3.56 1.7c3.14 2.87 7.66 4.25 10.2 3.4 2.55-.85 1.7-4.25-.85-3.4z"/>
	<g fill="#292F33">
		<path d="m12.1 18.5a1.27 1.27 0 0 0-.508 2.42l1.29.637a2.5 2.5 0 0 0-.906 1.92 2.5 2.5 0 0 0 2.5 2.5 2.5 2.5 0 0 0 2.5-2.5 2.5 2.5 0 0 0-.0469-.467 1.27 1.27 0 0 0 .00977-2.29l-4.23-2.08a1.27 1.27 0 0 0-.613-.139z"/>
		<path d="m23.8 18.5a1.27 1.27 0 0 0-.574.139l-4.23 2.08a1.27 1.27 0 0 0 .0215 2.29 2.5 2.5 0 0 0-.0449.457 2.5 2.5 0 0 0 2.5 2.5 2.5 2.5 0 0 0 2.5-2.5 2.5 2.5 0 0 0-.898-1.92l1.27-.625a1.27 1.27 0 0 0-.545-2.42z"/>
		<path d="m22.5 30.2c-.0278-.118-.702-2.74-4.47-2.74-3.77 0-4.45 2.63-4.47 2.74-.0449.185.0335.374.195.471.162.0962.367.0698.501-.0655.0107-.0114 1.13-1.08 3.78-1.08s3.77 1.07 3.78 1.08c.0769.0798.184.125.293.125.0712 0 .142-.0185.206-.0563.16-.0954.241-.29.196-.474z"/>
	</g>
	<path fill="#AA8DD8" d="m12 5.72c-1.94 0-4.24-1.86-4.95-2.57-.43-.43-1.08-.559-1.64-.326-.563.232-.929.781-.929 1.39 0 2.6 1.26 7.52 6.02 7.52.57 0 1.09-.322 1.35-.832l1.5-3.01c.233-.466.208-1.02-.0662-1.46-.274-.443-.758-.713-1.28-.713zm18.6-2.89c-.564-.234-1.21-.105-1.64.327-.667.666-3.01 2.57-4.95 2.57-.521 0-1.01.27-1.28.714-.274.443-.299.998-.0662 1.46l1.5 3.01c.255.509.776.831 1.35.831 4.76 0 6.02-4.92 6.02-7.52 0-.609-.366-1.16-.928-1.39z"/>
</svg>
