<svg xmlns="http://www.w3.org/2000/svg" viewBox="0 0 36 36">
  <path fill="#292F33" d="M18 0c-2.18.218-4.37-.639-6.31 2.4C.29.45 5.33 6.2 5.33 6.2c-5.89 1.69-1.09 6.12-1.12 6.13-5.7 5.46.901 5.32 1.6 4.71 1.33.853-2.32 2.66.375 4.29 2.69 1.62 5.67-3.27 11.8-8.34 6.14 5.07 9.11 9.97 11.8 8.34 2.69-1.62-.958-3.43.375-4.29.7.609 7.3.746 1.6-4.71-.022-.011 4.78-4.44-1.12-6.13 0 0 5.04-5.75-6.36-3.8C22.34-.64 20.15.22 17.97 0z"/>
  <path fill="#A0041E" d="M13 15.9c2.55 4.25-1.81 9.1-4.36 8.24-2.55-.851-3.4 1.7-.851 2.55s8.05-.396 11.1-3.4c.851-.851 1.7-.851 1.7-.851l-7.55-6.54z"/>
  <path fill="#A0041E" d="M23 15.9c-2.55 4.25 1.81 9.1 4.36 8.24 2.55-.851 3.4 1.7.851 2.55s-8.05-.396-11.1-3.4c-.851-.851-1.7-.851-1.7-.851l7.55-6.54z"/>
  <g fill="#BE1931">
    <path d="M9 17c2.55 4.25-1.37 11.4-3.92 10.5s-3.4 1.7-.851 2.55 8.05-.396 11.1-3.4c.851-.851 1.7-.851 1.7-.851l-7.99-8.81zm18 0c-2.55 4.25 1.37 11.4 3.92 10.5 2.55-.851 3.4 1.7.851 2.55-2.55.851-8.05-.396-11.1-3.4-.851-.852-1.7-.852-1.7-.852l7.99-8.81z"/>
    <path d="M31 11C31 5 18 0 18 0v25s13-8 13-14z"/>
    <path d="M5 11C5 5 18 0 18 0v25c.001 0-13-8-13-14z"/>
  </g>
  <path fill="#DD2E44" d="M27 11c0 3.83-9 12-9 12s-9-8.17-9-12c0-5 9-11 9-11s9 6 9 11z"/>
  <path fill="#DD2E44" d="M30.9 32.4c-2.32.774-6.92-5.35-5.92-11.4 2-5-4-7.48-4-9.98 0-6.11-2.03-9.74-3.03-9.74s-2.97 3.63-2.97 9.74c0 2.5-6 4.98-4 9.98 1 6-3.6 12.1-5.92 11.4-2.55-.851-3.4 2.55-.851 3.4 2.55.851 7.07-.533 10.2-3.4 1.86-1.7 3.56-1.7 3.56-1.7s1.7 0 3.56 1.7c3.14 2.87 7.66 4.25 10.2 3.4 2.55-.85 1.7-4.25-.85-3.4z"/>
  <path fill="#F4900C" d="M5.93.004c-.485.04-.894.439-.92.936-.08 1.37.334 2.88.803 4.15.458 1.24 1.11 2.41 1.96 3.43.655.789 2.57 3 3.73 2.33.853.426 1.89-.452 1.37-1.36.312-.538.04-1.25-.549-1.45-1.11-.55-1.98-1.59-2.7-2.56-1.04-1.4-1.81-2.95-2.54-4.52C6.85.454 6.57-.05 5.934.007zm24.1 0c-.632-.053-.912.447-1.15.953-.73 1.57-1.51 3.12-2.54 4.52-.72.973-1.59 2.01-2.7 2.56a1.012 1.012 0 0 0-.549 1.45c-.525.91.512 1.79 1.37 1.36 1.16.67 3.08-1.54 3.73-2.33.846-1.02 1.5-2.19 1.96-3.43.469-1.27.883-2.78.803-4.15a1.008 1.008 0 0 0-.92-.936z"/>
  <path fill="#292F33" d="M22.3 27.1c-.508.268-2.63.882-4.32.882-1.8 0-3.91-.614-4.42-.882-.507-.267-1.07.207-.908 1.12.218 1.25.753 2.82 2.04 2.52.421-.096 1.49-1.01 3.29-1.01 1.82 0 2.79.916 3.21 1.01 1.28.294 1.74-1.28 1.96-2.52.161-.916-.347-1.39-.855-1.12z"/>
  <path fill="#FFF" d="M22.6 29l-.484-1.8c-.694.292-2.61.81-4.16.81-1.7 0-3.68-.548-4.32-.834l-.49 1.83a.603.603 0 0 0 .425.736.603.603 0 0 0 .736-.425l.45-1.4c.536.207 1.87.399 3.2.397 1.3-.002 2.59-.195 3.11-.397l.37 1.4a.6.6 0 0 0 .733.425.601.601 0 0 0 .424-.736z"/>
  <path fill="#FFF" d="M20.9 29.7a.452.452 0 0 0-.347-.534.452.452 0 0 0-.534.347l-.071.387c-.212-.114-1.11-.388-2.01-.39-.934-.002-1.88.273-2.09.39l-.12-.387a.47.47 0 0 0-.552-.347.458.458 0 0 0-.357.534l.191.91c.55-.288 1.51-.854 2.93-.854 1.36 0 2.24.509 2.78.809z"/>
  <path fill="#55ACEE" d="M12.4 20.5a2.56 2.56 0 0 0-1.43.434c.008.021.01.041.02.063.23 1.39.154 2.77-.115 4.09.283.21.61.367.977.445l1.99.424a2.559 2.559 0 0 0 3.02-1.96 2.542 2.542 0 0 0-1.96-3.01l-1.99-.422a2.517 2.517 0 0 0-.51-.057zm11.2 0c-.168.001-.339.02-.51.057l-1.99.422a2.548 2.548 0 0 0-1.96 3.01 2.554 2.554 0 0 0 3.02 1.96l1.99-.424c.366-.078.693-.235.977-.445-.269-1.31-.346-2.7-.115-4.09.009-.022.011-.041.02-.063a2.545 2.545 0 0 0-1.43-.434z"/>
  <path fill="#FFCC4D" d="M13.1 21a2.093 2.093 0 0 0-1.93 1.27c.022.51.002 1.02-.045 1.52.236.662.793 1.2 1.53 1.35l1.63.348a2.1 2.1 0 0 0 2.48-1.61 2.1 2.1 0 0 0-1.61-2.48l-1.63-.348a2.068 2.068 0 0 0-.42-.045zm9.89 0a2.08 2.08 0 0 0-.42.045l-1.63.348a2.102 2.102 0 0 0-1.61 2.48 2.097 2.097 0 0 0 2.48 1.61l1.63-.348a2.1 2.1 0 0 0 1.53-1.35c-.047-.5-.066-1.01-.045-1.52a2.114 2.114 0 0 0-1.93-1.27z"/>
  <g fill="#292F33">
    <circle cx="14.3" cy="23.3" r="1.25"/>
		<circle cx="21.7" cy="23.3" r="1.25"/>
    <path d="M10.5 18.5a.84.84 0 0 0-.852.357.838.838 0 0 0 .232 1.16c.111.073 2.76 1.81 6.31 1.81a.837.837 0 0 0 0-1.672c-3.03 0-5.36-1.52-5.39-1.53a.827.827 0 0 0-.307-.123zm15.1 0a.828.828 0 0 0-.307.123c-.023.016-2.35 1.53-5.39 1.53a.837.837 0 0 0 0 1.672c3.55 0 6.2-1.74 6.31-1.81a.837.837 0 0 0-.62-1.517z"/>
  </g>
</svg>
