<svg xmlns="http://www.w3.org/2000/svg" viewBox="0 0 36 36">
  <path fill="#EA596E" d="M31 11C31 5 18 0 18 0v25s13-8 13-14z"/>
  <path fill="#EA596E" d="M5 11C5 5 18 0 18 0v25c.001 0-13-8-13-14z"/>
  <path fill="#F4ABBA" d="M27 11c0 3.83-9 12-9 12s-9-8.17-9-12c0-5 9-11 9-11s9 6 9 11z"/>
  <path fill="#BE1931" d="M13 15.9c2.55 4.25-1.81 9.1-4.36 8.24-2.55-.851-3.4 1.7-.851 2.55s8.05-.396 11.1-3.4c.851-.851 1.7-.851 1.7-.851l-7.55-6.54z"/>
  <path fill="#BE1931" d="M23 15.9c-2.55 4.25 1.81 9.1 4.36 8.24 2.55-.851 3.4 1.7.851 2.55s-8.05-.396-11.1-3.4c-.851-.851-1.7-.851-1.7-.851l7.55-6.54z"/>
  <path fill="#EA596E" d="M9 17c2.55 4.25-1.37 11.4-3.92 10.5s-3.4 1.7-.851 2.55 8.05-.396 11.1-3.4c.851-.851 1.7-.851 1.7-.851l-7.99-8.81zm18 0c-2.55 4.25 1.37 11.4 3.92 10.5 2.55-.851 3.4 1.7.851 2.55-2.55.851-8.05-.396-11.1-3.4-.851-.852-1.7-.852-1.7-.852l7.99-8.81z"/>
  <path fill="#F4ABBA" d="M21.6 32.4c1.32 1.13 3.34 1.91 5.28 2.1 13.2 1.38 2.29-11.3 2.97-12.5.591-1.05 1.13-.138 1.63.129 2.38 1.27 3.79-1.95 1.41-3.22-1.06-.559-3.19-1.26-4.68-.518-5.11 3.03 3.45 11.9-.436 11.7-1.52-.093-3.24-5.84-2.73-9.11.865-1.89.266-4.1-1.02-5.65-.963-1.39-2.53-2.43-2.97-4.12-.032-2.43-.26-4.9-1.08-7.19-.434-1.03-.825-2.34-1.96-2.72-1.02.066-2.98 3.69-2.98 9.8 0 2.5-6 4.98-4 9.98 1 6-3.6 12.1-5.92 11.3-2.55-.851-3.4 2.55-.85 3.4 2.55.851 7.07-.533 10.2-3.4 1.86-1.7 3.56-1.7 3.56-1.7 1.35.101 2.58.815 3.57 1.71z"/>
  <circle fill="#292F33" cx="14.5" cy="23.5" r="2.5"/>
  <circle fill="#292F33" cx="21.5" cy="23.5" r="2.5"/>
</svg>
