<svg xmlns="http://www.w3.org/2000/svg" viewBox="0 0 36 36">
	<path fill="#CCD6DD" d="m26.3 7.91 4.64-4.63 1.77 1.77-4.64 4.63z"/>
	<g fill="#31373D">
		<circle cx="18" cy="18" r="11.5"/>
		<path d="m22.1 9.3 4.64-4.64 4.64 4.64-4.64 4.64z"/>
		<path d="m15 11c0 2.1-4.21 4.19-4.38 7.76l-1.62-1.78c1.28 2.13.933 4.97-.0469 7.17-.104-.0162-.211-.0274-.311-.0606-2.42-.807-3.3 1.45-1.21 2.41-.774.815-1.62 1.24-2.35.998-2.55-.851-3.4 1.7-.85 2.55 1.11.369 2.77.32 4.54-.0723-1.23 1.71-2.68 2.69-3.69 2.35-2.55-.851-3.4 2.55-.85 3.4 2.55.851 7.07-.533 10.2-3.4 1.86-1.7 3.56-1.7 3.56-1.7s1.7.0011 3.56 1.7c3.14 2.87 7.66 4.25 10.2 3.4 2.55-.85 1.7-4.25-.85-3.4-1.01.338-2.46-.641-3.69-2.35 1.77.389 3.43.436 4.53.0684 2.55-.851 1.7-3.4-.852-2.55-.733.244-1.58-.182-2.35-.994 2.1-.958 1.22-3.22-1.2-2.41-.103.0344-.214.0463-.322.0625v-.0019c-.98-2.2-1.32-5.04-.0469-7.17l-1.6 1.77c-.183-3.57-4.38-5.65-4.38-7.75z"/>
	</g>
	<circle fill="#F18F26" cx="32.7" cy="3.28" r="3.28"/>
	<g fill="#FDCB58">
		<circle cx="32.7" cy="3.28" r="1.64"/>
		<circle cx="14.5" cy="23.5" r="2.5"/>
		<circle cx="21.5" cy="23.5" r="2.5"/>
	</g>
</svg>
