<?xml version="1.0" encoding="UTF-8" standalone="no"?>
<svg
   xmlns:dc="http://purl.org/dc/elements/1.1/"
   xmlns:cc="http://creativecommons.org/ns#"
   xmlns:rdf="http://www.w3.org/1999/02/22-rdf-syntax-ns#"
   xmlns:svg="http://www.w3.org/2000/svg"
   xmlns="http://www.w3.org/2000/svg"
   xmlns:sodipodi="http://sodipodi.sourceforge.net/DTD/sodipodi-0.dtd"
   xmlns:inkscape="http://www.inkscape.org/namespaces/inkscape"
   viewBox="0 0 45 45"
   style="enable-background:new 0 0 45 45;"
   xml:space="preserve"
   version="1.1"
   id="svg2"
   sodipodi:docname="squidbucc.svg"
   inkscape:version="0.92.1 r15371"
   inkscape:export-filename="E:\Users\Richard\Documents\One off mini projects\Coe things\Others\Squidmotes\squidbucc.png"
   inkscape:export-xdpi="68.266701"
   inkscape:export-ydpi="68.266701"><sodipodi:namedview
     pagecolor="#36393e"
     bordercolor="#666666"
     borderopacity="1"
     objecttolerance="10"
     gridtolerance="10"
     guidetolerance="10"
     inkscape:pageopacity="0"
     inkscape:pageshadow="2"
     inkscape:window-width="640"
     inkscape:window-height="480"
     id="namedview4571"
     showgrid="false"
     inkscape:zoom="7.4167645"
     inkscape:cx="16.80112"
     inkscape:cy="24.11138"
     inkscape:current-layer="svg2" /><metadata
     id="metadata8"><rdf:RDF><cc:Work
         rdf:about=""><dc:format>image/svg+xml</dc:format><dc:type
           rdf:resource="http://purl.org/dc/dcmitype/StillImage" /><dc:title></dc:title></cc:Work></rdf:RDF></metadata><defs
     id="defs6"><clipPath
       id="clipPath16"
       clipPathUnits="userSpaceOnUse"><path
         id="path18"
         d="M 0,36 36,36 36,0 0,0 0,36 Z" /></clipPath><clipPath
       clipPathUnits="userSpaceOnUse"
       id="clipPath16-7"><path
         d="M 0,36 36,36 36,0 0,0 0,36 Z"
         id="path18-4" /></clipPath><clipPath
       clipPathUnits="userSpaceOnUse"
       id="clipPath16-75"><path
         d="M 0,36 36,36 36,0 0,0 0,36 Z"
         id="path18-0" /></clipPath></defs><path
     d="m 2.5,7.460625 c -2.5,0 -2.5,2.5 -2.5,2.5 v 25 c 0,0 0,2.5 2.5,2.5 h 40 c 2.5,0 2.5,-2.5 2.5,-2.5 v -25 c 0,0 0,-2.5 -2.5,-2.5 z"
     style="fill:#f4abba;fill-opacity:1;fill-rule:nonzero;stroke:none;stroke-width:1.25"
     id="path22"
     inkscape:connector-curvature="0" /><path
     inkscape:connector-curvature="0"
     id="path24"
     style="fill:#9aaab4;fill-opacity:1;fill-rule:nonzero;stroke:none;stroke-width:1.25"
     d="m 28.75,37.539375 h -12.5 v -30.0775 h 12.5 z" /><path
     style="fill:#67757f;fill-opacity:1;fill-rule:nonzero;stroke:none;stroke-width:1.25"
     d="m 8.9879512,14.408995 -0.0021,0.0014 c -0.02022,0.0078 -5.8194119,2.242864 -5.8194119,4.925678 0,1.079962 0.9432412,2.302442 2.0681132,3.381068 0.2047723,0.824535 0.040516,1.756061 -0.2988294,2.518831 -0.046688,-0.0073 -0.094108,-0.01176 -0.1385741,-0.0266 -1.0848247,-0.361183 -1.4809767,0.647735 -0.5430984,1.077798 -0.3465335,0.36486 -0.7246675,0.556105 -1.053303,0.446517 -1.1430823,-0.381176 -1.524259,0.762158 -0.3807289,1.142887 0.4943572,0.164849 1.2357109,0.153375 2.026821,-0.021 -0.5481129,0.759944 -1.1935559,1.194351 -1.6460921,1.043506 -1.1430823,-0.381177 -1.524259,1.142886 -0.3807289,1.523615 1.1430823,0.381177 3.165788,-0.238544 4.5722449,-1.523615 0.8340206,-0.762354 1.5957016,-0.762158 1.5957016,-0.762158 0,0 0.761933,-1.96e-4 1.5964018,0.762158 1.405561,1.285071 3.429162,1.904792 4.572244,1.523615 1.142635,-0.380729 0.762353,-1.904792 -0.380728,-1.523615 -0.452377,0.150791 -1.098106,-0.283362 -1.646093,-1.042806 0.789251,0.173328 1.528596,0.184803 2.021922,0.0203 1.143082,-0.380729 0.762353,-1.524063 -0.380729,-1.142886 -0.328482,0.109493 -0.706256,-0.08158 -1.052603,-0.445817 0.942147,-0.429268 0.547104,-1.440074 -0.538899,-1.078498 -0.04588,0.01531 -0.09523,0.02003 -0.143473,0.02729 l -7.17e-4,-7.18e-4 c -0.338165,-0.760115 -0.503235,-1.688012 -0.301644,-2.510429 1.128826,-1.080705 2.077212,-2.306646 2.077212,-3.389466 0,-2.685559 -5.8131218,-4.923152 -5.8215108,-4.92638 h -7.15e-4 z m -1.5677069,9.406241 c 0.6185719,0 1.1197909,0.501218 1.1197909,1.119791 0,0.618572 -0.501219,1.11979 -1.1197909,1.11979 -0.6185723,0 -1.1197905,-0.501218 -1.1197905,-1.11979 0,-0.618573 0.5012182,-1.119791 1.1197905,-1.119791 z m 3.1354137,0 c 0.618572,0 1.11979,0.501218 1.11979,1.119791 0,0.618572 -0.501218,1.11979 -1.11979,1.11979 -0.6185728,0 -1.1197908,-0.501218 -1.1197908,-1.11979 0,-0.618573 0.501218,-1.119791 1.1197908,-1.119791 z"
     id="path22-6"
     inkscape:connector-curvature="0" /></svg>