<svg xmlns="http://www.w3.org/2000/svg" viewBox="0 0 36 36">
	<path fill="#C1694F" d="m35 26c0 2.21-1.79 4-4 4h-26c-2.21 0-4-1.79-4-4v-19.7c0-2.21 5.79-6.31 8-6.31h20.6c3.09 0 5.38 2.31 5.38 5.38z"/>
	<path fill="#CCD6DD" d="m33 30c0 2.21-1.79 4-4 4h-22c-2.21 0-4-1.79-4-4v-24c0-4.12-.021-4 5-4h21c2.21 0 4 1.79 4 4z"/>
	<path fill="#E1E8ED" d="m31 31c0 1.66-1.34 3-3 3h-24c-1.66 0-3-1.34-3-3v-24c0-1.66 1.34-3 3-3h24c1.66 0 3 1.34 3 3z"/>
	<path fill="#C1694F" d="m31 32c0 2.21-1.79 4-4 4h-21c-2.21 0-4-1.79-4-4v-22c0-2.21 1.79-4 4-4h21c2.21 0 4 1.79 4 4z"/>
	<path fill="#D99E82" d="m6 8c-2.21 0-4 1.79-4 4v20c0 2.21 1.79 4 4 4h19c2.21 0 4-1.79 4-4v-20.3c0-2.21-1.46-3.66-3.66-3.66h-19.3zm12 3.47s7.61 2.93 7.61 6.44c1e-6 1.41-1.24 3-2.71 4.41-.27 1.08-.0571 2.3.387 3.3.0644-.0101.129-.015.189-.0352 1.42-.473 1.92.835.693 1.4.459.483.956.737 1.39.592 1.49-.503 1.99.992.5 1.49-.644.214-1.6.192-2.63-.0293.714.981 1.55 1.56 2.13 1.37 1.49-.493 1.99 1.5.498 1.99-1.5.493-4.14-.312-5.98-1.99-1.09-.996-2.08-.996-2.08-.996s-.995-.000131-2.08.996c-1.84 1.68-4.49 2.49-5.98 1.99-1.5-.503-.991-2.49.498-1.99.594.201 1.42-.386 2.13-1.37-1.03.222-1.99.247-2.63.0332-1.5-.493-.991-1.99.498-1.49.433.144.933-.109 1.39-.594-1.21-.565-.722-1.87.697-1.4.0584.0191.119.0231.18.0332.446-1.01.66-2.23.387-3.31-1.47-1.41-2.7-2.99-2.7-4.4 0-3.51 7.58-6.43 7.6-6.44zm-2.05 12.3c-.813 0-1.47.664-1.47 1.47 0 .805.664 1.46 1.47 1.46.805 0 1.46-.646 1.46-1.46 0-.813-.651-1.47-1.46-1.47zm4.1 0c-.805 0-1.46.664-1.46 1.47 0 .805.646 1.46 1.46 1.46.813 0 1.47-.646 1.47-1.46 0-.813-.661-1.47-1.47-1.47z"/>
	<path fill="#C1694F" d="m6 6c-1.69 0-1.73-1.92-1-2.75.832-.941 2.12-1.25 4.44-1.25h1.56v-2h-2.72c-3.97 0-7.28 2.5-7.28 5.38v26.6c0 2.21 1.79 4 4 4h2v-30z"/>
	<path fill="#E1E8ED" d="m25 18c0 1.1-.896 2-2 2h-10c-1.1 0-2-.896-2-2v-2c0-1.1.896-2 2-2h10c1.1 0 2 .896 2 2z"/>
</svg>
