<svg xmlns="http://www.w3.org/2000/svg" viewBox="0 0 36 36">
	<path fill="#292F33" d="M35 26c0 2.209-1.791 4-4 4H5c-2.209 0-4-1.791-4-4V6.313C1 4.104 6.791 0 9 0h20.625C32.719 0 35 2.312 35 5.375V26z"/>
	<path fill="#CCD6DD" d="m33 30c0 2.21-1.79 4-4 4h-22c-2.21 0-4-1.79-4-4v-24c0-4.12-.021-4 5-4h21c2.21 0 4 1.79 4 4v24z"/>
	<path fill="#E1E8ED" d="m31 31c0 1.66-1.34 3-3 3h-24c-1.66 0-3-1.34-3-3v-24c0-1.66 1.34-3 3-3h24c1.66 0 3 1.34 3 3v24z"/>
	<path fill="#292F33" d="m31 32c0 2.21-1.79 4-4 4h-21c-2.21 0-4-1.79-4-4v-22c0-2.21 1.79-4 4-4h21c2.21 0 4 1.79 4 4v22z"/>
	<path fill="#66757F" d="m29 32c0 2.21-1.79 4-4 4h-19c-2.21 0-4-1.79-4-4v-20c0-2.21 1.79-4 4-4h19.3c2.21 0 3.66 1.46 3.66 3.66z"/>
	<path fill="#292F33" d="M6 6C4.312 6 4.269 4.078 5 3.25 5.832 2.309 7.125 2 9.438 2H11V0H8.281C4.312 0 1 2.5 1 5.375V32c0 2.209 1.791 4 4 4h2V6H6z"/>
	<path fill="#CCD6DD" d="m7 8v4h3v-4zm3 4v4h1.11c.683-.943 1.78-1.79 2.89-2.49v-1.51zm4 0h2.77c.731-.339 1.22-.531 1.23-.533h.00195v-3.47h-4zm4-.533v.533h1.23c-.733-.34-1.23-.533-1.23-.533zm1.23.533c.76.352 1.77.871 2.77 1.5v-1.5zm2.77 0h4v-3.94c-.214-.031-.432-.0566-.664-.0566h-3.34zm4 0v4h3v-4zm0 4h-1.1c.438.604.707 1.24.707 1.91 0 .67-.285 1.38-.736 2.09h1.13zm0 4v4h3v-4zm0 4h-3.17c.0755.564.238 1.12.459 1.62.0644-.0101.129-.0151.189-.0352 1.42-.473 1.92.835.693 1.4.459.483.956.737 1.39.592.162-.0545.304-.0765.441-.0879zm0 3.48v.518h.93c-.0717-.321-.402-.562-.93-.518zm.93.518c.0816.365-.166.823-.873 1.06-.0169.0057-.0393.0067-.0566.0117v1.25c.0243 0 .0507-.0049.0742-.0039.858.0456 1.15 1.05.576 1.68h2.35v-4zm-.279 4h-.65v.4c.0189-.0057.042-.0056.0606-.0117.263-.0878.445-.23.59-.389zm-.65.4c-.872.263-2.1.101-3.34-.4h-.658v4h3c.347 0 .679-.0576 1-.141zm-4-.4v-.301c-.677-.342-1.34-.774-1.92-1.3-1.09-.996-2.08-.996-2.08-.996v2.6zm-4 0h-4v4h4zm-4 0v-.301c-.219.111-.437.211-.658.301zm-.658 0h-3.34v.4c.867.266 2.1.103 3.34-.4zm-3.34.4c-.0188-.0057-.0421-.0057-.0605-.0117-.263-.0884-.443-.23-.588-.389h-2.35v4h3zm-.648-.4h.648v-1.68c-.91-.0103-1.24 1.03-.648 1.68zm.648-1.68c.135.0015.279.0212.438.0742.594.201 1.42-.386 2.13-1.37-1 .217-1.93.241-2.57.0449zm0-1.25v-1.07h-.93c-.0862.366.162.827.875 1.06.0164.0054.0379.0066.0547.0117zm-.93-1.07c.075-.318.405-.556.93-.514v-3.49h-3v4zm.93-4h3.17c.0772-.572.0639-1.15-.0742-1.7-.769-.737-1.47-1.52-1.96-2.3h-1.13zm0-4v-4h-3v4zm1.13 0h2.87v-4h-2.89c-.438.604-.709 1.24-.709 1.9 0 .672.285 1.38.736 2.1zm2.87-4h4v-4h-1.23c-.761.353-1.77.873-2.77 1.51zm4 0v4h4v-4zm4 0h2.9c-.684-.944-1.78-1.79-2.9-2.5zm0 4v4h.828c-.076-.568-.065-1.15.0703-1.69.771-.739 1.47-1.53 1.97-2.31zm0 4h-1.12c.385.265.641.707.641 1.21 0 .813-.658 1.46-1.47 1.46-.813 0-1.46-.654-1.46-1.46 0-.5.253-.945.637-1.21h-1.22v4h4zm0 4v3.7c.219.111.437.211.658.301h3.34v-1.68c-.134.0013-.277.0201-.436.0723-.588.196-1.42-.386-2.13-1.37.999.216 1.93.238 2.57.041v-1.07zm-4 0h-4v3.7c.677-.343 1.34-.774 1.92-1.3 1.09-.996 2.08-.996 2.08-.996zm-4 0v-4h-.832c-.0758.562-.238 1.11-.459 1.61-.0604-.0101-.123-.0141-.182-.0332-1.42-.471-1.91.834-.697 1.4-.456.485-.956.738-1.39.594-.161-.0539-.305-.0749-.441-.0859v.514zm0-4h1.12c.236-.163.522-.258.83-.258.308 0 .593.0953.828.258h1.22v-4h-4zm2.78 0h-1.66c-.386.266-.639.711-.639 1.21 0 .805.664 1.46 1.47 1.46.805 0 1.46-.646 1.46-1.46 0-.504-.249-.946-.631-1.21zm2.45 0h1.65c-.237-.163-.523-.258-.83-.258-.305-1e-6-.588.0952-.822.258z"/>
</svg>
