<svg xmlns="http://www.w3.org/2000/svg" viewBox="0 0 36 36">
	<path fill="#F4900C" d="M36 26c0 2.209-1.791 4-4 4H8c-2.209 0-4-1.791-4-4V6.313C4 4.104 9.791 0 12 0h18.625C33.719 0 36 2.312 36 5.375V26z"/>
	<path fill="#CCD6DD" d="m34 30c0 2.21-1.79 4-4 4h-20c-2.21 0-4-1.79-4-4v-24c0-4.12-.021-4 5-4h19c2.21 0 4 1.79 4 4v24z"/>
	<path fill="#E1E8ED" d="m32 31c0 1.66-1.34 3-3 3h-22c-1.66 0-3-1.34-3-3v-24c0-1.66 1.34-3 3-3h22c1.66 0 3 1.34 3 3v24z"/>
	<path fill="#FFAC33" d="m32 32c0 2.21-1.79 4-4 4h-19c-2.21 0-4-1.79-4-4v-22c0-2.21 1.79-4 4-4h19c2.21 0 4 1.79 4 4v22z"/>
	<path fill="#FFCC4D" d="m9 8c-2.21 0-4 1.79-4 4v20c0 2.21 1.79 4 4 4h17c2.21 0 4-1.79 4-4v-20.3c0-.552-.0908-1.06-.262-1.5-.171-.447-.422-.836-.742-1.16-.32-.32-.709-.571-1.16-.742-.447-.171-.952-.262-1.5-.262zm9.99 3.46s7.62 2.93 7.62 6.45c0 1.41-1.24 3-2.71 4.41-.27 1.08-.0576 2.31.387 3.3.0645-.0101.129-.015.189-.0352 1.42-.473 1.92.836.695 1.4.459.484.957.737 1.39.592 1.5-.504 1.99.994.498 1.49-.645.215-1.6.192-2.63-.0293.715.982 1.55 1.57 2.14 1.37 1.5-.494 1.99 1.5.498 2-1.5.494-4.14-.314-5.98-2-1.09-.997-2.09-.996-2.09-.996s-.998-.0013-2.09.996c-1.84 1.68-4.49 2.49-5.98 2-1.5-.504-.993-2.49.498-2 .594.201 1.42-.387 2.14-1.37-1.03.223-1.99.247-2.63.0332-1.5-.494-.993-1.99.498-1.49.433.144.934-.108 1.39-.594-1.22-.565-.723-1.87.697-1.4.0584.0192.121.0231.182.0332.446-1.01.661-2.24.387-3.31-1.47-1.41-2.7-2.99-2.7-4.4 1e-6-3.51 7.59-6.44 7.61-6.45zm-2.05 12.3c-.814 0-1.47.665-1.47 1.47s.665 1.46 1.47 1.46c.806 0 1.46-.647 1.46-1.46 0-.814-.652-1.47-1.46-1.47zm4.1 0c-.806 0-1.46.665-1.46 1.47s.647 1.46 1.46 1.46c.814 0 1.47-.647 1.47-1.46 0-.814-.662-1.47-1.47-1.47z"/>
	<path fill="#F4900C" d="M9 6C7.312 6 7.269 4.078 8 3.25 8.832 2.309 10.125 2 12.438 2H14V0h-2.719C7.312 0 4 2.5 4 5.375V32c0 2.209 1.791 4 4 4h2V6H9z"/>
	<g fill="#662113">
		<path d="m8.54 33c0 .702-.667 1.27-1.49 1.27-.822 0-1.49-.569-1.49-1.27s.667-1.27 1.49-1.27 1.49.569 1.49 1.27z"/>
		<path d="m8.54 25c0 .702-.667 1.27-1.49 1.27-.822 0-1.49-.569-1.49-1.27s.667-1.27 1.49-1.27 1.49.569 1.49 1.27z"/>
		<path d="m8.54 17c0 .702-.667 1.27-1.49 1.27-.822 0-1.49-.569-1.49-1.27s.667-1.27 1.49-1.27 1.49.569 1.49 1.27z"/>
		<path d="m8.54 8.98c0 .702-.667 1.27-1.49 1.27-.822 0-1.49-.569-1.49-1.27s.667-1.27 1.49-1.27 1.49.569 1.49 1.27z"/>
	</g>
	<g fill="#66757F">
		<path d="m6.89 32.3c-.48.055-.792.375-1.02.729-.307.485-1.01 1-1.88 1-1.1 0-2-.671-2-1.5s.896-1.5 2-1.5v-2c-2.17.021-3.92 1.58-3.92 3.5 0 1.93 1.77 3.5 3.96 3.5 1.85 0 3.35-1.04 3.9-2.57.277-.759-.469-1.22-1.05-1.16z"/>
		<path d="m6.89 24.3c-.48.055-.792.375-1.02.729-.307.485-1.01 1-1.88 1-1.1 0-2-.671-2-1.5s.896-1.5 2-1.5v-2c-2.17.021-3.92 1.58-3.92 3.5 0 1.93 1.77 3.5 3.96 3.5 1.85 0 3.35-1.04 3.9-2.57.277-.759-.469-1.22-1.05-1.16z"/>
		<path d="m6.89 16.3c-.48.055-.792.375-1.02.729-.307.485-1.01 1-1.88 1-1.1 0-2-.671-2-1.5s.896-1.5 2-1.5v-2c-2.17.021-3.92 1.58-3.92 3.5 0 1.93 1.77 3.5 3.96 3.5 1.85 0 3.35-1.04 3.9-2.57.277-.759-.469-1.22-1.05-1.16z"/>
		<path d="m6.89 8.27c-.48.055-.792.375-1.02.729-.307.485-1.01 1-1.88 1-1.1 0-2-.671-2-1.5s.896-1.5 2-1.5v-2c-2.17.02-3.92 1.58-3.92 3.5 0 1.93 1.77 3.5 3.96 3.5 1.85 0 3.35-1.04 3.9-2.57.277-.759-.469-1.22-1.05-1.16z"/>
	</g>
</svg>
