<svg xmlns="http://www.w3.org/2000/svg" viewBox="0 0 36 36">
	<path fill="#31373D" d="M18 36s-4 0-4-4V4s0-4 4-4h14s4 0 4 4v28s0 4-4 4H18z"/>
	<path fill="#55ACEE" d="m16 5h18v26h-18z"/>
	<path fill="#55ACEE" d="m13 16s1 1 1 2-1 2-1 2l-5 5c-1 1-3 1-3-1v-3h-3s-2 0-2-2v-2c0-2 2-2 2-2h3v-3c0-2 2-2 3-1z"/>
	<path fill="#E6E7E8" d="m25 9.45c-.0041.0016-6.17 2.38-6.17 5.23 0 1.14.996 2.42 2.19 3.57.222.874.049 1.87-.313 2.69-.049-.0082-.0996-.0114-.147-.0269-1.15-.382-1.55.677-.566 1.13-.37.394-.776.598-1.13.482-1.21-.404-1.62.808-.403 1.21.52.173 1.3.153 2.13-.0269-.579.796-1.25 1.27-1.73 1.11-1.21-.404-1.62 1.21-.403 1.62 1.21.404 3.36-.253 4.85-1.62.882-.808 1.69-.808 1.69-.808s.807 0 1.69.808c1.49 1.36 3.63 2.02 4.85 1.62 1.21-.403.808-2.02-.403-1.62-.477.159-1.15-.314-1.73-1.11.833.18 1.61.198 2.13.0245 1.21-.403.807-1.62-.405-1.21-.351.118-.754-.0874-1.13-.479.996-.457.586-1.52-.563-1.13-.049.0163-.101.0204-.153.0286-.36-.81-.533-1.8-.314-2.68 1.19-1.14 2.2-2.43 2.2-3.58 0-2.85-6.17-5.23-6.17-5.23zm-1.67 9.96c.656 0 1.18.532 1.18 1.19 0 .66-.531 1.18-1.18 1.18-.653 0-1.19-.531-1.19-1.18 0-.653.532-1.19 1.19-1.19zm3.32 0c.656 0 1.19.532 1.19 1.19 0 .66-.532 1.18-1.19 1.18-.66 0-1.18-.531-1.18-1.18 0-.653.531-1.19 1.18-1.19z"/>
</svg>
