<svg xmlns="http://www.w3.org/2000/svg" viewBox="0 0 36 36">
	<g fill="#31373D">
		<path d="M35 31s0 4-4 4H5c-4 0-4-4-4-4V12c0-4 4-4 4-4h26s4 0 4 4v19z"/>
		<path d="m21.3 10.4c.391.391.391 1.02 0 1.41s-1.02.391-1.41 0l-9.19-9.19c-.391-.391-.391-1.02 0-1.41s1.02-.391 1.41 0l9.19 9.19z"/>
		<path d="m14.7 10.4c-.391.391-.391 1.02 0 1.41s1.02.391 1.41 0l9.19-9.19c.391-.391.391-1.02 0-1.41s-1.02-.391-1.41 0l-9.19 9.19z"/>
	</g>
	<path fill="#55ACEE" d="m18 11c8 0 10 1 11 2s2 3 2 8-1 7-2 8-3 2-11 2-10-1-11-2-2-3-2-8 1-7 2-8 3-2 11-2z"/>
	<circle  fill="#66757F" cx="31.5" cy="31.5" r="1.5"/>
	<circle fill="#66757F" cx="4.5" cy="31.5" r="1.5"/>
	<path fill="#269" d="m18 12c-.0043.0017-6.49 2.5-6.49 5.49 0 1.2 1.05 2.55 2.3 3.75.233.918.0515 1.96-.329 2.82-.0515-.0086-.105-.012-.154-.0283-1.21-.402-1.63.711-.595 1.19-.389.414-.815.629-1.18.506-1.27-.425-1.7.849-.424 1.27.547.182 1.36.161 2.24-.0283-.608.837-1.31 1.34-1.82 1.17-1.27-.425-1.7 1.27-.424 1.7 1.27.425 3.53-.266 5.1-1.7.927-.849 1.78-.849 1.78-.849s.849 0 1.78.849c1.57 1.43 3.82 2.12 5.1 1.7 1.27-.424.849-2.12-.424-1.7-.501.167-1.21-.33-1.82-1.17.875.189 1.69.209 2.24.0257 1.27-.423.848-1.7-.426-1.27-.369.124-.793-.0918-1.18-.504 1.05-.481.616-1.6-.591-1.19-.0515.0172-.106.0214-.161.03-.378-.851-.56-1.9-.33-2.81 1.25-1.2 2.31-2.56 2.31-3.76 0-2.99-6.49-5.49-6.49-5.49zm-1.75 10.5c.689 0 1.24.559 1.24 1.25 0 .693-.558 1.24-1.24 1.24-.686 0-1.25-.558-1.25-1.24s.559-1.25 1.25-1.25zm3.49 0c.689 0 1.25.559 1.25 1.25 0 .693-.559 1.24-1.25 1.24-.693 0-1.24-.558-1.24-1.24s.558-1.25 1.24-1.25z"/>
</svg>
