<svg xmlns="http://www.w3.org/2000/svg" viewBox="0 0 36 36">
	<path fill="#AAB8C2" d="M35 26c0 2.209-1.791 4-4 4H5c-2.209 0-4-1.791-4-4V6.313C1 4.104 6.791 0 9 0h20.625C32.719 0 35 2.312 35 5.375V26z"/>
	<path fill="#F5F8FA" d="m33 30c0 2.21-1.79 4-4 4h-22c-2.21 0-4-1.79-4-4v-24c0-4.12-.021-4 5-4h21c2.21 0 4 1.79 4 4v24z"/>
	<path fill="#FFF" d="m31 31c0 1.66-1.34 3-3 3h-24c-1.66 0-3-1.34-3-3v-24c0-1.66 1.34-3 3-3h24c1.66 0 3 1.34 3 3v24z"/>
	<path fill="#AAB8C2" d="m31 32c0 2.21-1.79 4-4 4h-21c-2.21 0-4-1.79-4-4v-22c0-2.21 1.79-4 4-4h21c2.21 0 4 1.79 4 4v22z"/>
	<path fill="#E1E8ED" d="m6 8c-2.21 0-4 1.79-4 4v20c0 2.21 1.79 4 4 4h19c2.21 0 4-1.79 4-4v-20.3c0-2.21-1.46-3.66-3.66-3.66zm12 3.46s7.62 2.93 7.62 6.45c0 1.41-1.24 3-2.71 4.41-.27 1.08-.0576 2.31.387 3.3.0645-.0101.129-.015.189-.0352 1.42-.473 1.92.836.695 1.4.459.484.957.737 1.39.592 1.5-.504 1.99.994.498 1.49-.645.215-1.6.192-2.63-.0293.715.982 1.55 1.57 2.14 1.37 1.5-.494 1.99 1.5.498 2-1.5.494-4.14-.314-5.98-2-1.09-.997-2.09-.996-2.09-.996s-.998-.0013-2.09.996c-1.84 1.68-4.49 2.49-5.98 2-1.5-.504-.993-2.49.498-2 .594.201 1.42-.387 2.14-1.37-1.03.223-1.99.247-2.63.0332-1.5-.494-.993-1.99.498-1.49.433.144.934-.108 1.39-.594-1.22-.565-.723-1.87.697-1.4.0584.0192.121.0231.182.0332.446-1.01.661-2.24.387-3.31-1.47-1.41-2.7-2.99-2.7-4.4 1e-6-3.51 7.59-6.44 7.61-6.45zm-2.05 12.3c-.814 0-1.47.665-1.47 1.47s.665 1.46 1.47 1.46c.806 0 1.46-.647 1.46-1.46 0-.814-.652-1.47-1.46-1.47zm4.1 0c-.806 0-1.46.665-1.46 1.47s.647 1.46 1.46 1.46c.814 0 1.47-.647 1.47-1.46 0-.814-.662-1.47-1.47-1.47z"/>
	<path fill="#AAB8C2" d="M6 6C4.312 6 4.269 4.078 5 3.25 5.832 2.309 7.125 2 9.438 2H11V0H8.281C4.312 0 1 2.5 1 5.375V32c0 2.209 1.791 4 4 4h2V6H6z"/>
	<path fill="#DD2E44" d="m17 3c-.552 0-1 .448-1 1v23c0 .44.288.829.709.957.419.129.876-.0353 1.12-.402l3.17-4.75 3.17 4.75c.188.282.505.445.832.445.0964-.000184.192-.0142.287-.043.422-.128.711-.517.711-.957v-23c0-.552-.447-1-1-1z"/>
	<path fill="#F5F8FA" d="M15 2h12v2H15z"/>
	<path fill="#BE1931" d="m21 12c-.0024.000975-3.61 1.39-3.61 3.06 0 .669.583 1.42 1.28 2.09.13.511.0287 1.09-.183 1.57-.0287-.0048-.0583-.0066-.086-.0158-.674-.224-.908.396-.331.664-.216.23-.454.35-.659.282-.707-.237-.946.473-.236.707.304.101.76.0898 1.25-.0158-.339.466-.731.745-1.01.65-.707-.237-.946.707-.236.946.707.237 1.96-.148 2.84-.946.516-.473.989-.473.989-.473s.473 0 .989.473c.874.798 2.13 1.18 2.84.946.707-.236.473-1.18-.236-.946-.279.0932-.674-.184-1.01-.65.487.105.941.116 1.25.0143.707-.236.472-.946-.237-.707-.205.0688-.442-.0511-.659-.28.583-.268.343-.889-.329-.664-.0287.0096-.0592.012-.0898.0167-.211-.474-.312-1.06-.184-1.57.698-.669 1.29-1.42 1.29-2.09 0-1.67-3.61-3.06-3.61-3.06zm-.975 5.83c.384 0 .693.312.693.698s-.311.693-.693.693-.698-.311-.698-.693.312-.698.698-.698zm1.94 0c.384 0 .698.312.698.698s-.312.693-.698.693-.693-.311-.693-.693.311-.698.693-.698z"/>
</svg>
