<svg xmlns="http://www.w3.org/2000/svg" viewBox="0 0 36 36">
	<path fill="#EA596E" d="M31 11C31 5 18 0 18 0v25s13-8 13-14z"/>
	<path fill="#EA596E" d="m5 11c0-6 13-11 13-11v25c.001 0-13-8-13-14z"/>
	<path fill="#F4ABBA" d="m27 11c0 3.83-9 12-9 12s-9-8.17-9-12c0-5 9-11 9-11s9 6 9 11z"/>
	<path fill="#BE1931" d="m13 15.9c2.55 4.25-1.81 9.1-4.36 8.24-2.55-.851-3.4 1.7-.851 2.55s8.05-.396 11.1-3.4c.851-.851 1.7-.851 1.7-.851l-7.55-6.54z"/>
	<path fill="#BE1931" d="m23 15.9c-2.55 4.25 1.81 9.1 4.36 8.24 2.55-.851 3.4 1.7.851 2.55s-8.05-.396-11.1-3.4c-.851-.851-1.7-.851-1.7-.851l7.55-6.54z"/>
	<path fill="#EA596E" d="m9 17c2.55 4.25-1.37 11.4-3.92 10.5s-3.4 1.7-.851 2.55 8.05-.396 11.1-3.4c.851-.851 1.7-.851 1.7-.851l-7.99-8.81zm18 0c-2.55 4.25 1.37 11.4 3.92 10.5 2.55-.851 3.4 1.7.851 2.55-2.55.851-8.05-.396-11.1-3.4-.851-.852-1.7-.852-1.7-.852l7.99-8.81z"/>
	<path fill="#F4ABBA" d="m30.9 32.4c-2.32.774-6.92-5.35-5.92-11.4 2-5-4-7.48-4-9.98 0-6.11-2.03-9.74-3.03-9.74s-2.97 3.63-2.97 9.74c0 2.5-6 4.98-4 9.98 1 6-3.6 12.1-5.92 11.4-2.55-.851-3.4 2.55-.851 3.4 2.55.851 7.07-.533 10.2-3.4 1.86-1.7 3.56-1.7 3.56-1.7s1.7 0 3.56 1.7c3.14 2.87 7.66 4.25 10.2 3.4 2.55-.85 1.7-4.25-.85-3.4z"/>
	<path fill="#292F33" d="m18 26.6c-1.31 0-2.18-.153-3.26-.363-.247-.0469-.725 0-.725.725 0 1.45 1.67 3.26 3.99 3.26s3.99-1.81 3.99-3.26c0-.725-.479-.773-.725-.725-1.08.209-1.95.363-3.26.363"/>
	<path fill="#DD2E44" d="m17.3 18.6c-.477-1.35-1.96-2.06-3.31-1.58-.82.289-1.4.95-1.63 1.72-.662-.461-1.53-.611-2.35-.322-1.35.477-2.06 1.96-1.58 3.31.0678.191.158.368.262.532 1.08 1.99 4.22 3.39 6.11 3.41 1.46-1.2 3.03-4.26 2.62-6.49-.0211-.193-.0628-.388-.129-.579z"/>
	<path fill="#DD2E44" d="m18.7 18.6c.477-1.35 1.96-2.06 3.31-1.58.82.289 1.4.951 1.63 1.72.662-.461 1.53-.611 2.35-.322 1.35.477 2.06 1.96 1.58 3.31-.0683.191-.158.368-.263.532-1.08 1.99-4.22 3.39-6.11 3.41-1.46-1.2-3.02-4.26-2.62-6.49.0206-.193.0622-.388.129-.579z"/>
</svg>
