<svg xmlns="http://www.w3.org/2000/svg" viewBox="0 0 36 36">
	<path fill="#EA596E" d="M31 11C31 5 18 0 18 0v25s13-8 13-14z"/>
	<path fill="#EA596E" d="m5 11c0-6 13-11 13-11v25c.001 0-13-8-13-14z"/>
	<path fill="#F4ABBA" d="m27 11c0 3.83-9 12-9 12s-9-8.17-9-12c0-5 9-11 9-11s9 6 9 11z"/>
	<path fill="#BE1931" d="m13 15.9c2.55 4.25-1.81 9.1-4.36 8.24-2.55-.851-3.4 1.7-.851 2.55s8.05-.396 11.1-3.4c.851-.851 1.7-.851 1.7-.851l-7.55-6.54z"/>
	<path fill="#BE1931" d="m23 15.9c-2.55 4.25 1.81 9.1 4.36 8.24 2.55-.851 3.4 1.7.851 2.55s-8.05-.396-11.1-3.4c-.851-.851-1.7-.851-1.7-.851l7.55-6.54z"/>
	<path fill="#EA596E" d="m9 17c2.55 4.25-1.37 11.4-3.92 10.5s-3.4 1.7-.851 2.55 8.05-.396 11.1-3.4c.851-.851 1.7-.851 1.7-.851l-7.99-8.81zm18 0c-2.55 4.25 1.37 11.4 3.92 10.5 2.55-.851 3.4 1.7.851 2.55-2.55.851-8.05-.396-11.1-3.4-.851-.852-1.7-.852-1.7-.852l7.99-8.81z"/>
	<path fill="#F4ABBA" d="m30.9 32.4c-2.32.774-6.92-5.35-5.92-11.4 2-5-4-7.48-4-9.98 0-6.11-2.03-9.74-3.03-9.74s-2.97 3.63-2.97 9.74c0 2.5-6 4.98-4 9.98 1 6-3.6 12.1-5.92 11.4-2.55-.851-3.4 2.55-.851 3.4 2.55.851 7.07-.533 10.2-3.4 1.86-1.7 3.56-1.7 3.56-1.7s1.7 0 3.56 1.7c3.14 2.87 7.66 4.25 10.2 3.4 2.55-.85 1.7-4.25-.85-3.4z"/>
	<path fill="#EA596E" d="m11.7 20.7c-.116 0-.233-.0361-.333-.111-.246-.184-.295-.532-.111-.778 1.86-2.47 4.87-1.9 5-1.88.301.06.496.353.436.654-.06.3-.352.495-.652.436-.103-.0194-2.46-.449-3.89 1.45-.109.146-.276.222-.445.222z"/>
	<path fill="#EA596E" d="m24.3 20.7c-.169 0-.336-.0767-.445-.222-1.44-1.92-3.87-1.46-3.89-1.46-.304.06-.593-.135-.654-.436-.06-.301.135-.593.436-.654.128-.0261 3.14-.596 5 1.88.184.246.134.594-.111.778-.0994.0756-.216.112-.332.112z"/>
	<g fill="#292F33">
		<path d="m23.9 23.1c-.0972-.0789-.237-.0817-.339-.0078-.0067.005-.701.501-2.06.501-1.36 0-2.05-.496-2.06-.5-.102-.0761-.242-.0739-.339.005-.0989.0789-.132.214-.0811.33.0333.075.833 1.83 2.48 1.83 1.64 0 2.44-1.76 2.48-1.83.0511-.115.0178-.249-.0806-.328z"/>
		<path d="m16.6 23.1c-.0067.005-.7.501-2.06.501-1.36 0-2.05-.496-2.06-.5-.102-.0761-.241-.0739-.339.005-.0989.0789-.132.214-.0811.33.0333.075.833 1.83 2.48 1.83 1.64 0 2.44-1.76 2.48-1.83.0511-.115.0178-.249-.0806-.328-.0978-.0794-.238-.0817-.339-.0078z"/>
		<path d="m20.9 27.2c-.104-.0617-.24-.0478-.332.0333-.0056.0044-.563.479-2.59.479-2.02 0-2.58-.474-2.58-.474-.0883-.0889-.224-.106-.333-.0456-.108.0617-.163.188-.132.309.0056.0244.636 2.43 3.05 2.43 2.41 0 3.04-2.41 3.05-2.43.0294-.118-.0244-.239-.128-.302z"/>
	</g>
</svg>
