<svg xmlns="http://www.w3.org/2000/svg" viewBox="0 0 36 36">
	<path fill="#EA596E" d="M31 11C31 5 18 0 18 0v25s13-8 13-14z"/>
	<path fill="#EA596E" d="M5 11C5 5 18 0 18 0v25c.001 0-13-8-13-14z"/>
	<path fill="#F4ABBA" d="m27 11c0 3.83-9 12-9 12s-9-8.17-9-12c0-5 9-11 9-11s9 6 9 11z"/>
	<path fill="#BE1931" d="m13 15.9c2.55 4.25-1.81 9.1-4.36 8.24-2.55-.851-3.4 1.7-.851 2.55s8.05-.396 11.1-3.4c.851-.851 1.7-.851 1.7-.851l-7.55-6.54z"/>
	<path fill="#BE1931" d="m23 15.9c-2.55 4.25 1.81 9.1 4.36 8.24 2.55-.851 3.4 1.7.851 2.55s-8.05-.396-11.1-3.4c-.851-.851-1.7-.851-1.7-.851l7.55-6.54z"/>
	<path fill="#EA596E" d="m9 17c2.55 4.25-1.37 11.4-3.92 10.5s-3.4 1.7-.851 2.55 8.05-.396 11.1-3.4c.851-.851 1.7-.851 1.7-.851l-7.99-8.81zm18 0c-2.55 4.25 1.37 11.4 3.92 10.5 2.55-.851 3.4 1.7.851 2.55-2.55.851-8.05-.396-11.1-3.4-.851-.852-1.7-.852-1.7-.852l7.99-8.81z"/>
	<path fill="#F4ABBA" d="m30.9 32.4c-2.32.774-6.92-5.35-5.92-11.4 2-5-4-7.48-4-9.98 0-6.11-2.03-9.74-3.03-9.74s-2.97 3.63-2.97 9.74c0 2.5-6 4.98-4 9.98 1 6-3.6 12.1-5.92 11.4-2.55-.851-3.4 2.55-.851 3.4 2.55.851 7.07-.533 10.2-3.4 1.86-1.7 3.56-1.7 3.56-1.7s1.7 0 3.56 1.7c3.14 2.87 7.66 4.25 10.2 3.4 2.55-.85 1.7-4.25-.85-3.4z"/>
	<g fill="#292F33">
		<path d="m18.2 27.1c-1.18 0-1.96-.137-2.92-.325-.22-.042-.649 0-.649.649 0 1.3 1.49 2.92 3.57 2.92s3.57-1.62 3.57-2.92c0-.649-.429-.692-.649-.649-.965.188-1.75.325-2.92.325z"/>
		<path d="m24 24.2c-.0333-.075-.833-1.83-2.48-1.83-1.64 0-2.44 1.76-2.48 1.83-.0511.115-.0178.249.0806.328.0972.0789.237.0817.339.0078.0067-.005.701-.501 2.06-.501 1.35 0 2.04.489 2.06.501.0489.0367.108.055.166.055.0611 0 .123-.0206.173-.0606.0983-.0789.132-.214.0806-.33z"/>
		<path d="m17 24.2c-.0333-.075-.833-1.83-2.48-1.83-1.64 0-2.44 1.76-2.48 1.83-.0511.115-.0178.249.08.328s.237.0817.339.0078c.0072-.005.701-.501 2.06-.501 1.35 0 2.04.489 2.06.501.0489.0367.108.055.166.055.0611 0 .123-.0206.173-.0606.0989-.0789.132-.214.0806-.33z"/>
	</g>
	<path fill="#FFF" d="m15.3 27.4s.974.325 2.92.325c1.95 0 2.92-.325 2.92-.325s-.649 1.3-2.92 1.3-2.92-1.3-2.92-1.3z"/>
	<path fill="#5DADEC" d="m31.3 16.2c0 2.76-2.24 5-5 5s-5-2.24-5-5 4-10 5-10 5 7.24 5 10z"/>
</svg>
