<svg xmlns="http://www.w3.org/2000/svg" viewBox="0 0 36 36">
	<path fill="#744EAA" d="m31 11c0-6-13-11-13-11v25s13-8 13-14"/>
	<path fill="#744EAA" d="m5 11c0-6 13-11 13-11v25c.001 0-13-8-13-14"/>
	<path fill="#AA8DD8" d="m27 11c0 3.83-9 12-9 12s-9-8.17-9-12c0-5 9-11 9-11s9 6 9 11"/>
	<path fill="#553986" d="m13 15.9c2.55 4.25-1.81 9.1-4.36 8.24-2.55-.851-3.4 1.7-.851 2.55s8.05-.396 11.1-3.4c.851-.851 1.7-.851 1.7-.851l-7.55-6.54-.039.001"/>
	<path fill="#553986" d="m23 15.9c-2.55 4.25 1.81 9.1 4.36 8.24 2.55-.851 3.4 1.7.851 2.55s-8.05-.396-11.1-3.4c-.851-.851-1.7-.851-1.7-.851l7.55-6.54.039.001"/>
	<path fill="#744EAA" d="m9 17c2.55 4.25-1.37 11.4-3.92 10.5s-3.4 1.7-.851 2.55 8.05-.396 11.1-3.4c.851-.851 1.7-.851 1.7-.851s-7.99-8.81-7.99-8.81l-.039.011m18 0c-2.55 4.25 1.37 11.4 3.92 10.5 2.55-.851 3.4 1.7.851 2.55-2.55.851-8.05-.396-11.1-3.4-.851-.852-1.7-.852-1.7-.852s7.99-8.81 7.99-8.81l.039.012"/>
	<path fill="#AA8DD8" d="m30.9 32.4c-2.32.774-6.92-5.35-5.92-11.4 2-5-4-7.48-4-9.98 0-6.11-2.03-9.74-3.03-9.74s-2.97 3.63-2.97 9.74c0 2.5-6 4.98-4 9.98 1 6-3.6 12.1-5.92 11.4-2.55-.851-3.4 2.55-.851 3.4 2.55.851 7.07-.533 10.2-3.4 1.86-1.7 3.56-1.7 3.56-1.7s1.7 0 3.56 1.7c3.14 2.87 7.66 4.25 10.2 3.4 2.55-.85 1.7-4.25-.85-3.4h.021"/>
	<path fill="#AA8DD8" d="m12 5.72c-1.94 0-4.24-1.86-4.95-2.57-.43-.43-1.08-.559-1.64-.326-.563.232-.929.781-.929 1.39 0 2.6 1.26 7.52 6.02 7.52.57 0 1.09-.322 1.35-.832l1.5-3.01c.233-.466.208-1.02-.0662-1.46-.274-.443-.758-.713-1.28-.713 0 0-.0048.001-.0048.001m18.6-2.89c-.564-.234-1.21-.105-1.64.327-.667.666-3.01 2.57-4.95 2.57-.521 0-1.01.27-1.28.714-.274.443-.299.998-.0662 1.46l1.5 3.01c.255.509.776.831 1.35.831 4.76 0 6.02-4.92 6.02-7.52 0-.609-.366-1.16-.928-1.39l-.0058-.002"/>
	<g fill="#292F33">
		<path d="m23.2 26.6c-.0996-.0901-.248-.0957-.355-.0162-.0218.0162-2.19 1.62-4.87 1.62-2.67 0-4.85-1.61-4.87-1.62-.107-.0795-.256-.0728-.355.0162-.0991.0895-.121.237-.0526.351.0722.12 1.8 2.93 5.28 2.93s5.21-2.81 5.28-2.93c.0688-.115.047-.262-.0526-.351h-.0048"/>
		<path d="m24.4 19.8c-.0137.00083-.0274.0021-.041.0039-1.92.187-4.01.602-5.86 2.34-.582.549.242 1.42.824.873 1.56-1.47 3.27-1.67 5.17-1.86.799-.0511.711-1.41-.0879-1.36l-.0051.0031"/>
		<path d="m11.5 19.7c.0137.00083.0274.0021.041.0039 1.92.187 4.01.602 5.86 2.34.582.549-.242 1.42-.824.873-1.56-1.47-3.27-1.67-5.17-1.86-.799-.0511-.711-1.41.0879-1.36l.0051.0031"/>
		<circle cx="21.5" cy="23.5" r="2.5"/>
		<circle cx="14.4" cy="23.5" r="2.5"/>
	</g>
</svg>
