<svg xmlns="http://www.w3.org/2000/svg" viewBox="0 0 36 36">
	<path fill="#EA596E" d="M31 11C31 5 18 0 18 0v25s13-8 13-14z"/>
	<path fill="#EA596E" d="m5 11c0-6 13-11 13-11v25c.001 0-13-8-13-14z"/>
	<path fill="#BE1931" d="m13 15.9c2.55 4.25-1.81 9.1-4.36 8.24-2.55-.851-3.4 1.7-.851 2.55s8.05-.396 11.1-3.4c.851-.851 1.7-.851 1.7-.851l-7.55-6.54z"/>
	<path fill="#BE1931" d="m23 15.9c-2.55 4.25 1.81 9.1 4.36 8.24 2.55-.851 3.4 1.7.851 2.55s-8.05-.396-11.1-3.4c-.851-.851-1.7-.851-1.7-.851l7.55-6.54z"/>
	<path fill="#EA596E" d="m9 17c2.55 4.25-1.37 11.4-3.92 10.5s-3.4 1.7-.851 2.55 8.05-.396 11.1-3.4c.851-.851 1.7-.851 1.7-.851l-7.99-8.81zm18 0c-2.55 4.25 1.37 11.4 3.92 10.5 2.55-.851 3.4 1.7.851 2.55-2.55.851-8.05-.396-11.1-3.4-.851-.852-1.7-.852-1.7-.852l7.99-8.81z"/>
	<path fill="#F4ABBA" d="m30.9 32.4c-2.32.774-6.92-5.35-5.92-11.4 2-5-4-7.48-4-9.98 0-6.11-2.03-9.74-3.03-9.74s-2.97 3.63-2.97 9.74c0 2.5-6 4.98-4 9.98 1 6-3.6 12.1-5.92 11.4-2.55-.851-3.4 2.55-.851 3.4 2.55.851 7.07-.533 10.2-3.4 1.86-1.7 3.56-1.7 3.56-1.7s1.7 0 3.56 1.7c3.14 2.87 7.66 4.25 10.2 3.4 2.55-.85 1.7-4.25-.85-3.4z"/>
	<path fill="#BE1931" d="m30.9 10.1c-.0765 1.88-6.09 2.7-12.9 2.7-6.81 0-12.8-.822-12.9-2.7-.0571.283-.0957.567-.0957.855 0 1.38.703 2.86 1.76 4.32 3.11.773 7.05 1.2 11.2 1.2 4.2 0 8.14-.421 11.2-1.2 1.05-1.46 1.75-2.94 1.75-4.32 0-.29-.0398-.576-.0977-.861z"/>
	<path fill="#F4ABBA" d="m27 11c0 3.83-9 12-9 12s-9-8.17-9-12c0-5 9-11 9-11s9 6 9 11z"/>
	<path fill="#EA596E" d="m9.25 12.2c.4 1.15 1.26 2.5 2.29 3.85-.0161.0254-.0291.0525-.0449.0781 2.03.237 4.23.365 6.51.365s4.47-.129 6.51-.365c-.0158-.0256-.0288-.0527-.0449-.0781 1.03-1.35 1.89-2.7 2.29-3.85-2.34.414-5.45.613-8.75.613s-6.41-.199-8.75-.613z"/>
	<path fill="#5DADEC" d="m23.8 4.71c-1.21-.094-2.47-.159-3.77-.19-.661-.016-1.33-.026-2-.026-.672 0-1.34.01-1.99.025-1.3.031-2.56.096-3.78.19-6.89.536-12.1 2.11-12.1 4.94 0 3.59 8.26 5.77 17.8 5.77s17.8-2.18 17.8-5.77c0-2.84-5.17-4.4-12.1-4.94zm-5.78 7.04c-6.86 0-12.9-.833-12.9-2.74 0-.536.494-1.02 1.34-1.45 1.15-.581 2.98-1.04 5.19-1.35 1.91-.262 4.1-.41 6.38-.41 2.29 0 4.48.148 6.4.413 2.24.31 4.09.783 5.23 1.38.807.418 1.28.894 1.28 1.42 0 1.9-6.05 2.74-12.9 2.74z"/>
	<path fill="#EA596E" d="m18 0c-.0089.0034-10.9 4.2-12.7 9.52.994 1.54 6.52 2.23 12.7 2.23 6.21 0 11.7-.686 12.7-2.23-1.82-5.32-12.7-9.52-12.7-9.52z"/>
	<path fill="#F4ABBA" d="m18 0s-9 6-9 11c0 .0318.0124.0692.0137.102 2.37.441 5.57.648 8.99.648s6.62-.207 8.99-.648c.00123-.0324.0137-.0698.0137-.102 0-5-9-11-9-11z"/>
	<path fill="#292F33" d="m22.7 26.6c-.0892-.0807-.222-.0857-.318-.0145-.0195.0145-1.97 1.45-4.36 1.45-2.39 0-4.34-1.44-4.36-1.45-.0957-.0712-.229-.0652-.318.0145-.0887.0802-.109.212-.0471.315.0646.108 1.61 2.63 4.72 2.63s4.66-2.52 4.72-2.63c.0616-.103.0421-.234-.0471-.315zm.698-2.37c-.262 0-.506-.166-.592-.427-.127-.374-.637-1.45-1.28-1.45-.664 0-1.18 1.14-1.28 1.45-.109.327-.46.505-.791.395-.327-.109-.504-.462-.395-.791.0788-.235.815-2.3 2.47-2.3 1.65 0 2.39 2.07 2.47 2.3.109.327-.0675.682-.395.791-.0656.0212-.132.0319-.197.0319zm-7-1.9e-5c-.262 0-.506-.166-.593-.427-.127-.374-.636-1.45-1.28-1.45-.664 0-1.18 1.14-1.28 1.45-.109.327-.461.505-.791.395-.327-.109-.504-.462-.395-.791.0781-.235.814-2.3 2.47-2.3s2.39 2.07 2.47 2.3c.109.327-.0675.682-.395.791-.0662.0212-.133.0319-.198.0319z"/>
</svg>
