<svg xmlns="http://www.w3.org/2000/svg" viewBox="0 0 36 36">
	<path fill="#EA596E" d="m31 11c0-6-13-11-13-11v25s13-8 13-14"/>
	<path fill="#EA596E" d="m5 11c0-6 13-11 13-11v25c.001 0-13-8-13-14"/>
	<path fill="#F4ABBA" d="m27 11c0 3.83-9 12-9 12s-9-8.17-9-12c0-5 9-11 9-11s9 6 9 11"/>
	<path fill="#BE1931" d="m13 15.9c2.55 4.25-1.81 9.1-4.36 8.24-2.55-.851-3.4 1.7-.851 2.55s8.05-.396 11.1-3.4c.851-.851 1.7-.851 1.7-.851l-7.55-6.54"/>
	<path fill="#BE1931" d="m23 15.9c-2.55 4.25 1.81 9.1 4.36 8.24 2.55-.851 3.4 1.7.851 2.55s-8.05-.396-11.1-3.4c-.851-.851-1.7-.851-1.7-.851l7.55-6.54"/>
	<path fill="#EA596E" d="m9 17c2.55 4.25-1.37 11.4-3.92 10.5s-3.4 1.7-.851 2.55 8.05-.396 11.1-3.4c.851-.851 1.7-.851 1.7-.851s-7.99-8.81-7.99-8.81m18 0c-2.55 4.25 1.37 11.4 3.92 10.5 2.55-.851 3.4 1.7.851 2.55-2.55.851-8.05-.396-11.1-3.4-.851-.852-1.7-.852-1.7-.852s7.99-8.81 7.99-8.81"/>
	<path fill="#F4ABBA" d="m30.9 32.4c-2.32.774-6.92-5.35-5.92-11.4 2-5-4-7.48-4-9.98 0-6.11-2.03-9.74-3.03-9.74s-2.97 3.63-2.97 9.74c0 2.5-6 4.98-4 9.98 1 6-3.6 12.1-5.92 11.4-2.55-.851-3.4 2.55-.851 3.4 2.55.851 7.07-.533 10.2-3.4 1.86-1.7 3.56-1.7 3.56-1.7s1.7 0 3.56 1.7c3.14 2.87 7.66 4.25 10.2 3.4 2.55-.85 1.7-4.25-.85-3.4"/>
	<g fill="#292F33">
		<circle cx="14.5" cy="23.5" r="2.5"/>
		<path d="m24 23.7c-.0333-.075-.833-1.83-2.48-1.83-1.64 0-2.44 1.76-2.48 1.83-.0511.115-.0178.249.0806.328.0972.0789.237.0817.339.0078.0067-.005.701-.501 2.06-.501 1.35 0 2.04.489 2.06.501.0489.0367.108.055.166.055.0611 0 .123-.0206.173-.0606.0983-.0789.132-.214.0806-.33l-9e-6-2.7e-5"/>
		<path d="m21.2 27.1c-.114-.0666-.262-.0527-.362.0363-.0061.0048-.613.523-2.82.523-2.21 0-2.81-.517-2.81-.517-.0963-.0969-.245-.115-.363-.0497-.118.0672-.177.205-.144.337.0061.0266.693 2.65 3.32 2.65s3.32-2.63 3.32-2.65c.0321-.129-.0266-.261-.14-.329v5e-6"/>
	</g>
	<path fill="#EA596E" d="m11.6 20c-.116 0-.233-.0361-.333-.111-.246-.184-.295-.532-.111-.778 1.81-2.42 4.23-2.44 4.33-2.44.307 0 .556.249.556.556 0 .306-.247.554-.553.556-.0867.0011-1.98.0478-3.45 2-.108.146-.276.222-.444.222"/>
	<path fill="#EA596E" d="m24.4 21.8c-.169 0-.336-.0767-.445-.222-1.44-1.92-3.87-1.46-3.89-1.46-.304.06-.593-.135-.654-.436-.06-.301.135-.593.436-.654.128-.0261 3.14-.596 5 1.88.184.246.134.594-.111.778-.0994.0761-.216.112-.332.112"/>
</svg>
