<svg xmlns="http://www.w3.org/2000/svg" viewBox="0 0 36 36">
	<path fill="#EA596E" d="M31 11C31 5 18 0 18 0v25s13-8 13-14z"/>
	<path fill="#EA596E" d="m5 11c0-6 13-11 13-11v25c.001 0-13-8-13-14z"/>
	<path fill="#F4ABBA" d="m27 11c0 3.83-9 12-9 12s-9-8.17-9-12c0-5 9-11 9-11s9 6 9 11z"/>
	<path fill="#BE1931" d="m13 15.9c2.55 4.25-1.81 9.1-4.36 8.24-2.55-.851-3.4 1.7-.851 2.55s8.05-.396 11.1-3.4c.851-.851 1.7-.851 1.7-.851l-7.55-6.54z"/>
	<path fill="#BE1931" d="m23 15.9c-2.55 4.25 1.81 9.1 4.36 8.24 2.55-.851 3.4 1.7.851 2.55s-8.05-.396-11.1-3.4c-.851-.851-1.7-.851-1.7-.851l7.55-6.54z"/>
	<path fill="#EA596E" d="m9 17c2.55 4.25-1.37 11.4-3.92 10.5s-3.4 1.7-.851 2.55 8.05-.396 11.1-3.4c.851-.851 1.7-.851 1.7-.851l-7.99-8.81zm18 0c-2.55 4.25 1.37 11.4 3.92 10.5 2.55-.851 3.4 1.7.851 2.55-2.55.851-8.05-.396-11.1-3.4-.851-.852-1.7-.852-1.7-.852l7.99-8.81z"/>
	<path fill="#F4ABBA" d="m30.9 32.4c-2.32.774-6.92-5.35-5.92-11.4 2-5-4-7.48-4-9.98 0-6.11-2.03-9.74-3.03-9.74s-2.97 3.63-2.97 9.74c0 2.5-6 4.98-4 9.98 1 6-3.6 12.1-5.92 11.4-2.55-.851-3.4 2.55-.851 3.4 2.55.851 7.07-.533 10.2-3.4 1.86-1.7 3.56-1.7 3.56-1.7s1.7 0 3.56 1.7c3.14 2.87 7.66 4.25 10.2 3.4 2.55-.85 1.7-4.25-.85-3.4z"/>
	<g fill="#292F33">
		<path d="m23.4 24.3c-.262 0-.506-.166-.592-.427-.127-.374-.637-1.45-1.28-1.45-.664 0-1.18 1.14-1.28 1.45-.109.327-.46.505-.791.395-.327-.109-.504-.463-.395-.791.0788-.235.815-2.3 2.47-2.3 1.65 0 2.39 2.07 2.47 2.3.109.327-.0675.682-.395.791-.0656.0212-.132.0319-.197.0319z"/>
		<path d="m16.4 24.3c-.262 0-.506-.166-.593-.427-.127-.374-.636-1.45-1.28-1.45-.664 0-1.18 1.14-1.28 1.45-.109.327-.461.505-.791.395-.327-.109-.504-.463-.395-.791.0781-.235.815-2.3 2.47-2.3s2.39 2.07 2.47 2.3c.109.327-.0675.682-.395.791-.0662.0212-.133.0319-.198.0319z"/>
		<path d="m18 26.3c-1.43 0-2.38-.167-3.56-.395-.269-.0518-.791 0-.791.791 0 1.58 1.82 3.56 4.35 3.56 2.53 0 4.35-1.98 4.35-3.56 0-.791-.522-.843-.791-.791-1.18.229-2.13.395-3.56.395z"/>
	</g>
	<path fill="#FFF" d="m14.4 26.6s1.19.395 3.56.395 3.56-.395 3.56-.395-.531 2.67-3.56 2.67-3.56-2.67-3.56-2.67z"/>
	<path fill="#292F33" d="m18 28.5c-1.42 0-2.48-.147-3.14-.295l-.326-.74c.325.123 1.54.355 3.47.355 1.96 0 3.18-.244 3.51-.371l-.277.728c-.646.15-1.75.322-3.23.322z"/>
</svg>
