<svg xmlns="http://www.w3.org/2000/svg" viewBox="0 0 36 36">
  <path fill="#EA596E" d="M31 11C31 5 18 0 18 0v25s13-8 13-14z"/>
  <path fill="#EA596E" d="M5 11C5 5 18 0 18 0v25c.001 0-13-8-13-14z"/>
  <path fill="#F4ABBA" d="M27 11c0 3.83-9 12-9 12s-9-8.17-9-12c0-5 9-11 9-11s9 6 9 11z"/>
  <path fill="#BE1931" d="M13 15.9c2.55 4.25-1.81 9.1-4.36 8.24-2.55-.851-3.4 1.7-.851 2.55s8.05-.396 11.1-3.4c.851-.851 1.7-.851 1.7-.851l-7.55-6.54z"/>
  <path fill="#BE1931" d="M23 15.9c-2.55 4.25 1.81 9.1 4.36 8.24 2.55-.851 3.4 1.7.851 2.55s-8.05-.396-11.1-3.4c-.851-.851-1.7-.851-1.7-.851l7.55-6.54z"/>
  <path fill="#EA596E" d="M9 17c2.55 4.25-1.37 11.4-3.92 10.5s-3.4 1.7-.851 2.55 8.05-.396 11.1-3.4c.851-.851 1.7-.851 1.7-.851l-7.99-8.81zm18 0c-2.55 4.25 1.37 11.4 3.92 10.5 2.55-.851 3.4 1.7.851 2.55-2.55.851-8.05-.396-11.1-3.4-.851-.852-1.7-.852-1.7-.852l7.99-8.81z"/>
  <path fill="#F4ABBA" d="M30.9 32.4c-2.32.774-6.92-5.35-5.92-11.4 2-5-4-7.48-4-9.98 0-6.11-2.03-9.74-3.03-9.74s-2.97 3.63-2.97 9.74c0 2.5-6 4.98-4 9.98 1 6-3.6 12.1-5.92 11.4-2.55-.851-3.4 2.55-.851 3.4 2.55.851 7.07-.533 10.2-3.4 1.86-1.7 3.56-1.7 3.56-1.7s1.7 0 3.56 1.7c3.14 2.87 7.66 4.25 10.2 3.4 2.55-.85 1.7-4.25-.85-3.4z"/>
  <path fill="#292F33" d="M23.1 26.9c.143-.331.204-.556.206-.565a.443.443 0 0 0-.859-.215c-.033.131-.862 3.21-4.44 3.21-3.58 0-4.4-3.07-4.44-3.21a.443.443 0 0 0-.859.215c.01.039 1.02 3.88 5.3 3.88.73 0 1.36-.118 1.91-.303 1.92-.645 2.82-2.17 3.18-3.01zM16.67 24a.538.538 0 0 0 .481-.78c-.028-.057-.711-1.38-2.64-1.38-1.93 0-2.61 1.32-2.64 1.38a.538.538 0 1 0 .961.489c.024-.044.448-.788 1.68-.788 1.25 0 1.67.773 1.67.78a.54.54 0 0 0 .483.298zm7 0a.538.538 0 0 0 .481-.78c-.028-.057-.711-1.38-2.64-1.38-1.93 0-2.61 1.32-2.64 1.38a.538.538 0 1 0 .961.489c.024-.044.448-.788 1.68-.788 1.25 0 1.67.773 1.67.78a.54.54 0 0 0 .483.298z"/>
  <path fill="#DD2E44" d="M23.1 26.9c-.36.834-1.27 2.36-3.18 3.01a5.76 5.76 0 0 1-1.11.238l-.025.018.838.898h.002a6.95 6.95 0 0 1 1.88 1.24c1.09.134 2.53-.15 3.14-.76-.773-1.42-1.28-2.62-1.55-4.64z"/>
  <path fill="#EA596E" d="M24.7 28.6l-1.62-1.68c-.36.834-1.26 2.36-3.18 3.01l1.63 1.63c.765.765 2.21.885 3.1 0s.842-2.2.077-2.96z"/>
</svg>
