<svg xmlns="http://www.w3.org/2000/svg" viewBox="0 0 36 36">
	<path fill="#EA596E" d="M31 11C31 5 18 0 18 0v25s13-8 13-14z"/>
	<path fill="#EA596E" d="m5 11c0-6 13-11 13-11v25c.001 0-13-8-13-14z"/>
	<path fill="#F4ABBA" d="m27 11c0 3.83-9 12-9 12s-9-8.17-9-12c0-5 9-11 9-11s9 6 9 11z"/>
	<path fill="#BE1931" d="m13 15.9c2.55 4.25-1.81 9.1-4.36 8.24-2.55-.851-3.4 1.7-.851 2.55s8.05-.396 11.1-3.4c.851-.851 1.7-.851 1.7-.851l-7.55-6.54z"/>
	<path fill="#BE1931" d="m23 15.9c-2.55 4.25 1.81 9.1 4.36 8.24 2.55-.851 3.4 1.7.851 2.55s-8.05-.396-11.1-3.4c-.851-.851-1.7-.851-1.7-.851l7.55-6.54z"/>
	<path fill="#EA596E" d="m9 17c2.55 4.25-1.37 11.4-3.92 10.5s-3.4 1.7-.851 2.55 8.05-.396 11.1-3.4c.851-.851 1.7-.851 1.7-.851l-7.99-8.81zm18 0c-2.55 4.25 1.37 11.4 3.92 10.5 2.55-.851 3.4 1.7.851 2.55-2.55.851-8.05-.396-11.1-3.4-.851-.852-1.7-.852-1.7-.852l7.99-8.81z"/>
	<path fill="#F4ABBA" d="m30.9 32.4c-2.32.774-6.92-5.35-5.92-11.4 2-5-4-7.48-4-9.98 0-6.11-2.03-9.74-3.03-9.74s-2.97 3.63-2.97 9.74c0 2.5-6 4.98-4 9.98 1 6-3.6 12.1-5.92 11.4-2.55-.851-3.4 2.55-.851 3.4 2.55.851 7.07-.533 10.2-3.4 1.86-1.7 3.56-1.7 3.56-1.7s1.7 0 3.56 1.7c3.14 2.87 7.66 4.25 10.2 3.4 2.55-.85 1.7-4.25-.85-3.4z"/>
	<path fill="#EA596E" d="m24 21.4c-.169 0-.336-.0767-.445-.222-1.35-1.8-3.62-.47-3.71-.413-.264.158-.605.0722-.762-.191-.158-.263-.0728-.604.191-.762 1.11-.666 3.62-1.38 5.17.698.184.246.134.594-.111.778-.0994.0756-.216.112-.332.112z"/>
	<g fill="#292F33">
		<path d="m24 23.2c0-.307-.248-.556-.556-.556h-3.89c-.307 0-.556.249-.556.556s.248.556.556.556h2.83c.115.323.42.556.782.556.46 0 .833-.373.833-.833 0-.0611-.0078-.121-.02-.178.0067-.0333.02-.0644.02-.0994z"/>
		<path d="m22 29.4c-.0242-.0962-.628-2.35-4.02-2.35-3.4 0-4 2.26-4.02 2.35-.0296.117.0231.238.127.298.105.0597.236.0419.323-.0414.0102-.0102 1.05-.998 3.57-.998s3.56.988 3.57.997c.0516.0511.12.078.189.078.0452 0 .0909-.0113.132-.0344.105-.0602.158-.182.129-.299z"/>
		<path d="m17 23.2c0-.307-.248-.556-.556-.556h-3.89c-.307 0-.556.249-.556.556s.248.556.556.556h2.83c.115.323.42.556.782.556.46 0 .833-.373.833-.833 0-.0611-.0078-.121-.02-.178.0067-.0333.02-.0644.02-.0994z"/>
	</g>
	<path fill="#EA596E" d="m12 21.4c.169 0 .336-.0767.445-.222 1.35-1.8 3.62-.47 3.71-.413.264.158.605.0722.762-.191.158-.263.0728-.604-.191-.762-1.11-.666-3.62-1.38-5.17.698-.184.246-.134.594.111.778.0994.0756.216.112.332.112z"/>
</svg>
