<svg xmlns="http://www.w3.org/2000/svg" viewBox="0 0 36 36">
  <path fill="#EA596E" d="M31 11C31 5 18 0 18 0v25s13-8 13-14z"/>
  <path fill="#EA596E" d="M5 11C5 5 18 0 18 0v25c.001 0-13-8-13-14z"/>
  <path fill="#F4ABBA" d="M27 11c0 3.83-9 12-9 12s-9-8.17-9-12c0-5 9-11 9-11s9 6 9 11z"/>
  <path fill="#BE1931" d="M13 15.9c2.55 4.25-1.81 9.1-4.36 8.24-2.55-.851-3.4 1.7-.851 2.55s8.05-.396 11.1-3.4c.851-.851 1.7-.851 1.7-.851l-7.55-6.54z"/>
  <path fill="#BE1931" d="M23 15.9c-2.55 4.25 1.81 9.1 4.36 8.24 2.55-.851 3.4 1.7.851 2.55s-8.05-.396-11.1-3.4c-.851-.851-1.7-.851-1.7-.851l7.55-6.54z"/>
  <path fill="#EA596E" d="M9 17c2.55 4.25-1.37 11.4-3.92 10.5s-3.4 1.7-.851 2.55 8.05-.396 11.1-3.4c.851-.851 1.7-.851 1.7-.851l-7.99-8.81zm18 0c-2.55 4.25 1.37 11.4 3.92 10.5 2.55-.851 3.4 1.7.851 2.55-2.55.851-8.05-.396-11.1-3.4-.851-.852-1.7-.852-1.7-.852l7.99-8.81z"/>
  <path fill="#F4ABBA" d="M30.9 32.4c-2.32.774-6.92-5.35-5.92-11.4 2-5-4-7.48-4-9.98 0-6.11-2.03-9.74-3.03-9.74s-2.97 3.63-2.97 9.74c0 2.5-6 4.98-4 9.98 1 6-3.6 12.1-5.92 11.4-2.55-.851-3.4 2.55-.851 3.4 2.55.851 7.07-.533 10.2-3.4 1.86-1.7 3.56-1.7 3.56-1.7s1.7 0 3.56 1.7c3.14 2.87 7.66 4.25 10.2 3.4 2.55-.85 1.7-4.25-.85-3.4z"/>
  <circle cx="14.5" cy="23.5" r="2.5" fill="#292F33"/>
  <circle cx="21.5" cy="23.5" r="2.5" fill="#292F33"/>
  <path fill="#292F33" d="M19.1 28.1c.625-.193 1.23-.541 1.23-1.17 0-1.23-2.3-1.39-2.56-1.4-.128-.013-.238.09-.247.219a.234.234 0 0 0 .217.248c.016 0 1.65.14 1.65.936s-1.64.935-1.65.936c-.006 0-.01.004-.017.005a.21.21 0 0 0-.07.019l-.007.004a.22.22 0 0 0-.059.047l-.016.022a.238.238 0 0 0-.029.048.22.22 0 0 0-.01.043c-.003.01-.008.02-.01.032 0 .005.003.01.003.014 0 .005-.003.01-.002.015 0 .01.006.02.008.031.003.015.006.029.011.042a.257.257 0 0 0 .023.04c.008.01.015.023.024.033.01.01.024.02.037.029.01.007.021.015.034.022.015.007.031.01.048.012.01.003.02.009.032.01.016 0 1.65.138 1.65.935s-1.64.935-1.65.936a.234.234 0 0 0 .017.467h.013c.262-.015 2.56-.178 2.56-1.4 0-.63-.606-.977-1.23-1.17z"/>
</svg>
