<svg xmlns="http://www.w3.org/2000/svg" viewBox="0 0 36 36">
  <path fill="#EA596E" d="M31 11C31 5 18 0 18 0v25s13-8 13-14"/>
  <path fill="#EA596E" d="M5 11C5 5 18 0 18 0v25c.001 0-13-8-13-14"/>
  <path fill="#F4ABBA" d="M27 11c0 3.83-9 12-9 12s-9-8.17-9-12c0-5 9-11 9-11s9 6 9 11"/>
  <path fill="#BE1931" d="M13 15.9c2.55 4.25-1.81 9.1-4.36 8.24-2.55-.851-3.4 1.7-.851 2.55s8.05-.396 11.1-3.4c.851-.851 1.7-.851 1.7-.851l-7.55-6.54L13 15.9"/>
  <path fill="#BE1931" d="M23 15.9c-2.55 4.25 1.81 9.1 4.36 8.24 2.55-.851 3.4 1.7.851 2.55s-8.05-.396-11.1-3.4c-.851-.851-1.7-.851-1.7-.851l7.55-6.54.039.001"/>
  <path fill="#EA596E" d="M9 17c2.55 4.25-1.37 11.4-3.92 10.5s-3.4 1.7-.851 2.55 8.05-.396 11.1-3.4c.851-.851 1.7-.851 1.7-.851l-7.99-8.81L9 17m18 0c-2.55 4.25 1.37 11.4 3.92 10.5 2.55-.851 3.4 1.7.851 2.55-2.55.851-8.05-.396-11.1-3.4-.851-.852-1.7-.852-1.7-.852l7.99-8.81L27 17"/>
  <path fill="#F4ABBA" d="M30.9 32.4c-2.32.774-6.92-5.35-5.92-11.4 2-5-4-7.48-4-9.98 0-6.11-2.03-9.74-3.03-9.74s-2.97 3.63-2.97 9.74c0 2.5-6 4.98-4 9.98 1 6-3.6 12.1-5.92 11.4-2.55-.851-3.4 2.55-.851 3.4 2.55.851 7.07-.533 10.2-3.4 1.86-1.7 3.56-1.7 3.56-1.7s1.7 0 3.56 1.7c3.14 2.87 7.66 4.25 10.2 3.4 2.55-.85 1.7-4.25-.85-3.4h.021"/>
  <path fill="#292F33" d="M21.6 24.6c-.651 0-1.41-.139-2.24-.554a.556.556 0 1 1 .498-.994c1.89.945 3.28.07 3.34.033a.557.557 0 0 1 .768.16c.168.256.1.598-.154.767-.053.035-.906.589-2.2.589L21.6 24.6M14.6 24.6c-.651 0-1.41-.139-2.24-.554a.556.556 0 1 1 .498-.994c1.89.945 3.28.07 3.34.033a.557.557 0 0 1 .768.16c.168.256.1.598-.154.767-.053.035-.906.589-2.2.589L14.6 24.6"/>
  <path fill="#EA596E" d="M16.9 22.3a.556.556 0 0 1-.547-.463c-.02-.117-.531-2.87-3.34-2.87a.556.556 0 0 1 0-1.112c3.01 0 4.22 2.48 4.44 3.8a.555.555 0 0 1-.549.647L16.9 22.3M19.1 22.3a.556.556 0 0 1-.549-.647c.218-1.31 1.43-3.8 4.44-3.8a.556.556 0 0 1 0 1.112c-2.83 0-3.32 2.75-3.34 2.87a.556.556 0 0 1-.547.464l-.004.001"/>
  <path fill="#F5F8FA" d="M16.5 26.8a.574.574 0 0 0-.713.224l-2.88 4.6a.576.576 0 0 0 .488.88h1.73a.574.574 0 0 0 .558-.436l1.15-4.6a.574.574 0 0 0-.333-.668m6.59 4.83l-2.88-4.6a.573.573 0 0 0-1.045.444l1.15 4.6a.573.573 0 0 0 .557.436h1.73a.574.574 0 0 0 .488-.88"/>
  <path fill="#E1E8ED" d="M26 32.7c.002-.035.01-.067.01-.102 0-.952-.773-1.73-1.73-1.73-.59 0-1.11.298-1.42.751a2.3 2.3 0 1 0-.878 4.425c.785 0 1.48-.395 1.89-.996.276.587.867.996 1.56.996a1.73 1.73 0 0 0 1.73-1.73c0-.755-.487-1.39-1.16-1.62L26 32.7m-12.1-1.25c-.312 0-.607.063-.878.175a1.722 1.722 0 0 0-1.42-.751c-.952 0-1.73.773-1.73 1.73 0 .035.008.068.01.102a1.718 1.718 0 0 0-1.16 1.62c0 .953.772 1.73 1.73 1.73.691 0 1.28-.409 1.56-.996.416.6 1.11.996 1.89.996a2.3 2.3 0 0 0 0-4.6l-.002-.006"/>
</svg>
