<svg xmlns="http://www.w3.org/2000/svg" viewBox="0 0 36 36">
	<path fill="#EA596E" d="M31 11C31 5 18 0 18 0v25s13-8 13-14z"/>
	<path fill="#EA596E" d="m5 11c0-6 13-11 13-11v25c.001 0-13-8-13-14z"/>
	<path fill="#F4ABBA" d="m27 11c0 3.83-9 12-9 12s-9-8.17-9-12c0-5 9-11 9-11s9 6 9 11z"/>
	<path fill="#BE1931" d="m13 15.9c2.55 4.25-1.81 9.1-4.36 8.24-2.55-.851-3.4 1.7-.851 2.55s8.05-.396 11.1-3.4c.851-.851 1.7-.851 1.7-.851l-7.55-6.54z"/>
	<path fill="#BE1931" d="m23 15.9c-2.55 4.25 1.81 9.1 4.36 8.24 2.55-.851 3.4 1.7.851 2.55s-8.05-.396-11.1-3.4c-.851-.851-1.7-.851-1.7-.851l7.55-6.54z"/>
	<path fill="#EA596E" d="m9 17c2.55 4.25-1.37 11.4-3.92 10.5s-3.4 1.7-.851 2.55 8.05-.396 11.1-3.4c.851-.851 1.7-.851 1.7-.851l-7.99-8.81zm18 0c-2.55 4.25 1.37 11.4 3.92 10.5 2.55-.851 3.4 1.7.851 2.55-2.55.851-8.05-.396-11.1-3.4-.851-.852-1.7-.852-1.7-.852l7.99-8.81z"/>
	<ellipse fill="#5DADEC" cx="18" cy="34" rx="18" ry="2"/>
	<path fill="#F4ABBA" d="m30.9 32.4c-2.32.774-6.92-5.35-5.92-11.4 2-5-4-7.48-4-9.98 0-6.11-2.03-9.74-3.03-9.74s-2.97 3.63-2.97 9.74c0 2.5-6 4.98-4 9.98 1 6-3.6 12.1-5.92 11.4-2.55-.851-3.4 2.55-.851 3.4 2.55.851 7.07-.533 10.2-3.4 1.86-1.7 3.56-1.7 3.56-1.7s1.7 0 3.56 1.7c3.14 2.87 7.66 4.25 10.2 3.4 2.55-.85 1.7-4.25-.85-3.4z"/>
	<path fill="#5DADEC" d="m19.5 23.2h4v11.8l-4-.0285z"/>
	<path fill="#5DADEC" d="m12.5 35 4-.0285v-11.7h-4z"/>
	<path fill="#292F33" d="m16.9 23.9c-.09 0-.182-.0204-.268-.063-2.11-1.05-4.24-.0108-4.26 0-.297.149-.657.0276-.805-.268-.148-.296-.0282-.657.268-.805.109-.054 2.7-1.32 5.34 0 .296.148.416.509.268.805-.106.21-.317.331-.538.331z"/>
	<path fill="#292F33" d="m23.9 23.9c-.09 0-.182-.0204-.268-.063-2.11-1.05-4.24-.0108-4.26 0-.296.149-.656.0282-.805-.268-.148-.296-.0282-.657.268-.805.109-.054 2.7-1.32 5.34 0 .296.148.416.509.268.805-.106.21-.317.331-.538.331z"/>
	<path fill="#EA596E" d="m11.8 22.1c-.221 0-.429-.132-.516-.349-.114-.285.0244-.608.309-.722 2.56-1.02 3.62-2.56 3.63-2.57.171-.253.516-.321.77-.15.254.171.323.514.153.768-.0494.0739-1.24 1.82-4.14 2.99-.0678.0267-.138.0394-.207.0394zm12.3.00096c-.0689 0-.139-.0128-.206-.04-2.9-1.16-4.1-2.91-4.14-2.99-.171-.256-.102-.6.154-.77.255-.17.598-.102.769.152.0106.015 1.07 1.55 3.63 2.57.285.114.424.437.31.722-.0872.218-.296.35-.516.35z"/>
</svg>
