<svg xmlns="http://www.w3.org/2000/svg" viewBox="0 0 36 36">
  <path fill="#EA596E" d="M31 11C31 5 18 0 18 0v25s13-8 13-14"/>
  <path fill="#EA596E" d="M5 11C5 5 18 0 18 0v25c.001 0-13-8-13-14"/>
  <path fill="#F4ABBA" d="M27 11c0 3.83-9 12-9 12s-9-8.17-9-12c0-5 9-11 9-11s9 6 9 11"/>
  <path fill="#BE1931" d="M13 15.9c2.55 4.25-1.81 9.1-4.36 8.24-2.55-.851-3.4 1.7-.851 2.55s8.05-.396 11.1-3.4c.851-.851 1.7-.851 1.7-.851l-7.55-6.54L13 15.9"/>
  <path fill="#BE1931" d="M23 15.9c-2.55 4.25 1.81 9.1 4.36 8.24 2.55-.851 3.4 1.7.851 2.55s-8.05-.396-11.1-3.4c-.851-.851-1.7-.851-1.7-.851l7.55-6.54.039.001"/>
  <path fill="#EA596E" d="M9 17c2.55 4.25-1.37 11.4-3.92 10.5s-3.4 1.7-.851 2.55 8.05-.396 11.1-3.4c.851-.851 1.7-.851 1.7-.851l-7.99-8.81L9 17m18 0c-2.55 4.25 1.37 11.4 3.92 10.5 2.55-.851 3.4 1.7.851 2.55-2.55.851-8.05-.396-11.1-3.4-.851-.852-1.7-.852-1.7-.852l7.99-8.81L27 17"/>
  <path fill="#F4ABBA" d="M30.9 32.4c-2.32.774-6.92-5.35-5.92-11.4 2-5-4-7.48-4-9.98 0-6.11-2.03-9.74-3.03-9.74s-2.97 3.63-2.97 9.74c0 2.5-6 4.98-4 9.98 1 6-3.6 12.1-5.92 11.4-2.55-.851-3.4 2.55-.851 3.4 2.55.851 7.07-.533 10.2-3.4 1.86-1.7 3.56-1.7 3.56-1.7s1.7 0 3.56 1.7c3.14 2.87 7.66 4.25 10.2 3.4 2.55-.85 1.7-4.25-.85-3.4h.021"/>
  <g fill="#292F33">
    <circle cx="14.5" cy="23.5" r="2.5"/>
    <circle cx="21.5" cy="23.5" r="2.5"/>
    <path d="M21.4 29.8c-.007-.027-.703-2.69-3.37-2.69s-3.36 2.66-3.37 2.69a.304.304 0 0 0 .142.334.313.313 0 0 0 .366-.037c.007-.005.623-.53 2.86-.53 2.2 0 2.83.51 2.86.53a.306.306 0 0 0 .509-.297h.003"/>
  </g>
  <g fill="#5DADEC">
    <path d="M18 0v19.6c2.07.004 4.11.358 6.02 1.04 3.4-2.81 6.98-6.48 6.98-9.63 0-6-13-11-13-11V0"/>
    <path d="M18 0S5 5 5 11c0 3.15 3.58 6.83 6.99 9.64a18.185 18.185 0 0 1 6.012-1.04L18 0"/>
    <path d="M9 17c.822 1.37.967 3.04.707 4.64.797-.427 1.64-.792 2.51-1.09L8.997 17m18 0l-3.22 3.55c.873.298 1.71.663 2.51 1.09-.26-1.6-.116-3.27.707-4.64h.003"/>
  </g>
  <path fill="#BDDDF4" d="M18 1.28c-1 0-2.97 3.63-2.97 9.74 0 2.5-6 4.98-4 9.98.001.006 0 .013.002.02 2.18-.93 4.57-1.42 7-1.42 2.43.006 4.83.495 7 1.43l.004-.03c2-5-4-7.48-4-9.98 0-6.11-2.03-9.74-3.03-9.74H18"/>
  <path fill="#BDDDF4" d="M18 0S9 6 9 11c0 2.31 3.25 6.17 5.85 8.89 1.04-.187 2.09-.284 3.15-.289 1.06.001 2.12.095 3.16.279C23.75 17.16 27 13.31 27 11c0-5-9-11-9-11"/>
  <g fill="#EA596E">
    <path d="M16.1 16.5c-3.47 0-4.87 2.72-4.93 2.84a.624.624 0 0 0 1.115.561c.047-.091 1.14-2.15 3.81-2.15a.623.623 0 1 0 0-1.248l.005-.003M19.9 16.6c3.47 0 4.87 2.72 4.93 2.84a.624.624 0 0 1-1.115.561c-.047-.091-1.14-2.15-3.81-2.15a.623.623 0 1 1 0-1.248L19.9 16.6"/>
  </g>
</svg>
