<svg xmlns="http://www.w3.org/2000/svg" viewBox="0 0 36 36">
  <path fill="#EA596E" d="M31 11C31 4.99 18 0 18 0v25s13-8.01 13-14"/>
  <path fill="#EA596E" d="M5.02 11c0-6.01 13-11 13-11v25s-13-8.01-13-14"/>
  <path fill="#F4ABBA" d="M27 11c0 3.82-8.99 12-8.99 12s-8.99-8.16-8.99-12c0-4.99 8.99-11 8.99-11S27 6.01 27 11"/>
  <path fill="#BE1931" d="M13 15.9c2.55 4.27-1.81 9.11-4.35 8.24-2.55-.85-3.4 1.7-.85 2.55 2.55.85 8.05-.397 11.1-3.4.85-.85 1.7-.85 1.7-.85l-7.56-6.54"/>
  <path fill="#BE1931" d="M23 15.9c-2.55 4.27 1.81 9.11 4.35 8.24 2.55-.85 3.4 1.7.85 2.55-2.55.85-8.05-.397-11.1-3.4-.85-.85-1.7-.85-1.7-.85l7.56-6.54"/>
  <path fill="#EA596E" d="M9.02 17c2.55 4.27-1.37 11.4-3.93 10.5-2.55-.85-3.4 1.7-.85 2.55 2.55.85 8.05-.397 11.1-3.4.85-.85 1.7-.85 1.7-.85L9.07 17M27 17c-2.55 4.27 1.37 11.4 3.93 10.5 2.55-.85 3.4 1.7.85 2.55-2.55.85-8.05-.397-11.1-3.4-.85-.85-1.7-.85-1.7-.85l7.97-8.8"/>
  <path fill="#F4ABBA" d="M30.9 32.3c-2.32.775-6.91-5.37-5.93-11.3 2-4.99-4.01-7.48-4.01-9.98 0-6.12-2.03-9.75-3.03-9.75s-2.97 3.63-2.97 9.75c0 2.5-6.01 4.99-4.01 9.98 1 6.01-3.6 12.1-5.93 11.3-2.55-.85-3.4 2.55-.85 3.4 2.55.85 7.07-.533 10.2-3.4 1.86-1.7 3.56-1.7 3.56-1.7s1.7 0 3.56 1.7c3.14 2.87 7.67 4.27 10.2 3.4 2.55-.85 1.7-4.27-.85-3.4"/>
  <path fill="#292F33" d="M16.3 23.5c0 1.38-.797 2.49-1.78 2.49s-1.78-1.11-1.78-2.49c0-1.38.797-2.49 1.78-2.49s1.78 1.11 1.78 2.49M23.3 23.5c0 1.38-.797 2.49-1.78 2.49s-1.78-1.11-1.78-2.49c0-1.38.797-2.49 1.78-2.49s1.78 1.11 1.78 2.49"/>
  <path fill="#5DADEC" d="M17.3 32.5c0 1.69-1.36 3.05-3.05 3.05-1.69 0-3.05-1.36-3.05-3.05 0-1.69 2.44-6.08 3.05-6.08.608 0 3.05 4.42 3.05 6.08"/>
  <path fill="#EA596E" d="M12 21.4a.524.524 0 0 1-.419-.838c1.71-2.28 4.01-2.3 4.08-2.3a.526.526 0 0 1 .004 1.05c-.081.001-1.87.045-3.25 1.89a.523.523 0 0 1-.419.209M24.1 21.4a.52.52 0 0 1-.419-.209c-1.38-1.84-3.17-1.89-3.25-1.89a.523.523 0 0 1 .003-1.046c.096 0 2.38.027 4.08 2.3a.523.523 0 0 1-.419.838"/>
</svg>
