<svg xmlns="http://www.w3.org/2000/svg" viewBox="0 0 36 36">
	<path fill="#EA596E" d="M31 11C31 5 18 0 18 0v25s13-8 13-14z"/>
	<path fill="#EA596E" d="m5 11c0-6 13-11 13-11v25c.001 0-13-8-13-14z"/>
	<path fill="#F4ABBA" d="m27 11c0 3.83-9 12-9 12s-9-8.17-9-12c0-5 9-11 9-11s9 6 9 11z"/>
	<path fill="#BE1931" d="m13 15.9c2.55 4.25-1.81 9.1-4.36 8.24-2.55-.851-3.4 1.7-.851 2.55s8.05-.396 11.1-3.4c.851-.851 1.7-.851 1.7-.851l-7.55-6.54z"/>
	<path fill="#BE1931" d="m23 15.9c-2.55 4.25 1.81 9.1 4.36 8.24 2.55-.851 3.4 1.7.851 2.55s-8.05-.396-11.1-3.4c-.851-.851-1.7-.851-1.7-.851l7.55-6.54z"/>
	<path fill="#EA596E" d="m9 17c2.55 4.25-1.37 11.4-3.92 10.5s-3.4 1.7-.851 2.55 8.05-.396 11.1-3.4c.851-.851 1.7-.851 1.7-.851l-7.99-8.81zm18 0c-2.55 4.25 1.37 11.4 3.92 10.5 2.55-.851 3.4 1.7.851 2.55-2.55.851-8.05-.396-11.1-3.4-.851-.852-1.7-.852-1.7-.852l7.99-8.81z"/>
	<path fill="#F4ABBA" d="m30.9 32.4c-2.32.774-6.92-5.35-5.92-11.4 2-5-4-7.48-4-9.98 0-6.11-2.03-9.74-3.03-9.74s-2.97 3.63-2.97 9.74c0 2.5-6 4.98-4 9.98 1 6-3.6 12.1-5.92 11.4-2.55-.851-3.4 2.55-.851 3.4 2.55.851 7.07-.533 10.2-3.4 1.86-1.7 3.56-1.7 3.56-1.7s1.7 0 3.56 1.7c3.14 2.87 7.66 4.25 10.2 3.4 2.55-.85 1.7-4.25-.85-3.4z"/>
	<g fill="#292F33">
		<path d="m23.9 23.2c-.0972-.0939-.248-.103-.357-.0233-.0067.005-.701.501-2.06.501-1.36 0-2.05-.496-2.06-.5-.107-.0811-.259-.0733-.358.0206-.0983.0928-.115.243-.04.356.0339.05.842 1.23 2.45 1.23 1.61 0 2.42-1.18 2.45-1.23.075-.112.0578-.261-.0394-.354z"/>
		<path d="m16.6 23.2c-.0072.005-.701.501-2.06.501-1.36 0-2.05-.496-2.06-.5-.108-.0811-.259-.0733-.358.0206-.0983.0928-.116.243-.04.356.0339.05.842 1.23 2.45 1.23 1.61 0 2.42-1.18 2.45-1.24.0744-.112.0578-.261-.0394-.354-.0978-.0939-.249-.102-.357-.0228z"/>
		<path d="m21 29.9c-.0061-.0244-.636-2.43-3.05-2.43s-3.04 2.41-3.05 2.43c-.0294.118.0244.239.129.302.104.0622.241.0478.331-.0333.005-.0044.563-.479 2.59-.479 1.99 0 2.57.461 2.59.479.0528.05.122.0761.191.0761.0467 0 .0939-.0117.137-.0356.109-.0622.163-.188.133-.309z"/>
	</g>
	<path fill="#EA596E" d="m25.5 22.8c-.169 0-.336-.0767-.445-.222-1.47-1.96-3.37-2-3.45-2-.306-.0033-.552-.253-.551-.558.0017-.306.248-.553.554-.553.102 0 2.52.0278 4.33 2.45.184.246.134.594-.111.778-.1.075-.217.111-.333.111z"/>
	<path fill="#EA596E" d="m10.5 22.8c-.116 0-.233-.0361-.333-.111-.246-.184-.295-.532-.111-.778 1.81-2.42 4.23-2.44 4.33-2.44.307 0 .556.249.556.556 0 .306-.247.554-.553.556-.0867.0011-1.98.0478-3.45 2-.108.146-.276.222-.444.222z"/>
	<path fill="#5DADEC" d="m19.3 26c4.79 0 10 3.09 10 6.94 0 3.09-2.31 3.09-2.31 3.09-6.17 0-.771-6.94-7.71-10z"/>
</svg>
