<svg xmlns="http://www.w3.org/2000/svg" viewBox="0 0 36 36">
  <path fill="#EA596E" d="M31 11C31 5 18 0 18 0v25s13-8 13-14"/>
  <path fill="#EA596E" d="M5 11C5 5 18 0 18 0v25c.001 0-13-8-13-14"/>
  <path fill="#F4ABBA" d="M27 11c0 3.83-9 12-9 12s-9-8.17-9-12c0-5 9-11 9-11s9 6 9 11"/>
  <path fill="#BE1931" d="M13 15.9c2.55 4.25-1.81 9.1-4.36 8.24-2.55-.851-3.4 1.7-.851 2.55s8.05-.396 11.1-3.4c.851-.851 1.7-.851 1.7-.851l-7.55-6.54"/>
  <path fill="#BE1931" d="M23 15.9c-2.55 4.25 1.81 9.1 4.36 8.24 2.55-.851 3.4 1.7.851 2.55s-8.05-.396-11.1-3.4c-.851-.851-1.7-.851-1.7-.851l7.55-6.54"/>
  <path fill="#EA596E" d="M9 17c2.55 4.25-1.37 11.4-3.92 10.5s-3.4 1.7-.851 2.55 8.05-.396 11.1-3.4c.851-.851 1.7-.851 1.7-.851l-7.99-8.81m18 0c-2.55 4.25 1.37 11.4 3.92 10.5 2.55-.851 3.4 1.7.851 2.55-2.55.851-8.05-.396-11.1-3.4-.851-.852-1.7-.852-1.7-.852l7.99-8.81"/>
  <path fill="#F4ABBA" d="M30.9 32.4c-2.32.774-6.92-5.35-5.92-11.4 2-5-4-7.48-4-9.98 0-6.11-2.03-9.74-3.03-9.74s-2.97 3.63-2.97 9.74c0 2.5-6 4.98-4 9.98 1 6-3.6 12.1-5.92 11.4-2.55-.851-3.4 2.55-.851 3.4 2.55.851 7.07-.533 10.2-3.4 1.86-1.7 3.56-1.7 3.56-1.7s1.7 0 3.56 1.7c3.14 2.87 7.66 4.25 10.2 3.4 2.55-.85 1.7-4.25-.85-3.4"/>
  <path fill="#EA596E" d="M16.1 16.5c-3.47 0-4.87 2.72-4.93 2.84a.624.624 0 0 0 1.115.561c.047-.091 1.14-2.15 3.81-2.15a.623.623 0 1 0 0-1.248l.005-.003m3.8.1c3.47 0 4.87 2.72 4.93 2.84a.624.624 0 0 1-1.115.561c-.047-.091-1.14-2.15-3.81-2.15a.623.623 0 1 1 0-1.248L19.9 16.6"/>
  <g fill="#292F33">
    <circle cx="14.5" cy="23.5" r="2.5"/>
    <circle cx="21.5" cy="23.5" r="2.5"/>
    <ellipse cx="18" cy="27.8" rx="2.02" ry="2.42"/>
  </g>
  <path fill="#F5F8FA" d="M18 26.1c-.668 0-1.21.722-1.21 1.61h2.42c0-.891-.541-1.61-1.21-1.61"/>
</svg>
