<svg xmlns="http://www.w3.org/2000/svg" viewBox="0 0 36 36">
	<path fill="#EA596E" d="M31 11C31 5 18 0 18 0v25s13-8 13-14z"/>
	<path fill="#EA596E" d="m5 11c0-6 13-11 13-11v25c.001 0-13-8-13-14z"/>
	<path fill="#F4ABBA" d="m27 11c0 3.83-9 12-9 12s-9-8.17-9-12c0-5 9-11 9-11s9 6 9 11z"/>
	<path fill="#BE1931" d="m13 15.9c2.55 4.25-1.81 9.1-4.36 8.24-2.55-.851-3.4 1.7-.851 2.55s8.05-.396 11.1-3.4c.851-.851 1.7-.851 1.7-.851l-7.55-6.54z"/>
	<path fill="#BE1931" d="m23 15.9c-2.55 4.25 1.81 9.1 4.36 8.24 2.55-.851 3.4 1.7.851 2.55s-8.05-.396-11.1-3.4c-.851-.851-1.7-.851-1.7-.851l7.55-6.54z"/>
	<path fill="#EA596E" d="m9 17c2.55 4.25-1.37 11.4-3.92 10.5s-3.4 1.7-.851 2.55 8.05-.396 11.1-3.4c.851-.851 1.7-.851 1.7-.851l-7.99-8.81zm18 0c-2.55 4.25 1.37 11.4 3.92 10.5 2.55-.851 3.4 1.7.851 2.55-2.55.851-8.05-.396-11.1-3.4-.851-.852-1.7-.852-1.7-.852l7.99-8.81z"/>
	<path fill="#F4ABBA" d="m30.9 32.4c-2.32.774-6.92-5.35-5.92-11.4 2-5-4-7.48-4-9.98 0-6.11-2.03-9.74-3.03-9.74s-2.97 3.63-2.97 9.74c0 2.5-6 4.98-4 9.98 1 6-3.6 12.1-5.92 11.4-2.55-.851-3.4 2.55-.851 3.4 2.55.851 7.07-.533 10.2-3.4 1.86-1.7 3.56-1.7 3.56-1.7s1.7 0 3.56 1.7c3.14 2.87 7.66 4.25 10.2 3.4 2.55-.85 1.7-4.25-.85-3.4z"/>
	<path fill="#292F33" d="m12.1 24.6c-.179 0-.356-.0867-.463-.247-.17-.256-.101-.601.154-.771.0739-.0489 1.83-1.2 4.2-1.2.307 0 .556.249.556.556 0 .307-.249.556-.556.556-2.03 0-3.57 1.01-3.58 1.02-.095.0633-.202.0933-.308.0933z"/>
	<path fill="#292F33" d="m24 24.6c-.105 0-.212-.03-.307-.0928-.0156-.01-1.57-1.02-3.58-1.02-.307 0-.556-.249-.556-.556 0-.307.248-.556.556-.556 2.36 0 4.12 1.16 4.2 1.2.256.17.324.515.154.771-.107.161-.283.247-.463.247z"/>
	<path fill="#F5F8FA" d="m10.9 25.1c-.0592.314-.117.578-.195.818l3.3 1.56v2.02l-3.76-2.2c-.131.297-.212.508-.328.764l4.09 2.32v.605c0 .486.392.879.639.883l6.7.000518c.247-.0032.64-.396.64-.883v-.605l4.09-2.32c-.116-.256-.197-.466-.328-.764l-3.76 2.2v-2.02l3.3-1.56c-.0788-.24-.134-.505-.193-.818l-3.11 1.49v-.484c0-.487-.393-.882-.64-.885-.0028-2.6e-5-6.7.0015-6.7.0015-.243.0047-.634.398-.634.884v.484z"/>
</svg>
