<svg xmlns="http://www.w3.org/2000/svg" viewBox="0 0 36 36">
	<path fill="#EA596E" d="M31 11C31 5 18 0 18 0v25s13-8 13-14z"/>
	<path fill="#EA596E" d="m5 11c0-6 13-11 13-11v25c.001 0-13-8-13-14z"/>
	<path fill="#F4ABBA" d="m27 11c0 3.83-9 12-9 12s-9-8.17-9-12c0-5 9-11 9-11s9 6 9 11z"/>
	<path fill="#BE1931" d="m13 15.9c2.55 4.25-1.81 9.1-4.36 8.24-2.55-.851-3.4 1.7-.851 2.55s8.05-.396 11.1-3.4c.851-.851 1.7-.851 1.7-.851l-7.55-6.54z"/>
	<path fill="#BE1931" d="m23 15.9c-2.55 4.25 1.81 9.1 4.36 8.24 2.55-.851 3.4 1.7.851 2.55s-8.05-.396-11.1-3.4c-.851-.851-1.7-.851-1.7-.851l7.55-6.54z"/>
	<path fill="#EA596E" d="m9 17c2.55 4.25-1.37 11.4-3.92 10.5s-3.4 1.7-.851 2.55 8.05-.396 11.1-3.4c.851-.851 1.7-.851 1.7-.851l-7.99-8.81zm18 0c-2.55 4.25 1.37 11.4 3.92 10.5 2.55-.851 3.4 1.7.851 2.55-2.55.851-8.05-.396-11.1-3.4-.851-.852-1.7-.852-1.7-.852l7.99-8.81z"/>
	<path fill="#F4ABBA" d="m30.9 32.4c-2.32.774-6.92-5.35-5.92-11.4 2-5-4-7.48-4-9.98 0-6.11-2.03-9.74-3.03-9.74s-2.97 3.63-2.97 9.74c0 2.5-6 4.98-4 9.98 1 6-3.6 12.1-5.92 11.4-2.55-.851-3.4 2.55-.851 3.4 2.55.851 7.07-.533 10.2-3.4 1.86-1.7 3.56-1.7 3.56-1.7s1.7 0 3.56 1.7c3.14 2.87 7.66 4.25 10.2 3.4 2.55-.85 1.7-4.25-.85-3.4z"/>
	<path fill="#EA596E" d="m11.8 20.5c-.116 0-.233-.0361-.333-.111-.246-.184-.295-.532-.111-.778 1.81-2.42 4.23-2.44 4.33-2.44.307 0 .556.249.556.556 0 .306-.247.554-.553.556-.0861.0011-1.98.0478-3.45 2-.109.146-.276.222-.445.222z"/>
	<path fill="#EA596E" d="m24.2 20.5c-.169 0-.336-.0767-.445-.222-1.47-1.96-3.37-2-3.45-2-.306-.0033-.552-.253-.551-.558.0017-.306.248-.553.554-.553.102 0 2.52.0278 4.33 2.45.184.246.134.594-.111.778-.1.075-.217.111-.333.111z"/>
	<path fill="#292F33" d="m22.3 23.5.996-.996c.217-.217.217-.568 0-.786-.217-.217-.568-.217-.786 0l-.996.996-.996-.996c-.217-.217-.568-.217-.786 0-.217.217-.217.568 0 .786l.996.996-.996.996c-.217.217-.217.568 0 .786.108.108.251.163.393.163.142 0 .284-.0544.393-.163l.996-.996.996.996c.108.108.251.163.393.163.142 0 .284-.0544.393-.163.217-.217.217-.568 0-.786z"/>
	<path fill="#292F33" d="m15.3 23.5.996-.996c.217-.217.217-.568 0-.786-.217-.217-.568-.217-.786 0l-.996.996-.996-.996c-.217-.217-.568-.217-.786 0-.217.217-.217.568 0 .786l.996.996-.996.996c-.217.217-.217.568 0 .786.108.108.251.163.393.163.142 0 .284-.0544.393-.163l.996-.996.996.996c.108.108.251.163.393.163.142 0 .284-.0544.393-.163.217-.217.217-.568 0-.786z"/>
</svg>
