<svg xmlns="http://www.w3.org/2000/svg" viewBox="0 0 36 36">
  <path fill="#EA596E" d="M31 11C31 5 18 0 18 0v25s13-8 13-14z"/>
  <path fill="#EA596E" d="M5 11C5 5 18 0 18 0v25c.001 0-13-8-13-14z"/>
  <path fill="#F4ABBA" d="M27 11c0 3.83-9 12-9 12s-9-8.17-9-12c0-5 9-11 9-11s9 6 9 11z"/>
  <path fill="#BE1931" d="M13 15.9c2.55 4.25-1.81 9.1-4.36 8.24-2.55-.851-3.4 1.7-.851 2.55s8.05-.396 11.1-3.4c.851-.851 1.7-.851 1.7-.851l-7.55-6.54z"/>
  <path fill="#BE1931" d="M23 15.9c-2.55 4.25 1.81 9.1 4.36 8.24 2.55-.851 3.4 1.7.851 2.55s-8.05-.396-11.1-3.4c-.851-.851-1.7-.851-1.7-.851l7.55-6.54z"/>
  <path fill="#EA596E" d="M9 17c2.55 4.25-1.37 11.4-3.92 10.5s-3.4 1.7-.851 2.55 8.05-.396 11.1-3.4c.851-.851 1.7-.851 1.7-.851l-7.99-8.81zm18 0c-2.55 4.25 1.37 11.4 3.92 10.5 2.55-.851 3.4 1.7.851 2.55-2.55.851-8.05-.396-11.1-3.4-.851-.852-1.7-.852-1.7-.852l7.99-8.81z"/>
  <path fill="#F4ABBA" d="M30.9 32.4c-2.32.774-6.92-5.35-5.92-11.4 2-5-4-7.48-4-9.98 0-6.11-2.03-9.74-3.03-9.74s-2.97 3.63-2.97 9.74c0 2.5-6 4.98-4 9.98 1 6-3.6 12.1-5.92 11.4-2.55-.851-3.4 2.55-.851 3.4 2.55.851 7.07-.533 10.2-3.4 1.86-1.7 3.56-1.7 3.56-1.7s1.7 0 3.56 1.7c3.14 2.87 7.66 4.25 10.2 3.4 2.55-.85 1.7-4.25-.85-3.4z"/>
  <path fill="#BE1931" d="M19.4.611L19.08.8c.601.442 1.26.961 2.18 1.75h.516l-.199.281c.466.409.931.822 1.4 1.29l.879-1.23c-1.74-1.02-3.34-1.78-4.45-2.28zM26 4.27c-.0595.136-.105.291-.105.486 0 .754.546 1.19 1.22 1.19h.984c-.645-.592-1.36-1.15-2.1-1.67zm3.34 2.98l-2.42 3.4c.0095.117.0371.236.0371.352 0 .688-.298 1.52-.773 2.41.191.114.425.182.686.182h3.38c.395-.808.65-1.61.689-2.37h-1.34l1.13-1.58c-.262-.831-.762-1.63-1.4-2.39z"/>
  <g fill="#EA596E">
    <path d="M17.7 10.4c.003-.028.015-.049.015-.079 0-.483-.351-.761-.785-.761h-2.3l2.74-3.84c.132-.181.181-.29.181-.519 0-.471-.41-.544-.567-.544h-3.43l-.021-.441-.963.569c-.06.037-.324.238-.324.633 0 .483.35.761.785.761h2.02l-2.73 3.84c-.06.097-.157.278-.157.471 0 .399.326.592.712.592h4.05c.165 0 .33-.049.436-.113l.963-.569zM27 10.6l-.916 1.29c-.094.151-.244.432-.244.734 0 .353.172.592.424.742.476-.895.773-1.73.773-2.41 0-.116-.0276-.235-.0371-.352zM19.1.801c-.0658.039-.192.113-.205.121-.07.043-.379.278-.379.738 0 .564.41.889.918.889h1.84c-.917-.787-1.57-1.31-2.18-1.75zm2.49 2.03l-2.99 4.21c-.07.113-.182.325-.182.551 0 .466.38.691.832.691h4.73c.193 0 .385-.0578.51-.133l1.12-.664h-.734c.003-.033.0176-.0578.0176-.0918 0-.564-.411-.891-.918-.891h-2.68l1.7-2.38c-.472-.467-.937-.88-1.4-1.29z"/>
  </g>
  <g fill="#2A6797">
    <path d="M16 5.65h-2.02c-.435 0-.785-.278-.785-.761s.35-.761.785-.761h3.95c.157 0 .567.073.567.544 0 .229-.048.338-.181.519l-2.74 3.84h2.3c.434 0 .785.278.785.761s-.351.761-.785.761h-4.05c-.386 0-.712-.193-.712-.592 0-.193.096-.374.157-.471zM22.9 1.9h-2.36c-.508 0-.917-.324-.917-.889 0-.564.409-.889.917-.889h4.62c.184 0 .663.085.663.635 0 .268-.057.395-.211.607l-3.2 4.49h2.68c.505 0 .915.324.915.889s-.41.889-.917.889h-4.73c-.452 0-.832-.226-.832-.691 0-.226.113-.437.183-.55zM31.8 5.08h-3.15c-.679 0-1.22-.433-1.22-1.19s.546-1.19 1.22-1.19h6.16c.245 0 .885.113.885.848 0 .358-.076.528-.282.811l-4.28 5.99h3.58c.677 0 1.22.433 1.22 1.19s-.548 1.19-1.22 1.19h-6.32c-.603 0-1.11-.302-1.11-.924 0-.302.15-.584.244-.735z"/>
  </g>
  <path fill="#292f33" d="M12 23.5a.3103.3103 0 0 0-.191.0703.3156.3156 0 0 0-.0938.375c.038.0855.95 2.09 2.82 2.09 1.87 0 2.78-2 2.82-2.09a.3136.3136 0 0 0-.0918-.373.3187.3187 0 0 0-.387-.0098c-.0076.0057-.798.572-2.34.572-1.55 0-2.34-.566-2.34-.57a.3187.3187 0 0 0-.195-.0645zm7 0a.3103.3103 0 0 0-.191.0703.3156.3156 0 0 0-.0938.375c.038.0855.95 2.09 2.82 2.09 1.87 0 2.78-2 2.82-2.09a.3136.3136 0 0 0-.0918-.373.3187.3187 0 0 0-.387-.0098c-.0076.0057-.798.572-2.34.572-1.55 0-2.34-.566-2.34-.57a.3187.3187 0 0 0-.195-.0645z"/>
</svg>
