<?xml version="1.0" encoding="UTF-8" standalone="no"?>
<svg
   xmlns:dc="http://purl.org/dc/elements/1.1/"
   xmlns:cc="http://creativecommons.org/ns#"
   xmlns:rdf="http://www.w3.org/1999/02/22-rdf-syntax-ns#"
   xmlns:svg="http://www.w3.org/2000/svg"
   xmlns="http://www.w3.org/2000/svg"
   xmlns:sodipodi="http://sodipodi.sourceforge.net/DTD/sodipodi-0.dtd"
   xmlns:inkscape="http://www.inkscape.org/namespaces/inkscape"
   viewBox="0 0 36 36"
   version="1.1"
   id="svg20"
   sodipodi:docname="1f631.svg"
   inkscape:version="0.92.3 (2405546, 2018-03-11)">
  <metadata
     id="metadata26">
    <rdf:RDF>
      <cc:Work
         rdf:about="">
        <dc:format>image/svg+xml</dc:format>
        <dc:type
           rdf:resource="http://purl.org/dc/dcmitype/StillImage" />
        <dc:title></dc:title>
      </cc:Work>
    </rdf:RDF>
  </metadata>
  <defs
     id="defs24" />
  <sodipodi:namedview
     pagecolor="#ffffff"
     bordercolor="#666666"
     borderopacity="1"
     objecttolerance="10"
     gridtolerance="10"
     guidetolerance="10"
     inkscape:pageopacity="0"
     inkscape:pageshadow="2"
     inkscape:window-width="640"
     inkscape:window-height="480"
     id="namedview22"
     showgrid="false"
     inkscape:zoom="3.2118056"
     inkscape:cx="-20.797657"
     inkscape:cy="-22.624076"
     inkscape:current-layer="svg20" />
  <path
     d="M -9,11 C -9,5 -22,0 -22,0 v 25 c 0,0 13,-8 13,-14 z"
     id="path2"
     inkscape:connector-curvature="0"
     style="fill:#ea596e" />
  <path
     d="m -34.998,11 c 0,-6 13,-11 13,-11 v 25 c 0.001,0 -13,-8 -13,-14 z"
     id="path4"
     inkscape:connector-curvature="0"
     style="fill:#ea596e" />
  <path
     d="m -13,11 c 0,3.833 -9,12 -9,12 0,0 -9,-8.167 -9,-12 0,-5 9,-11 9,-11 0,0 9,6 9,11 z"
     id="path6"
     inkscape:connector-curvature="0"
     style="fill:#f4abba" />
  <path
     d="m -27,15.867 c 2.552,4.254 -1.806,9.096 -4.357,8.245 -2.552,-0.851 -3.403,1.701 -0.851,2.552 2.552,0.851 8.052,-0.396 11.059,-3.402 0.851,-0.851 1.701,-0.851 1.701,-0.851 z"
     id="path8"
     inkscape:connector-curvature="0"
     style="fill:#be1931" />
  <path
     d="m -17,15.867 c -2.552,4.254 1.806,9.096 4.357,8.245 2.553,-0.851 3.403,1.701 0.851,2.552 -2.552,0.851 -8.052,-0.396 -11.059,-3.402 -0.851,-0.851 -1.702,-0.851 -1.702,-0.851 z"
     id="path10"
     inkscape:connector-curvature="0"
     style="fill:#be1931" />
  <path
     d="m -31,17 c 2.552,4.254 -1.369,11.366 -3.921,10.515 -2.552,-0.851 -3.403,1.702 -0.851,2.553 2.552,0.851 8.052,-0.396 11.059,-3.403 0.851,-0.851 1.701,-0.851 1.701,-0.851 z m 17.989,0 c -2.553,4.254 1.368,11.366 3.921,10.515 2.552,-0.851 3.402,1.702 0.851,2.553 -2.553,0.851 -8.052,-0.396 -11.059,-3.403 C -20.149,25.813 -21,25.813 -21,25.813 Z"
     id="path12"
     inkscape:connector-curvature="0"
     style="fill:#ea596e" />
  <path
     d="M -9.079,32.35 C -11.401,33.124 -16,27 -15,21 c 2,-5 -4,-7.482 -4,-9.983 0,-6.108 -2.031,-9.735 -3.031,-9.735 -1,0 -2.969,3.627 -2.969,9.735 0,2.501 -6,4.983 -4,9.983 1,6 -3.599,12.124 -5.921,11.35 -2.552,-0.851 -3.403,2.552 -0.851,3.402 2.552,0.851 7.069,-0.533 10.208,-3.402 1.863,-1.703 3.564,-1.703 3.564,-1.703 0,0 1.701,0 3.563,1.702 3.139,2.869 7.656,4.253 10.208,3.402 2.552,-0.85 1.702,-4.252 -0.85,-3.401 z"
     id="path14"
     inkscape:connector-curvature="0"
     style="fill:#f4abba" />
  <circle
     cx="-25.5"
     cy="23.5"
     r="2.5"
     id="circle16"
     style="fill:#292f33" />
  <circle
     cx="-18.5"
     cy="23.5"
     r="2.5"
     id="circle18"
     style="fill:#292f33" />
  <path
     style="fill:#ffcc4d"
     inkscape:connector-curvature="0"
     d="m 18,-40 c -9.94,0 -18,8.06 -18,18 0,6.051 2.996,11.392 7.574,14.655 C 7.678,-13.783 5.337,-21 1.404,-21 0.94,-21 0.564,-20.934 0.251,-20.817 0.554,-21.574 1.211,-22 2.44,-22 6.71,-22 9.106,-13.494 8.532,-6.712 11.286,-5.003 14.522,-4 18,-4 21.479,-4 24.716,-5.004 27.47,-6.713 26.893,-13.52 29.288,-22 33.561,-22 c 1.233,0 1.892,0.426 2.192,1.183 C 35.439,-20.934 35.062,-21 34.596,-21 c -3.938,0 -6.278,7.199 -6.17,13.655 C 33.005,-10.608 36,-15.949 36,-22 36,-31.94 27.941,-40 18,-40 Z"
     id="path833" />
  <path
     style="fill:#bdddf4"
     inkscape:connector-curvature="0"
     d="m 18,-40 c -9.94,0 -18,8.06 -18,18 0,1.192 0.123,2.356 0.344,3.484 0.234,-0.863 0.6,-1.691 1.058,-2.484 -0.463,0 -0.838,0.066 -1.15,0.183 0.264,-0.659 0.822,-1.048 1.768,-1.142 C 5.012,-26.138 11.037,-29 18,-29 c 6.964,0 12.988,2.861 15.98,7.04 0.95,0.094 1.51,0.482 1.772,1.143 C 35.44,-20.934 35.063,-21 34.599,-21 c 0.458,0.793 0.823,1.621 1.058,2.484 C 35.878,-19.644 36,-20.808 36,-22 36,-31.94 27.941,-40 18,-40 Z"
     id="path835" />
  <path
     style="fill:#f5f8fa"
     inkscape:connector-curvature="0"
     d="m 7.347,-28.09 c -0.946,3.176 0.107,6.293 2.353,6.962 2.246,0.67 4.834,-1.362 5.779,-4.538 0.946,-3.175 -0.106,-6.293 -2.351,-6.962 -2.246,-0.669 -4.834,1.363 -5.781,4.538 z m 21.305,0 c 0.946,3.176 -0.107,6.293 -2.352,6.962 -2.246,0.67 -4.834,-1.362 -5.779,-4.538 -0.946,-3.175 0.107,-6.293 2.351,-6.962 2.245,-0.669 4.833,1.363 5.78,4.538 z"
     id="path837" />
  <path
     style="fill:#664500"
     inkscape:connector-curvature="0"
     d="m 18,-22 c -2.757,0 -5,2.243 -5,5 v 6 c 0,2.757 2.243,5 5,5 2.757,0 5,-2.243 5,-5 v -6 c 0,-2.757 -2.243,-5 -5,-5 z"
     id="path839" />
  <path
     style="fill:#fcab40"
     inkscape:connector-curvature="0"
     d="m 1.404,-21 c -0.464,0 -0.84,0.066 -1.153,0.183 0.072,-0.179 0.167,-0.336 0.281,-0.476 -1.862,2.291 2.317,9.833 0.286,17.293 h 6.46 c 1.19,-6.96 -1.235,-17 -5.874,-17 z m 34.349,0.183 C 35.439,-20.934 35.062,-21 34.596,-21 c -4.641,0 -7.065,10.002 -5.873,17 h 6.46 c -1.906,-7.045 1.656,-14.089 0.57,-16.817 z"
     id="path841" />
  <path
     style="fill:#ea596e"
     inkscape:connector-curvature="0"
     d="m 31.01,10.975762 c 0,-6 -13,-11 -13,-11 v 25 c 0,0 13,-8 13,-14"
     id="path858" />
  <path
     style="fill:#ea596e"
     inkscape:connector-curvature="0"
     d="m 5.01,10.975762 c 0,-6 13,-11 13,-11 v 25 c 10e-4,0 -13,-8 -13,-14"
     id="path860" />
  <path
     style="fill:#f4abba"
     inkscape:connector-curvature="0"
     d="m 27.01,10.975762 c 0,3.83 -9,12 -9,12 0,0 -9,-8.17 -9,-12 0,-5 9,-11 9,-11 0,0 9,6 9,11"
     id="path862" />
  <path
     style="fill:#be1931"
     inkscape:connector-curvature="0"
     d="m 13.01,15.875762 c 2.55,4.25 -1.81,9.1 -4.36,8.24 -2.55,-0.851 -3.4,1.7 -0.851,2.55 2.549,0.85 8.05,-0.396 11.1,-3.4 0.851,-0.851 1.7,-0.851 1.7,-0.851 l -7.55,-6.54 -0.039,10e-4"
     id="path864" />
  <path
     style="fill:#be1931"
     inkscape:connector-curvature="0"
     d="m 23.01,15.875762 c -2.55,4.25 1.81,9.1 4.36,8.24 2.55,-0.851 3.4,1.7 0.851,2.55 -2.549,0.85 -8.05,-0.396 -11.1,-3.4 -0.851,-0.851 -1.7,-0.851 -1.7,-0.851 l 7.55,-6.54 0.039,10e-4"
     id="path866" />
  <path
     style="fill:#ea596e"
     inkscape:connector-curvature="0"
     d="m 9.01,16.975762 c 2.55,4.25 -1.37,11.4 -3.92,10.5 -2.55,-0.9 -3.4,1.7 -0.851,2.55 2.549,0.85 8.05,-0.396 11.1,-3.4 0.851,-0.851 1.7,-0.851 1.7,-0.851 l -7.99,-8.81 -0.039,0.011 m 18,0 c -2.55,4.25 1.37,11.4 3.92,10.5 2.55,-0.851 3.4,1.7 0.851,2.55 -2.55,0.851 -8.05,-0.396 -11.1,-3.4 -0.851,-0.852 -1.7,-0.852 -1.7,-0.852 l 7.99,-8.81 0.039,0.012"
     id="path868" />
  <path
     style="fill:#f4abba"
     inkscape:connector-curvature="0"
     d="m 30.91,32.375762 c -2.32,0.774 -6.92,-5.35 -5.92,-11.4 2,-5 -4,-7.48 -4,-9.98 0,-6.11 -2.03,-9.74 -3.03,-9.74 -1,0 -2.97,3.63 -2.97,9.74 0,2.5 -6,4.98 -4,9.98 1,6 -3.6,12.1 -5.92,11.4 -2.55,-0.851 -3.4,2.55 -0.851,3.4 2.55,0.851 7.07,-0.533 10.2,-3.4 1.86,-1.7 3.56,-1.7 3.56,-1.7 0,0 1.7,0 3.56,1.7 3.14,2.87 7.66,4.25 10.2,3.4 2.55,-0.85 1.7,-4.25 -0.85,-3.4 h 0.021"
     id="path870" />
  <circle
     style="fill:#292f33"
     id="circle872"
     r="2.5"
     cy="23.475761"
     cx="14.51" />
  <circle
     style="fill:#292f33"
     id="circle874"
     r="2.5"
     cy="23.475761"
     cx="21.51" />
  <path
     style="fill:#292f33"
     id="path876"
     d="m 21.41,29.775762 c -0.007,-0.027 -0.703,-2.69 -3.37,-2.69 -2.667,0 -3.36,2.66 -3.37,2.69 a 0.304,0.304 0 0 0 0.142,0.334 0.313,0.313 0 0 0 0.366,-0.037 c 0.007,-0.005 0.623,-0.53 2.86,-0.53 2.2,0 2.83,0.51 2.86,0.53 a 0.306,0.306 0 0 0 0.509,-0.297 h 0.003"
     inkscape:connector-curvature="0" />
  <path
     style="fill:#5dadec"
     id="path880"
     d="m 18.01,-0.024238 v 19.6 c 2.07,0.004 4.11,0.358 6.02,1.04 3.4,-2.81 6.98,-6.48 6.98,-9.63 0,-6 -13,-11 -13,-11 v -0.01"
     inkscape:connector-curvature="0" />
  <path
     style="fill:#5dadec"
     id="path882"
     d="m 18.01,-0.024238 c 0,0 -13,5 -13,11 0,3.15 3.58,6.83 6.99,9.64 a 18.185,18.185 0 0 1 6.012,-1.04 l -0.002,-19.6"
     inkscape:connector-curvature="0" />
  <path
     style="fill:#5dadec"
     id="path884"
     d="m 9.01,16.975762 c 0.822,1.37 0.967,3.04 0.707,4.64 0.797,-0.427 1.64,-0.792 2.51,-1.09 l -3.22,-3.55 m 18,0 -3.22,3.55 c 0.873,0.298 1.71,0.663 2.51,1.09 -0.26,-1.6 -0.116,-3.27 0.707,-4.64 h 0.003"
     inkscape:connector-curvature="0" />
  <path
     style="fill:#bdddf4"
     inkscape:connector-curvature="0"
     d="m 18.01,1.255762 c -1,0 -2.97,3.63 -2.97,9.74 0,2.5 -6,4.98 -4,9.98 0.001,0.006 0,0.013 0.002,0.02 2.18,-0.93 4.57,-1.42 7,-1.42 2.43,0.006 4.83,0.495 7,1.43 l 0.004,-0.03 c 2,-5 -4,-7.48 -4,-9.98 0,-6.11 -2.03,-9.74 -3.03,-9.74 H 18.01"
     id="path888" />
  <path
     style="fill:#bdddf4"
     inkscape:connector-curvature="0"
     d="m 18.01,-0.024238 c 0,0 -9,6 -9,11 0,2.31 3.25,6.17 5.85,8.89 1.04,-0.187 2.09,-0.284 3.15,-0.289 1.06,0.001 2.12,0.095 3.16,0.279 2.59,-2.72 5.84,-6.57 5.84,-8.88 0,-5 -9,-11 -9,-11"
     id="path890" />
</svg>
