<svg xmlns="http://www.w3.org/2000/svg" viewBox="0 0 36 36">
	<path fill="#EA596E" d="m5 25c0 6 13 11 13 11v-25s-13 8-13 14z"/>
	<path fill="#EA596E" d="m31 25c0 6-13 11-13 11v-25c-.001 0 13 8 13 14z"/>
	<path fill="#F4ABBA" d="m9 25c0-3.83 9-12 9-12s9 8.17 9 12c0 5-9 11-9 11s-9-6-9-11z"/>
	<path fill="#BE1931" d="m23 20.1c-2.55-4.25 1.81-9.1 4.36-8.24 2.55.851 3.4-1.7.851-2.55s-8.05.396-11.1 3.4c-.851.851-1.7.851-1.7.851z"/>
	<path fill="#BE1931" d="m13 20.1c2.55-4.25-1.81-9.1-4.36-8.24-2.55.851-3.4-1.7-.851-2.55s8.05.396 11.1 3.4c.851.851 1.7.851 1.7.851z"/>
	<path fill="#EA596E" d="m27 19c-2.55-4.25 1.37-11.4 3.92-10.5s3.4-1.7.851-2.55-8.05.396-11.1 3.4c-.851.851-1.7.851-1.7.851zm-18 0c2.55-4.25-1.37-11.4-3.92-10.5-2.55.851-3.4-1.7-.851-2.55 2.55-.851 8.05.396 11.1 3.4.851.852 1.7.852 1.7.852z"/>
	<path fill="#F4ABBA" d="m5.08 3.65c2.32-.774 6.92 5.35 5.92 11.4-2 5 4 7.48 4 9.98 0 6.11 2.03 9.74 3.03 9.74s2.97-3.63 2.97-9.74c0-2.5 6-4.98 4-9.98-1-6 3.6-12.1 5.92-11.4 2.55.851 3.4-2.55.851-3.4-2.55-.851-7.07.533-10.2 3.4-1.86 1.7-3.56 1.7-3.56 1.7s-1.7 0-3.56-1.7c-3.14-2.87-7.66-4.25-10.2-3.4-2.55.85-1.7 4.25.85 3.4z"/>
	<circle fill="#292F33" cx="14.5" cy="12.5" r="2.5"/>
	<circle fill="#292F33" cx="21.5" cy="12.5" r="2.5"/>
</svg>
