<?xml version="1.0" encoding="UTF-8" standalone="no"?>
<svg
   xmlns:dc="http://purl.org/dc/elements/1.1/"
   xmlns:cc="http://creativecommons.org/ns#"
   xmlns:rdf="http://www.w3.org/1999/02/22-rdf-syntax-ns#"
   xmlns:svg="http://www.w3.org/2000/svg"
   xmlns="http://www.w3.org/2000/svg"
   xmlns:sodipodi="http://sodipodi.sourceforge.net/DTD/sodipodi-0.dtd"
   xmlns:inkscape="http://www.inkscape.org/namespaces/inkscape"
   viewBox="0 0 36 36"
   version="1.1"
   id="svg20"
   sodipodi:docname="1f645.svg"
   inkscape:version="0.92.3 (2405546, 2018-03-11)">
  <sodipodi:namedview
     pagecolor="#ffffff"
     bordercolor="#666666"
     borderopacity="1"
     objecttolerance="10"
     gridtolerance="10"
     guidetolerance="10"
     inkscape:pageopacity="0"
     inkscape:pageshadow="2"
     inkscape:window-width="640"
     inkscape:window-height="480"
     id="namedview22"
     showgrid="false"
     inkscape:snap-global="false"
     inkscape:zoom="3.2118056"
     inkscape:cx="59.087194"
     inkscape:cy="42.400781"
     inkscape:current-layer="svg20"
     inkscape:snap-bbox="true"
     inkscape:object-paths="true" />
  <metadata
     id="metadata26">
    <rdf:RDF>
      <cc:Work
         rdf:about="">
        <dc:format>image/svg+xml</dc:format>
        <dc:type
           rdf:resource="http://purl.org/dc/dcmitype/StillImage" />
        <dc:title />
      </cc:Work>
    </rdf:RDF>
  </metadata>
  <defs
     id="defs24" />
  <path
     id="path2"
     d="M31 11C31 5 18 0 18 0v25s13-8 13-14z"
     fill="#EA596E" />
  <path
     id="path4"
     d="M5.002 11c0-6 13-11 13-11v25c.001 0-13-8-13-14z"
     fill="#EA596E" />
  <path
     id="path6"
     d="M27 11c0 3.833-9 12-9 12s-9-8.167-9-12c0-5 9-11 9-11s9 6 9 11z"
     fill="#F4ABBA" />
  <path
     id="path8"
     d="M13 15.867c2.552 4.254-1.806 9.096-4.357 8.245-2.552-.851-3.403 1.701-.851 2.552s8.052-.396 11.059-3.402c.851-.851 1.701-.851 1.701-.851L13 15.867z"
     fill="#BE1931" />
  <path
     id="path10"
     d="M23 15.867c-2.552 4.254 1.806 9.096 4.357 8.245 2.553-.851 3.403 1.701.851 2.552s-8.052-.396-11.059-3.402c-.851-.851-1.702-.851-1.702-.851L23 15.867z"
     fill="#BE1931" />
  <path
     id="path12"
     d="M9 17c2.552 4.254-1.369 11.366-3.921 10.515-2.552-.851-3.403 1.702-.851 2.553s8.052-.396 11.059-3.403c.851-.851 1.701-.851 1.701-.851L9 17zm17.989 0c-2.553 4.254 1.368 11.366 3.921 10.515 2.552-.851 3.402 1.702.851 2.553-2.553.851-8.052-.396-11.059-3.403-.851-.852-1.702-.852-1.702-.852L26.989 17z"
     fill="#EA596E" />
  <path
     inkscape:connector-curvature="0"
     id="path843"
     d="M 18,1.287109 C 16.990133,1.357019 15,4.969113 15,11.017578 15,13.518578 9,16 11,21 c 0.06698,0.401879 0.103938,0.804197 0.123047,1.205078 0.0071,0.149786 0.0011,0.298024 0.002,0.447266 0.0016,0.262353 9.7e-4,0.523468 -0.01563,0.783203 -0.01022,0.160188 -0.02819,0.317737 -0.04492,0.476562 -0.02469,0.23432 -0.05379,0.466669 -0.0918,0.697266 -0.02687,0.16311 -0.05674,0.323512 -0.08984,0.484375 -0.04984,0.242217 -0.105011,0.480578 -0.167968,0.716797 -0.03731,0.139988 -0.07561,0.278439 -0.117188,0.416015 -0.06826,0.225962 -0.143791,0.445409 -0.222656,0.664063 -0.05332,0.147848 -0.102416,0.297284 -0.160156,0.441406 -0.105831,0.264191 -0.2208266,0.517381 -0.339844,0.767578 -0.033208,0.06982 -0.061575,0.144258 -0.095703,0.212891 -0.1622508,0.326256 -0.3356082,0.638761 -0.515625,0.935547 -0.044076,0.07268 -0.091764,0.13628 -0.1367188,0.207031 -0.13838,0.217746 -0.2765884,0.430741 -0.421875,0.628906 -0.017771,0.02424 -0.034878,0.05224 -0.052734,0.07617 -1.5974659,2.6865 0.9425292,4.693259 3.4218748,3.669922 0.608567,-0.251183 1.216768,-0.59192 1.765625,-0.996094 0.167232,-0.136444 0.341224,-0.263964 0.501953,-0.408203 0.03,-0.02646 0.06435,-0.0493 0.09375,-0.07617 0.232875,-0.212875 0.464646,-0.399517 0.689453,-0.5625 C 16.697977,30.646902 18,30.646484 18,30.646484 c 0,0 1.301354,-2.52e-4 2.875,1.140625 0.224711,0.162887 0.45475,0.34975 0.6875,0.5625 3.96e-4,3.62e-4 0.0016,-3.62e-4 0.002,0 0.02976,0.0272 0.06374,0.04924 0.09375,0.07617 0.160729,0.144239 0.334721,0.271759 0.501953,0.408203 0.548857,0.404174 1.157058,0.744911 1.765625,0.996094 2.479345,1.023337 5.019341,-0.983422 3.421875,-3.669922 -0.01786,-0.02393 -0.03496,-0.05193 -0.05273,-0.07617 -0.145287,-0.198165 -0.283495,-0.41116 -0.421875,-0.628906 -0.04495,-0.07075 -0.09264,-0.134346 -0.136719,-0.207031 -0.180017,-0.296786 -0.353374,-0.609291 -0.515625,-0.935547 -0.03413,-0.06863 -0.0625,-0.143073 -0.0957,-0.212891 -0.119017,-0.250197 -0.234013,-0.503387 -0.339844,-0.767578 -0.05774,-0.144122 -0.106833,-0.293558 -0.160156,-0.441406 -0.07887,-0.218654 -0.154394,-0.438101 -0.222656,-0.664063 -0.04157,-0.137576 -0.07988,-0.276027 -0.117188,-0.416015 -0.06296,-0.236219 -0.11813,-0.47458 -0.167968,-0.716797 -0.0331,-0.160863 -0.06297,-0.321265 -0.08984,-0.484375 -0.03801,-0.230597 -0.06711,-0.462946 -0.0918,-0.697266 -0.01673,-0.158825 -0.0347,-0.316374 -0.04492,-0.476562 -0.01659,-0.259735 -0.01723,-0.52085 -0.01563,-0.783203 9.02e-4,-0.149242 -0.0052,-0.29748 0.002,-0.447266 C 24.896062,21.804197 24.93302,21.401879 25,21 27,16 21,13.518578 21,11.017578 21,4.969113 19.009867,1.357017 18,1.287109 Z"
     style="fill:#f4abba" />
  <circle
     id="circle16"
     r="2.5"
     cy="23.5"
     cx="14.5"
     fill="#292F33" />
  <circle
     id="circle18"
     r="2.5"
     cy="23.5"
     cx="21.5"
     fill="#292F33" />
  <path
     d="M 70.921,72.35 C 68.599,73.124 64,67 65,61 c 2,-5 -4,-7.482 -4,-9.983 0,-6.108 -2.031,-9.735 -3.031,-9.735 -1,0 -2.969,3.627 -2.969,9.735 0,2.501 -6,4.983 -4,9.983 1,6 -3.599,12.124 -5.921,11.35 -2.552,-0.851 -3.403,2.552 -0.851,3.402 2.552,0.851 7.069,-0.533 10.208,-3.402 C 56.299,70.647 58,70.647 58,70.647 c 0,0 1.701,0 3.563,1.702 3.139,2.869 7.656,4.253 10.208,3.402 2.552,-0.85 1.702,-4.252 -0.85,-3.401 z"
     id="path835"
     inkscape:connector-curvature="0"
     style="fill:#f4abba" />
  <path
     id="path860"
     d="m 6.0265,-12 h 24 v 8 h -24 z"
     inkscape:connector-curvature="0"
     style="fill:#ea596e;fill-opacity:1" />
  <path
     id="path866"
     d="m 3.2215,-21.975 c 0.263,-0.484 0.776,-0.74 1.268,-0.694 0.034,-0.064 7.084,2.942 7.084,2.942 l -1.268,1.547 c -0.7,0.854 -1.907,1.023 -2.696,0.376 l -1.677,-1.375 -2.26,-1.137 c -0.586,-0.297 -0.788,-1.039 -0.451,-1.659 z"
     inkscape:connector-curvature="0"
     style="fill:#f4abba;fill-opacity:1" />
  <path
     id="path868"
     d="m 0.3915,-25.015 c -0.35,0.427 -0.315,1.035 0.08,1.359 l 4.917,2.738 3.569,2.926 c 0.395,0.323 0.998,0.239 1.348,-0.188 l 1.268,-1.547 -1.428,-1.17 -3.223,-1.893 -5.183,-2.413 c -0.001,0 -0.998,-0.239 -1.348,0.188 z"
     inkscape:connector-curvature="0"
     style="fill:#f4abba;fill-opacity:1" />
  <path
     id="path870"
     d="m 9.5465,-21.562 c 0,0 19.597,8.657 20.108,8.884 1.19,0.529 3.154,1.7 3.154,3.678 l -0.351,4.75 c 0,0.138 -0.112,0.25 -0.25,0.25 h -3.323 c -0.05,0 -0.098,-0.015 -0.139,-0.043 l -19.44,-13.059 c -0.069,-0.046 -0.111,-0.124 -0.111,-0.207 v -4.025 c 10e-4,-0.181 0.186,-0.302 0.352,-0.228 z"
     inkscape:connector-curvature="0"
     style="fill:#f4abba;fill-opacity:1" />
  <path
     id="path872"
     d="m 18.2525,-17.734 -0.779,-0.324 -6.462,2.109 1.482,1.031 z m 5.203,2.316 1.007,0.445 -5.175,4.594 -3.821,-0.025 z"
     inkscape:connector-curvature="0"
     style="fill:#ea596e;fill-opacity:1" />
  <path
     id="path874"
     d="m 32.7785,-21.975 c -0.263,-0.484 -0.776,-0.74 -1.268,-0.694 -0.034,-0.064 -7.084,2.942 -7.084,2.942 l 1.268,1.547 c 0.7,0.854 1.907,1.023 2.696,0.376 l 1.677,-1.375 2.26,-1.137 c 0.586,-0.297 0.788,-1.039 0.451,-1.659 z"
     inkscape:connector-curvature="0"
     style="fill:#f4abba;fill-opacity:1" />
  <path
     id="path876"
     d="m 35.6085,-25.015 c 0.35,0.427 0.315,1.035 -0.08,1.359 l -4.917,2.738 -3.569,2.926 c -0.395,0.323 -0.998,0.239 -1.348,-0.188 l -1.268,-1.547 1.428,-1.17 3.223,-1.892 5.183,-2.413 c 0,-10e-4 0.998,-0.24 1.348,0.187 z"
     inkscape:connector-curvature="0"
     style="fill:#f4abba;fill-opacity:1" />
  <path
     id="path878"
     d="m 26.4535,-21.562 c 0,0 -19.597,8.657 -20.108,8.884 -1.19,0.529 -3.154,1.7 -3.154,3.678 l 0.351,4.75 c 0,0.138 0.112,0.25 0.25,0.25 h 3.323 c 0.05,0 0.098,-0.015 0.139,-0.043 l 19.439,-13.059 c 0.069,-0.046 0.111,-0.124 0.111,-0.207 v -4.025 c 0,-0.181 -0.186,-0.302 -0.351,-0.228 z"
     inkscape:connector-curvature="0"
     style="fill:#f4abba;fill-opacity:1" />
  <path
     sodipodi:nodetypes="sscccs"
     d="m 26.065432,109.22791 c 2.273825,0.2447 2.089387,2.33581 1.88606,3.75526 -0.31262,2.18244 -3.208154,4.22871 -6.49798,1.99062 -4.288576,-2.33184 -4.601865,-3.60129 -9.439931,-6.66844 -2.3229972,-1.35606 0.106292,-4.96299 2.067456,-3.78899 1.961163,1.17399 7.088888,4.18473 11.984395,4.71155 z"
     id="path934"
     inkscape:connector-curvature="0"
     style="fill:#ea596e;fill-opacity:1"
     inkscape:transform-center-x="5.472068"
     inkscape:transform-center-y="-2.2183879" />
  <path
     inkscape:transform-center-y="-2.151824"
     inkscape:transform-center-x="-5.5041623"
     style="fill:#ea596e;fill-opacity:1"
     inkscape:connector-curvature="0"
     id="path932"
     d="m 10.043095,109.30047 c -2.2777795,0.36381 -2.1192707,2.38554 -1.9311032,3.80709 0.2893118,2.18565 3.4949322,4.3544 6.8084552,2.15154 4.313215,-2.28595 4.524011,-3.62133 9.394532,-6.63668 2.337336,-1.33118 -0.338736,-5.04529 -2.312317,-3.89229 -1.97358,1.153 -5.189472,4.254 -11.959567,4.57034 z"
     sodipodi:nodetypes="cscccc" />
  <path
     inkscape:transform-center-y="-2.2183879"
     inkscape:transform-center-x="5.472068"
     style="fill:#f4abba;fill-opacity:1"
     inkscape:connector-curvature="0"
     id="path930"
     d="m 25.38435,109.48089 c 2.306628,0.0104 2.770469,1.98553 2.567142,3.40499 -0.31262,2.18243 -2.682749,4.11195 -5.972575,1.87386 -4.288576,-2.33185 -4.485108,-3.66941 -9.323174,-6.73656 -2.322997,-1.35605 -0.467762,-4.66136 1.493402,-3.48736 1.961163,1.17399 6.849901,4.92525 11.235205,4.94507 z"
     sodipodi:nodetypes="sscccs" />
  <path
     sodipodi:nodetypes="ccccc"
     inkscape:connector-curvature="0"
     id="path920"
     d="m 17.626953,106.75586 -4.330078,1.69336 c 3.2912,2.17135 3.120932,2.62766 5.370408,4.15949 0.502742,-0.70162 3.900347,-2.99664 4.186233,-3.51496 -1.835347,-0.46999 -3.477556,-1.59296 -5.226563,-2.33789 z"
     style="fill:#ea596e;fill-opacity:1" />
  <path
     sodipodi:nodetypes="sscccs"
     d="m 10.596184,109.67471 c -2.306608,-0.0142 -2.7147159,1.87098 -2.5265484,3.29253 0.2893118,2.18564 2.6387164,4.14034 5.9522394,1.93749 4.313215,-2.28595 4.524011,-3.62133 9.394532,-6.63668 2.337336,-1.33119 0.51748,-4.65611 -1.456101,-3.50311 -1.97358,1.153 -6.978857,4.93676 -11.364122,4.90977 z"
     id="path918"
     inkscape:connector-curvature="0"
     style="fill:#f4abba;fill-opacity:1"
     inkscape:transform-center-x="-5.5041623"
     inkscape:transform-center-y="-2.151824" />
  <path
     inkscape:transform-center-y="-2.2183879"
     inkscape:transform-center-x="5.472068"
     style="fill:#ea596e;fill-opacity:1"
     inkscape:connector-curvature="0"
     id="path936"
     d="m 26.065432,89.227912 c 2.285855,0.07087 2.089387,2.335807 1.88606,3.755262 -0.31262,2.182437 -3.208154,4.228707 -6.49798,1.990618 -4.288576,-2.331847 -8.537201,-6.518398 -13.3752669,-9.585547 -2.3229972,-1.356055 0.106292,-4.962989 2.0674559,-3.788992 1.98597,1.372454 11.071285,7.47833 15.919731,7.628659 z"
     sodipodi:nodetypes="sscccs" />
  <path
     sodipodi:nodetypes="cscccc"
     d="m 10.043095,89.300465 c -2.2777795,0.363815 -2.1192707,2.385548 -1.9311032,3.807091 0.2893118,2.185649 3.4949322,4.354399 6.8084552,2.151546 4.313215,-2.285948 9.037263,-7.295229 13.907784,-10.310575 2.337336,-1.331187 -0.338736,-5.045298 -2.312317,-3.892297 -1.97358,1.153001 -9.702724,7.927902 -16.472819,8.244235 z"
     id="path938"
     inkscape:connector-curvature="0"
     style="fill:#ea596e;fill-opacity:1"
     inkscape:transform-center-x="-5.5041623"
     inkscape:transform-center-y="-2.151824" />
  <path
     sodipodi:nodetypes="sscccs"
     d="m 25.38435,89.480885 c 2.29837,-0.195284 2.770469,1.985537 2.567142,3.404992 -0.31262,2.182437 -2.682749,4.11195 -5.972575,1.873861 -4.288576,-2.331847 -8.420444,-6.586506 -13.2585099,-9.653655 -2.322997,-1.356055 -0.467762,-4.661367 1.4934019,-3.48737 2.021403,1.445076 10.870824,8.227502 15.170541,7.862172 z"
     id="path940"
     inkscape:connector-curvature="0"
     style="fill:#f4abba;fill-opacity:1"
     inkscape:transform-center-x="5.472068"
     inkscape:transform-center-y="-2.2183879" />
  <path
     style="fill:#ea596e;fill-opacity:1"
     d="m 17.737032,86.61826 -4.440157,1.830959 c 3.2912,2.171355 3.120932,2.627663 5.370408,4.159493 0.502742,-0.701617 3.900347,-2.996644 4.186233,-3.514962 -1.835347,-0.469992 -3.367477,-1.730563 -5.116484,-2.47549 z"
     id="path942"
     inkscape:connector-curvature="0"
     sodipodi:nodetypes="ccccc" />
  <path
     inkscape:transform-center-y="-2.151824"
     inkscape:transform-center-x="-5.5041623"
     style="fill:#f4abba;fill-opacity:1"
     inkscape:connector-curvature="0"
     id="path944"
     d="m 10.596184,89.674708 c -2.306608,-0.0142 -2.7147159,1.870985 -2.5265484,3.292528 0.2893118,2.185649 2.6387164,4.140345 5.9522394,1.937492 4.313215,-2.285948 9.037263,-7.295229 13.907784,-10.310575 2.337336,-1.331187 0.51748,-4.656109 -1.456101,-3.503108 -1.97358,1.153001 -11.492109,8.61065 -15.877374,8.583663 z"
     sodipodi:nodetypes="sscccs" />
  <path
     style="fill:#ea596e;fill-opacity:1;stroke:#000000;stroke-width:1px;stroke-linecap:butt;stroke-linejoin:miter;stroke-opacity:0"
     d="m 9.3016216,27.827027 4.6313514,3.424865 3.736216,0.622702 9.651892,-4.319999 L 24.48,25.258378 17.785946,29.033514 10.274595,25.647568 Z"
     id="path1031"
     inkscape:connector-curvature="0"
     sodipodi:nodetypes="cccccccc" />
  <path
     id="circle956"
     d="m 28.984828,18.636557 c 0.882437,-0.657238 2.129463,-0.47326 2.785308,0.410926 0.655846,0.884185 0.472159,2.133755 -0.410278,2.790994 C 26.172272,28.198018 18.480346,32.025014 12.496062,34.729424 11.068051,35.538871 9.2542325,35.037426 8.4447842,33.609417 7.6353374,32.181408 8.1367798,30.36759 9.5647906,29.558141 18.066005,28.556498 25.227794,22.366676 28.984828,18.636557"
     style="opacity:1;vector-effect:none;fill:#f4abba;fill-opacity:1;stroke:none;stroke-width:8.30000019;stroke-linecap:round;stroke-linejoin:round;stroke-miterlimit:4;stroke-dasharray:none;stroke-dashoffset:0;stroke-opacity:0"
     inkscape:connector-curvature="0"
     sodipodi:nodetypes="ccccscc"
     inkscape:transform-center-x="-9.2064999"
     inkscape:transform-center-y="-5.4447069" />
  <path
     inkscape:transform-center-y="-5.4447069"
     inkscape:transform-center-x="9.2064998"
     sodipodi:nodetypes="ccccscc"
     inkscape:connector-curvature="0"
     style="opacity:1;vector-effect:none;fill:#f4abba;fill-opacity:1;stroke:none;stroke-width:8.30000019;stroke-linecap:round;stroke-linejoin:round;stroke-miterlimit:4;stroke-dasharray:none;stroke-dashoffset:0;stroke-opacity:0"
     d="m 7.2182716,18.911755 c -0.882437,-0.657238 -2.129463,-0.47326 -2.785308,0.410926 -0.655846,0.884185 -0.472159,2.133755 0.410278,2.790994 5.1875864,6.359541 12.8795124,10.186537 18.8637964,12.890947 1.428011,0.809447 3.24183,0.308002 4.051278,-1.120007 0.809447,-1.428009 0.308004,-3.241827 -1.120007,-4.051276 C 18.137095,28.831696 10.975306,22.641874 7.2182716,18.911755"
     id="path1029" />
</svg>
