<svg xmlns="http://www.w3.org/2000/svg" viewBox="0 0 36 36">
  <path fill="#EA596E" d="M31 11C31 5 18 0 18 0v25s13-8 13-14z"/>
  <path fill="#EA596E" d="M5 11C5 5 18 0 18 0v25c.001 0-13-8-13-14z"/>
  <path fill="#F4ABBA" d="M27 11c0 3.83-9 12-9 12s-9-8.17-9-12c0-5 9-11 9-11s9 6 9 11z"/>
  <path fill="#BE1931" d="M13 15.9c2.55 4.25-1.81 9.1-4.36 8.24-2.55-.851-3.4 1.7-.851 2.55s8.05-.396 11.1-3.4c.851-.851 1.7-.851 1.7-.851l-7.55-6.54z"/>
  <path fill="#BE1931" d="M23 15.9c-2.55 4.25 1.81 9.1 4.36 8.24 2.55-.851 3.4 1.7.851 2.55s-8.05-.396-11.1-3.4c-.851-.851-1.7-.851-1.7-.851l7.55-6.54z"/>
  <path fill="#EA596E" d="M9 17c2.55 4.25-1.37 11.4-3.92 10.5s-3.4 1.7-.851 2.55 8.05-.396 11.1-3.4c.851-.851 1.7-.851 1.7-.851l-7.99-8.81zm18 0c-2.55 4.25 1.37 11.4 3.92 10.5 2.55-.851 3.4 1.7.851 2.55-2.55.851-8.05-.396-11.1-3.4-.851-.852-1.7-.852-1.7-.852l7.99-8.81z"/>
  <path fill="#F4ABBA" d="M30.9 32.4c-2.32.774-6.92-5.35-5.92-11.4 2-5-4-7.48-4-9.98 0-6.11-2.03-9.74-3.03-9.74s-2.97 3.63-2.97 9.74c0 2.5-6 4.98-4 9.98 1 6-3.6 12.1-5.92 11.4-2.55-.851-3.4 2.55-.851 3.4 2.55.851 7.07-.533 10.2-3.4 1.86-1.7 3.56-1.7 3.56-1.7s1.7 0 3.56 1.7c3.14 2.87 7.66 4.25 10.2 3.4 2.55-.85 1.7-4.25-.85-3.4z"/>
  <circle fill="#292F33" cx="14.5" cy="23.5" r="2.5"/>
  <circle fill="#292F33" cx="21.5" cy="23.5" r="2.5"/>
  <path fill="#292F33" d="M22.6 29.5h-9.28c-.618 0-.618-.618-.618-.618v-.618s0-.62.618-.62l9.28.002z"/>
  <path fill="#99AAB5" d="M29 29l-4.77-1.31c-.445-.122-.649.177-.724.338l-1.01-.485-.452.946v-1.39h-1.24v1.24h-1.24v-1.24h-1.24v1.24h-1.24v-1.24h-1.24v1.24h-1.24v-1.24h-1.24v1.86h1.24v1.24h1.24v-1.24h1.24v1.24h1.24v-1.24h1.24v1.24h1.24v-1.24h1.02l-.359.749 1.02.487-.061.128s-.153.456.23.788c.385.332 3.27 2.93 3.27 2.93s.557.536 1.09.049c.457-.414 2.26-3.72 2.42-4.32.165-.596-.431-.761-.431-.761zm-2.33 3.75l-1.64-1.39.998-1.9 2.06.7z"/>
</svg>
