<svg xmlns="http://www.w3.org/2000/svg" viewBox="0 0 36 36">
  <path fill="#EA596E" d="M31 11C31 5 18 0 18 0v25s13-8 13-14z"/>
  <path fill="#EA596E" d="M5 11C5 5 18 0 18 0v25c.001 0-13-8-13-14z"/>
  <path fill="#F4ABBA" d="M27 11c0 3.83-9 12-9 12s-9-8.17-9-12c0-5 9-11 9-11s9 6 9 11z"/>
  <path fill="#BE1931" d="M13 15.9c2.55 4.25-1.81 9.1-4.36 8.24-2.55-.851-3.4 1.7-.851 2.55s8.05-.396 11.1-3.4c.851-.851 1.7-.851 1.7-.851l-7.55-6.54z"/>
  <path fill="#BE1931" d="M23 15.9c-2.55 4.25 1.81 9.1 4.36 8.24 2.55-.851 3.4 1.7.851 2.55s-8.05-.396-11.1-3.4c-.851-.851-1.7-.851-1.7-.851l7.55-6.54z"/>
  <path fill="#EA596E" d="M9 17c2.55 4.25-1.37 11.4-3.92 10.5s-3.4 1.7-.851 2.55 8.05-.396 11.1-3.4c.851-.851 1.7-.851 1.7-.851l-7.99-8.81zm18 0c-2.55 4.25 1.37 11.4 3.92 10.5 2.55-.851 3.4 1.7.851 2.55-2.55.851-8.05-.396-11.1-3.4-.851-.852-1.7-.852-1.7-.852l7.99-8.81z"/>
  <path fill="#BE1931" d="M26.4 22.3l-6.17 4.01c.154.105.31.227.469.387.686.686 1.51 1.28 2.39 1.78l4.7-2.9c-.603-.915-1.1-2.06-1.38-3.27z"/>
  <path fill="#F4ABBA" d="M30.9 32.4c-2.32.774-6.92-5.35-5.92-11.4 2-5-4-7.48-4-9.98 0-6.11-2.03-9.74-3.03-9.74s-2.97 3.63-2.97 9.74c0 2.5-6 4.98-4 9.98 1 6-3.6 12.1-5.92 11.4-2.55-.851-3.4 2.55-.851 3.4 2.55.851 7.07-.533 10.2-3.4 1.86-1.7 3.56-1.7 3.56-1.7s1.7 0 3.56 1.7c3.14 2.87 7.66 4.25 10.2 3.4 2.55-.85 1.7-4.25-.85-3.4z"/>
  <circle fill="#292F33" cx="14.5" cy="23.5" r="2.5"/>
  <circle fill="#292F33" cx="21.5" cy="23.5" r="2.5"/>
  <path fill="#EA596E" d="M24.1 20.1c-3.47 0-4.87-2.72-4.93-2.84a.624.624 0 0 1 1.115-.561c.047.091 1.14 2.15 3.81 2.15a.624.624 0 0 1 0 1.248zM11.9 20.1c3.47 0 4.87-2.72 4.93-2.84a.624.624 0 0 0-1.115-.561c-.047.091-1.14 2.15-3.81 2.15a.624.624 0 0 0 0 1.248zM24.9 23.3l-8.49 5.51 5.05.684 4.19-2.58c-.405-1.13-.684-2.35-.746-3.61z"/>
  <path fill="#292F33" d="M21.9 29.5c-.008-.031-.812-2.04-3.89-2.04s-3.88 2.01-3.89 2.04a.351.351 0 0 0 .165.386c.133.08.307.061.423-.043.006-.005.719-.612 3.3-.612 2.55 0 3.28.59 3.3.612a.354.354 0 0 0 .589-.343z"/>
  <path fill="#CCD6DD" d="M30.4 19.8a1.772 1.772 0 0 0-2.48-.355l-12.2 9.16c.458-.172 1.07-.315 1.86-.37.182-.013 1.89-.445 1.89-.445l.917.735s.646.26.849.382l8.83-6.62a1.77 1.77 0 0 0 .353-2.48z"/>
  <path fill="#DA2F47" d="M25.5 23.4c-.318-.423-.558-.812-.981-.495l-7.04 5.28c.182-.013.355-.03.556-.031.965-.007 1.7.138 2.25.32l5.38-4.04c.423-.316.15-.612-.167-1.04z"/>
  <path fill="#67757F" d="M18.4 26.5l.875 1.13.526-.422-.849-1.13zm1.58-1.18l.876 1.13.526-.422-.849-1.13zm1.55-1.15l.875 1.13.526-.422-.849-1.13zm1.55-1.18l.876 1.13.526-.421-.849-1.13zm1.59-1.16l.876 1.13.525-.422-.849-1.13zm1.52-1.15l.876 1.13.525-.422-.849-1.13z"/>
</svg>
