<svg xmlns="http://www.w3.org/2000/svg" viewBox="0 0 36 36">
	<path fill="#EA596E" d="M31 11C31 5 18 0 18 0v25s13-8 13-14z"/>
	<path fill="#EA596E" d="m5 11c0-6 13-11 13-11v25c.001 0-13-8-13-14z"/>
	<path fill="#F4ABBA" d="m27 11c0 3.83-9 12-9 12s-9-8.17-9-12c0-5 9-11 9-11s9 6 9 11z"/>
	<path fill="#BE1931" d="m13 15.9c2.55 4.25-1.81 9.1-4.36 8.24-2.55-.851-3.4 1.7-.851 2.55s8.05-.396 11.1-3.4c.851-.851 1.7-.851 1.7-.851l-7.55-6.54z"/>
	<path fill="#BE1931" d="m23 15.9c-2.55 4.25 1.81 9.1 4.36 8.24 2.55-.851 3.4 1.7.851 2.55s-8.05-.396-11.1-3.4c-.851-.851-1.7-.851-1.7-.851l7.55-6.54z"/>
	<path fill="#EA596E" d="m9 17c2.55 4.25-1.37 11.4-3.92 10.5s-3.4 1.7-.851 2.55 8.05-.396 11.1-3.4c.851-.851 1.7-.851 1.7-.851l-7.99-8.81zm18 0c-2.55 4.25 1.37 11.4 3.92 10.5 2.55-.851 3.4 1.7.851 2.55-2.55.851-8.05-.396-11.1-3.4-.851-.852-1.7-.852-1.7-.852l7.99-8.81z"/>
	<path fill="#F4ABBA" d="m30.9 32.4c-2.32.774-6.92-5.35-5.92-11.4 2-5-4-7.48-4-9.98 0-6.11-2.03-9.74-3.03-9.74s-2.97 3.63-2.97 9.74c0 2.5-6 4.98-4 9.98 1 6-3.6 12.1-5.92 11.4-2.55-.851-3.4 2.55-.851 3.4 2.55.851 7.07-.533 10.2-3.4 1.86-1.7 3.56-1.7 3.56-1.7s1.7 0 3.56 1.7c3.14 2.87 7.66 4.25 10.2 3.4 2.55-.85 1.7-4.25-.85-3.4z"/>
	<g fill="#292F33">
		<circle cx="13.8" cy="23.5" r="1.88"/>
		<circle cx="22.2" cy="23.5" r="1.88"/>
		<path d="m27.8 21.2c-.1-.0974-.744.161-1.39-.171-1.34-.684-4.74-1.34-6.95.221-.237.167-1.23.195-1.5.184-.276.0123-1.26-.0158-1.5-.184-2.21-1.57-5.6-.905-6.95-.221-.651.332-1.29.0734-1.39.171-.145.14-.145.702.000587.843.144.14.867.302 1.01.723.145.421.146 2.91 1.3 3.77 1.08.805 3.6 1.05 5.19.14 1.39-.792 1.34-2.46 1.6-3.45.091-.354.347-.532.74-.532s.649.178.74.532c.255.993.206 2.66 1.6 3.45 1.6.907 4.11.665 5.19-.14 1.15-.86 1.15-3.35 1.3-3.77.144-.421.866-.583 1.01-.723.146-.141.146-.703.000586-.843zm-11.9 2.14c-.0452.649-.161 1.89-.937 2.34-.476.271-1.1.436-1.75.436h-.000586c-.719 0-1.72-.204-2.11-.494-.487-.363-.673-1.86-.743-2.42-.0446-.356-.164-1.23.228-1.36.622-.212 1.49-.377 2.38-.377.407 0 1.77.0252 2.44.435.59.362.512 1.09.487 1.44zm9.55-.149c-.0698.56-.255 2.06-.743 2.43-.39.291-1.39.494-2.11.494h-.000587c-.65 0-1.27-.165-1.75-.436-.777-.441-.892-1.68-.937-2.33-.0246-.357-.103-1.09.487-1.45.666-.41 2.03-.438 2.44-.438.888 0 1.76.163 2.38.374.392.134.273.999.228 1.36z"/>
		<path d="m18 29.2c-.075 0-.148-.0056-.222-.0081v2.29h.444v-2.29c-.0735.0025-.147.0086-.222.0086z"/>
		<path d="m22.7 27.7c-.0902-.0816-.225-.0867-.322-.0147-.0152.0112-1.15.846-2.74 1.25-.225.0573-.945.218-1.67.218-.722 0-1.44-.161-1.67-.218-1.6-.407-2.73-1.24-2.74-1.25-.0963-.072-.232-.0669-.322.0147-.0902.0811-.11.214-.0476.318.0492.0821.956 1.55 2.75 2.27v-.927c-.0081-.002.735.192 1.24.246.186.0213.374.0385.566.0451.074.0025.147.0081.222.0081s.148-.0056.222-.0081c.193-.0066.381-.0233.566-.0451.505-.0548 1.25-.248 1.24-.246v.927c1.8-.717 2.7-2.19 2.75-2.27.0618-.104.0421-.237-.0482-.318z"/>
	</g>
	<path fill="#FFF" d="m16 28.9v1.57c0 .558.456 1.01 1.01 1.01h.792v-2.29c-.193-.0066-.381-.0242-.566-.0456-.505-.0548-1.25-.249-1.24-.247zm4.06 0c.0081-.002-.735.192-1.24.247-.186.0213-.374.039-.566.0456v2.29h.792c.558 0 1.01-.456 1.01-1.01z"/>
</svg>
