<svg xmlns="http://www.w3.org/2000/svg" viewBox="0 0 36 36">
	<path fill="#EA596E" d="M31 11C31 5 18 0 18 0v25s13-8 13-14z"/>
	<path fill="#EA596E" d="m5 11c0-6 13-11 13-11v25c.001 0-13-8-13-14z"/>
	<path fill="#F4ABBA" d="m27 11c0 3.83-9 12-9 12s-9-8.17-9-12c0-5 9-11 9-11s9 6 9 11z"/>
	<path fill="#BE1931" d="m13 15.9c2.55 4.25-1.81 9.1-4.36 8.24-2.55-.851-3.4 1.7-.851 2.55s8.05-.396 11.1-3.4c.851-.851 1.7-.851 1.7-.851l-7.55-6.54z"/>
	<path fill="#BE1931" d="m23 15.9c-2.55 4.25 1.81 9.1 4.36 8.24 2.55-.851 3.4 1.7.851 2.55s-8.05-.396-11.1-3.4c-.851-.851-1.7-.851-1.7-.851l7.55-6.54z"/>
	<path fill="#EA596E" d="m9 17c2.55 4.25-1.37 11.4-3.92 10.5s-3.4 1.7-.851 2.55 8.05-.396 11.1-3.4c.851-.851 1.7-.851 1.7-.851l-7.99-8.81zm18 0c-2.55 4.25 1.37 11.4 3.92 10.5 2.55-.851 3.4 1.7.851 2.55-2.55.851-8.05-.396-11.1-3.4-.851-.852-1.7-.852-1.7-.852l7.99-8.81z"/>
	<path fill="#F4ABBA" d="m30.9 32.4c-2.32.774-6.92-5.35-5.92-11.4 2-5-4-7.48-4-9.98 0-6.11-2.03-9.74-3.03-9.74s-2.97 3.63-2.97 9.74c0 2.5-6 4.98-4 9.98 1 6-3.6 12.1-5.92 11.4-2.55-.851-3.4 2.55-.851 3.4 2.55.851 7.07-.533 10.2-3.4 1.86-1.7 3.56-1.7 3.56-1.7s1.7 0 3.56 1.7c3.14 2.87 7.66 4.25 10.2 3.4 2.55-.85 1.7-4.25-.85-3.4z"/>
	<g>
		<path fill="#E6E7E8" d="m27.2 5.13-8.58 2.64-10.3-2.21c-1.4 1.25-2.83 2.72-3.2 4.77-.37 2.04.905 4.06 2.2 5.69.517.38.853 1.56 1.57 1.31 1.98-.61 3.95-1.22 5.93-1.83l12.1 2.59c1.58-1.62 3.16-3.39 3.88-5.39.722-2.01-.0722-3.98-1.28-5.4-.652-.818-1.44-1.52-2.25-2.17z"/>
		<path fill="#BCBEC0" d="m30.7 9.49-23 7.08c.249.29.51.577.779.861l10.4-3.2 9.59 2.06c.255-.307.494-.615.719-.924l-8.25-1.77 10-3.08c-.0394-.347-.122-.691-.24-1.03zm-25.6.711c-.0494.263-.084.527-.084.795 0 .0885.0218.18.0273.27l1.33.283 2.06-.635z"/>
		<path fill="#D1D3D4" d="m29 6.78c-7.71 2.38-15.4 4.75-23.1 7.13.16.299.336.599.533.898l23.3-7.18c-.216-.287-.444-.571-.699-.848zm-22.4.562c-.239.295-.474.591-.664.896l6.64 1.42 1.98-.609zm20.5 4.4-2 .605 5.29 1.14c.152-.321.277-.64.377-.957z"/>
	</g>
	<g fill="#292F33">
		<path d="m17 23.6c-.0333-.075-.833-1.83-2.48-1.83-1.64 0-2.44 1.76-2.48 1.83-.0511.115-.0178.249.08.329.0978.0789.237.0811.339.0078.0072-.0056.701-.502 2.06-.502 1.35 0 2.04.489 2.06.501.0489.0367.108.055.166.055.0611 0 .123-.0206.173-.0606.0994-.0789.132-.214.0811-.33z"/>
		<path d="m24 23.6c-.0333-.075-.833-1.83-2.48-1.83-1.64 0-2.44 1.76-2.48 1.83-.0511.115-.0178.249.0806.329.0972.0789.237.0811.339.0078.0067-.0056.701-.502 2.06-.502 1.35 0 2.04.489 2.06.501.0489.0367.108.055.166.055.0611 0 .123-.0206.173-.0606.0983-.0789.132-.214.0806-.33z"/>
		<path d="m15.2 29.2s.556-2.22 2.78-2.22 2.78 2.22 2.78 2.22-.556-.556-2.78-.556-2.78.556-2.78.556z"/>
	</g>
</svg>
