<svg xmlns="http://www.w3.org/2000/svg" viewBox="0 0 36 36">
  <path fill="#269" d="M13 15.9c2.55 4.25-1.8 9.09-4.35 8.24-2.55-.85-3.4 1.7-.851 2.55 2.33.775 7.1-.198 10.2-2.66 3.1 2.46 7.88 3.43 10.2 2.66 2.55-.851 1.7-3.4-.85-2.55-2.55.851-6.91-3.99-4.36-8.24l-5 4.33z"/>
  <path fill="#3B88C3" d="M9 17c2.55 4.25-1.37 11.4-3.92 10.5s-3.4 1.7-.85 2.55c2.55.851 8.05-.395 11.1-3.4.85-.85 1.7-.85 1.7-.85zm18 0l-7.99 8.81s.85 0 1.7.85c3.01 3.01 8.5 4.25 11.1 3.4 2.55-.85 1.7-3.4-.85-2.55-2.55.851-6.47-6.26-3.92-10.5z"/>
  <path fill="#F4900C" d="M8.41 4.58c-1.38 0-2.5 2.58-2.5 5.76 0 3.18 1.12 5.76 2.5 5.76s2.5-2.58 2.5-5.76c0-3.18-1.12-5.76-2.5-5.76zm18.9 0c-1.38 0-2.5 2.58-2.5 5.76 0 3.18 1.12 5.76 2.5 5.76s2.5-2.58 2.5-5.76c0-3.18-1.12-5.76-2.5-5.76z"/>
  <path fill="#FFAC33" d="M8.91 1.28c-.553 0-1 .739-1 1.65v14.8c0 .911.447 1.65 1 1.65h3c.553 0 1-.737 1-1.65V2.93c0-.909-.447-1.65-1-1.65zm14.9 0c-.553 0-1 .739-1 1.65v14.8c0 .911.447 1.65 1 1.65h3c.553 0 1-.737 1-1.65V2.93c0-.909-.447-1.65-1-1.65z"/>
  <path fill="#55ACEE" d="M11.6.008c-1.11 0-2 .855-2 1.92l.07 27.3c-1.34 2.38-3.32 3.52-4.59 3.1-2.55-.851-3.4 2.55-.85 3.4 2.55.85 7.07-.532 10.2-3.4 1.34-1.22 2.58-1.56 3.18-1.66h.762c.6.097 1.84.436 3.18 1.66 3.14 2.87 7.65 4.25 10.2 3.4 2.55-.85 1.7-4.25-.85-3.4-1.27.425-3.23-1.23-4.57-3.8l.053-26.6c0-1.06-.892-1.92-2-1.92z"/>
  <path fill="#FFF" d="M14.4 21c-1.49 0-2.71 1.21-2.71 2.71 0 1.49 1.21 2.71 2.71 2.71s2.71-1.21 2.71-2.71c0-1.49-1.21-2.71-2.71-2.71zm7.15.013c-1.49 0-2.71 1.21-2.71 2.71 0 1.49 1.21 2.71 2.71 2.71s2.71-1.21 2.71-2.71c0-1.49-1.21-2.71-2.71-2.71z"/>
  <path fill="#DD2E44" d="M14.1 21.6a.6.6 0 0 0-.601.601v3.01a.6.6 0 0 0 .601.601h.601a.602.602 0 0 0 .603-.601v-3.01a.602.602 0 0 0-.603-.601zm7.15.013a.6.6 0 0 0-.601.6v3.01a.6.6 0 0 0 .601.602h.601a.6.6 0 0 0 .601-.601v-3.01a.6.6 0 0 0-.601-.601z"/>
</svg>
