<svg xmlns="http://www.w3.org/2000/svg" viewBox="0 0 36 36">
  <path fill="#EA596E" d="M31 11C31 5 18 0 18 0v25s13-8 13-14z"/>
  <path fill="#EA596E" d="M5 11C5 5 18 0 18 0v25c.001 0-13-8-13-14z"/>
  <path fill="#F4ABBA" d="M27 11c0 3.83-9 12-9 12s-9-8.17-9-12c0-5 9-11 9-11s9 6 9 11z"/>
  <path fill="#BE1931" d="M13 15.9c2.55 4.25-1.81 9.1-4.36 8.24-2.55-.851-3.4 1.7-.851 2.55s8.05-.396 11.1-3.4c.851-.851 1.7-.851 1.7-.851l-7.55-6.54z"/>
  <path fill="#BE1931" d="M23 15.9c-2.55 4.25 1.81 9.1 4.36 8.24 2.55-.851 3.4 1.7.851 2.55s-8.05-.396-11.1-3.4c-.851-.851-1.7-.851-1.7-.851l7.55-6.54z"/>
  <path fill="#EA596E" d="M9 17c2.55 4.25-1.37 11.4-3.92 10.5s-3.4 1.7-.851 2.55 8.05-.396 11.1-3.4c.851-.851 1.7-.851 1.7-.851zm18 0c-2.55 4.25 1.37 11.4 3.92 10.5 2.55-.851 3.4 1.7.851 2.55-2.55.851-8.05-.396-11.1-3.4-.851-.852-1.7-.852-1.7-.852z"/>
  <path fill="#F4ABBA" d="M30.9 32.4c-2.32.774-6.92-5.35-5.92-11.4 2-5-4-7.48-4-9.98 0-6.11-2.03-9.74-3.03-9.74s-2.97 3.63-2.97 9.74c0 2.5-6 4.98-4 9.98.505 3.03-.417 6.09-1.75 8.28l5.19 3.07c1.86-1.7 3.56-1.7 3.56-1.7s1.7 0 3.56 1.7c3.14 2.87 7.66 4.25 10.2 3.4 2.55-.85 1.7-4.25-.85-3.4z"/>
  <path fill="#BE1931" d="M11 22.3a1.117 1.117 0 0 0-.523.143c-.39.239-.801.378-1.11.648a10.17 10.17 0 0 1-.461 1.21c0 .052-.01.094-.008.15.604 1.85.21 3.37-.832 4.29-.632.557-1.17 1.07-1.62 1.59 2.17-.065 4.94-.848 7.15-2.29a4.1 4.1 0 0 0 .22-.936c.118-1.04-.232-2.31-.433-2.81-.374-.921-1.01-1.65-1.73-1.9a1.785 1.785 0 0 0-.65-.105z"/>
  <g fill="#EA596E">
    <path d="M11.8 15.9a.687.687 0 0 1-.291-.297.595.595 0 0 1 .293-.828c3.18-1.36 5.73-.032 5.84.025.322.172.453.556.291.86-.161.3-.551.405-.873.236-.092-.047-2.11-1.07-4.67.035a.68.68 0 0 1-.584-.031zM18.8 19.2a.684.684 0 0 1-.269-.316.596.596 0 0 1 .348-.807c3.26-1.14 5.72.357 5.82.422.309.194.413.586.232.877-.18.29-.578.368-.887.177-.09-.054-2.03-1.21-4.66-.282a.689.689 0 0 1-.583-.071zM11.1 22.3c.023.576-.005 1.15-.068 1.71-.007.057-.01.114-.018.17-.032.252-.076.499-.123.746-.013.07-.025.14-.04.209a12.434 12.434 0 0 1-.234.945c-.067.233-.138.462-.217.688l-.007.023c-.01.028-.022.053-.032.08-.287.804-.638 1.55-1.03 2.23v.003c.013.092.026.189.04.277l5.01 2.96c.025-.006.046-.007.072-.012.23-.208.459-.391.682-.551s.44-.297.648-.414c.83-.467 1.53-.627 1.9-.68.189-.027.295-.028.295-.028s1.01.01 2.32.785c1.38-.334 3.69-.893 4.07-.98.516-.12 1.07-.692.814-1.77-.25-1.08-1.12-1.48-1.61-1.37-.494.115-6.74 1.56-8.9 2.07l-1.44.334c-.54.127-.785-.11-.404-.512.508-.536.832-1.13.945-2.11.119-1.04-.231-2.31-.432-2.81-.374-.92-1.01-1.65-1.73-1.9a1.853 1.853 0 0 0-.51-.095z"/>
  </g>
  <path fill="#F4ABBA" d="M10.2 22.7c-.688.094-1.07.726-.764 1.66.604 1.85.207 3.37-.834 4.29-2.45 2.16-3.59 3.69-2.83 6.97.028.122.069.24.104.359h13c.04-.999-.861-1.25-.861-1.25s.97-.4 1.02-1.54c.038-.959-.994-1.43-.994-1.43s5.04-1.22 5.55-1.34c.516-.12 1.32-.614 1.07-1.69-.249-1.08-1.2-1.12-1.7-1-.494.115-6.74 1.56-8.9 2.07l-1.44.334c-.54.127-.785-.11-.404-.512.508-.536.834-1.13.947-2.11.119-1.04-.233-2.31-.434-2.81-.374-.921-1.01-1.65-1.73-1.9a1.702 1.702 0 0 0-.777-.096z"/>
  <g fill="#292F33">
    <circle cx="14.5" cy="21.5" r="2.5"/>
    <circle cx="21.5" cy="21.9" r="2.5"/>
    <path d="M15.2 26.5a.627.627 0 0 1-.214-.318.547.547 0 0 1 .405-.7c3.11-.7 5.2.935 5.29 1.01.263.21.315.58.119.827-.196.246-.568.275-.831.067-.076-.058-1.73-1.32-4.24-.753a.625.625 0 0 1-.524-.126z"/>
  </g>
</svg>
