<svg xmlns="http://www.w3.org/2000/svg" viewBox="0 0 36 36">
  <path fill="#EA596E" d="M31 11C31 5 18 0 18 0v25s13-8 13-14z"/>
  <path fill="#EA596E" d="M5 11C5 5 18 0 18 0v25c.001 0-13-8-13-14z"/>
  <path fill="#F4ABBA" d="M27 11c0 3.83-9 12-9 12s-9-8.17-9-12c0-5 9-11 9-11s9 6 9 11z"/>
  <path fill="#BE1931" d="M13 15.9c2.55 4.25-1.81 9.1-4.36 8.24-2.55-.851-3.4 1.7-.851 2.55s8.05-.396 11.1-3.4c.851-.851 1.7-.851 1.7-.851l-7.55-6.54z"/>
  <path fill="#BE1931" d="M23 15.9c-2.55 4.25 1.81 9.1 4.36 8.24 2.55-.851 3.4 1.7.851 2.55s-8.05-.396-11.1-3.4c-.851-.851-1.7-.851-1.7-.851l7.55-6.54z"/>
  <path fill="#EA596E" d="M9 17c2.55 4.25-1.37 11.4-3.92 10.5s-3.4 1.7-.851 2.55 8.05-.396 11.1-3.4c.851-.851 1.7-.851 1.7-.851l-7.99-8.81zm18 0c-2.55 4.25 1.37 11.4 3.92 10.5 2.55-.851 3.4 1.7.851 2.55-2.55.851-8.05-.396-11.1-3.4-.851-.852-1.7-.852-1.7-.852l7.99-8.81z"/>
  <path fill="#F4ABBA" d="M30.9 32.4c-2.32.774-6.92-5.35-5.92-11.4 2-5-4-7.48-4-9.98 0-6.11-2.03-9.74-3.03-9.74s-2.97 3.63-2.97 9.74c0 2.5-6 4.98-4 9.98 1 6-3.6 12.1-5.92 11.4-2.55-.851-3.4 2.55-.851 3.4 2.55.851 7.07-.533 10.2-3.4 1.86-1.7 3.56-1.7 3.56-1.7s1.7 0 3.56 1.7c3.14 2.87 7.66 4.25 10.2 3.4 2.55-.85 1.7-4.25-.85-3.4z"/>
  <circle fill="#292F33" cx="14.5" cy="23.5" r="2.5"/>
  <circle fill="#292F33" cx="21.5" cy="23.5" r="2.5"/>
  <path fill="#EA596E" d="M11.5 20.2a.582.582 0 0 0 .515.079c2.44-.789 4.09.321 4.16.37a.582.582 0 1 0 .669-.953c-.087-.062-2.17-1.5-5.18-.525a.58.58 0 0 0-.157 1.028zM24.7 19.3a.65.65 0 0 1-.51-.245c-.727-.912-2.24-1.71-2.77-1.71-.334 0-1 .475-1.36.817a.65.65 0 0 1-.908-.935c.204-.198 1.27-1.18 2.26-1.18 1.04 0 2.88 1.07 3.79 2.2a.651.651 0 0 1-.509 1.058z"/>
  <path fill="#292F33" d="M21 29.2h-6.1a.436.436 0 0 1 0-.872H21a.436.436 0 1 1 0 .872z"/>
</svg>
