<svg xmlns="http://www.w3.org/2000/svg" viewBox="0 0 36 36">
  <path fill="#FFCC4D" d="M12.7 15.8c2.55 4.26-1.81 9.12-4.36 8.24-2.55-.848-3.4 1.7-.848 2.55s8.08-.396 11-3.4c.848-.848 1.7-.848 1.7-.848l-7.55-6.54"/>
  <path fill="#FFCC4D" d="M22.7 15.8c-2.55 4.26 1.81 9.12 4.36 8.24 2.55-.848 3.41 1.7.848 2.55-2.55.848-8.08-.396-11-3.4-.848-.848-1.7-.848-1.7-.848l7.55-6.54"/>
  <g fill="#4289C1">
    <circle cx="25" cy="3.63" r="2.6"/>
    <circle cx="30.2" cy="10.1" r="3.9"/>
    <circle cx="10.9" cy="3.73" r="2.6"/>
    <circle cx="5.77" cy="10.2" r="3.9"/>
    <circle cx="5.77" cy="5.03" r="3.9"/>
    <circle cx="30.2" cy="4.92" r="3.9"/>
  </g>
  <path fill="#FFD983" d="M17.7-.013v.001c-.019.007-13 5-13 11 0 2.41 2.1 5.14 4.62 7.54 1.05 4.22-2.28 9.76-4.54 8.96-2.55-.848-3.4 1.7-.848 2.55 2.55.848 8.08-.395 11-3.4.848-.848 1.7-.848 1.7-.848l-3.83-4.23c2.61 2.03 4.84 3.41 4.84 3.42v.002l.002-.002.001.002v-.002c.007-.004 2.21-1.37 4.8-3.38l-3.8 4.19s.848 0 1.7.848c3.01 3.01 8.48 4.26 11 3.4 2.55-.848 1.7-3.4-.848-2.55-2.26.754-5.58-4.73-4.55-8.96 2.52-2.42 4.64-5.15 4.64-7.57 0-5.99-13-11-13-11v-.001h-.001-.002"/>
  <path fill="#FEE7B8" d="M17.7-.013s-8.96 6-8.96 11c0 1.34 1.1 3.21 2.54 5.07-.856 1.35-1.34 2.94-.538 4.93 1 6-3.6 12.2-5.92 11.4-2.55-.848-3.4 2.55-.848 3.4 2.55.848 7.06-.533 10.2-3.4 1.86-1.7 3.56-1.7 3.56-1.7s1.7 0 3.57 1.7c3.14 2.87 7.66 4.26 10.2 3.4 2.55-.848 1.7-4.26-.848-3.4-2.32.774-6.92-5.35-5.92-11.4.796-1.99.319-3.58-.536-4.93 1.43-1.86 2.54-3.74 2.54-5.07 0-5-8.96-11-8.96-11"/>
  <g fill="#4289C1">
    <circle cx="7.08" cy="8.95" r="2.6"/>
    <circle cx="9.03" cy="5.68" r="3.26"/>
    <circle cx="27" cy="5.58" r="3.26"/>
    <circle cx="28.9" cy="8.87" r="2.6"/>
  </g>
  <circle fill="#664500" cx="21.2" cy="23.5" r="2.5"/>
  <circle fill="#664500" cx="14.2" cy="23.5" r="2.5"/>
  <circle fill="#BB1A34" cx="17.7" cy="28.1" r="3.5"/>
</svg>
