<svg xmlns="http://www.w3.org/2000/svg" viewBox="0 0 36 36">
	<path fill="#EA596E" d="m5 11c0 6 13 14 13 14s13-8 13-14z"/>
	<path fill="#F4ABBA" d="m27 11c0 3.83-9 12-9 12s-9-8.17-9-12z"/>
	<path fill="#BE1931" d="m13 15.9c2.55 4.25-1.81 9.1-4.36 8.24-2.55-.851-3.4 1.7-.851 2.55s8.05-.396 11.1-3.4c.851-.851 1.7-.851 1.7-.851l-7.55-6.54z"/>
	<path fill="#BE1931" d="m23 15.9c-2.55 4.25 1.81 9.1 4.36 8.24 2.55-.851 3.4 1.7.851 2.55s-8.05-.396-11.1-3.4c-.851-.851-1.7-.851-1.7-.851l7.55-6.54z"/>
	<path fill="#EA596E" d="m9 17c2.55 4.25-1.37 11.4-3.92 10.5s-3.4 1.7-.851 2.55 8.05-.396 11.1-3.4c.851-.851 1.7-.851 1.7-.851l-7.99-8.81zm18 0c-2.55 4.25 1.37 11.4 3.92 10.5 2.55-.851 3.4 1.7.851 2.55-2.55.851-8.05-.396-11.1-3.4-.851-.852-1.7-.852-1.7-.852l7.99-8.81z"/>
	<path fill="#F4ABBA" d="m30.9 32.4c-2.32.774-6.92-5.35-5.92-11.4 2-5-4-7.48-4-9.98h-6c0 2.5-6 4.98-4 9.98 1 6-3.6 12.1-5.92 11.4-2.55-.851-3.4 2.55-.851 3.4 2.55.851 7.07-.533 10.2-3.4 1.86-1.7 3.56-1.7 3.56-1.7s1.7 0 3.56 1.7c3.14 2.87 7.66 4.25 10.2 3.4 2.55-.85 1.7-4.25-.85-3.4z"/>
	<circle fill="#292F33" cx="14.5" cy="23.5" r="2.5"/>
	<circle fill="#292F33" cx="21.5" cy="23.5" r="2.5"/>
	<path fill="#664500" d="m12.2 2.11c-3.09 0-4.81 5.68-5.45 8.36-1.09-.323-2.09-.845-2.8-1.71-2.15-2.61-5-.686-3.56 2.17 2.28 4.52 7.79 7.7 17.6 7.7 9.77 0 15.3-3.18 17.6-7.7 1.44-2.86-1.41-4.78-3.56-2.17-.711.861-1.71 1.38-2.8 1.71-.64-2.69-2.36-8.36-5.45-8.36-3.07 0-4.18 1.39-5.75 1.39-1.57 0-2.68-1.39-5.75-1.39z"/>
	<path fill="#825D0E" d="m22.5 4.66c-2.39 0-3.25 1.23-4.47 1.23-1.22 0-2.08-1.23-4.47-1.23-3.15 0-4.47 8.62-4.47 8.62s1.64 2.87 8.94 2.87c7.31 0 8.94-2.87 8.94-2.87s-1.32-8.62-4.47-8.62z"/>
	<path fill="#664500" d="m9.06 8.49s2.65 2.56 8.94 2.56c6.3 0 8.94-2.56 8.94-2.56v2.56s-2.84 2.56-8.94 2.56c-6.1 0-8.94-2.56-8.94-2.56z"/>
</svg>
