<svg xmlns="http://www.w3.org/2000/svg" viewBox="0 0 36 36">
	<path fill="#5C913B" d="M31 11C31 5 18 0 18 0v25s13-8 13-14z"/>
	<path fill="#5C913B" d="m5 11c0-6 13-11 13-11v25c.001 0-13-8-13-14z"/>
	<path fill="#77B255" d="m27 11c0 3.83-9 12-9 12s-9-8.17-9-12c0-5 9-11 9-11s9 6 9 11z"/>
	<path fill="#3E721D" d="m13 15.9c2.55 4.25-1.81 9.1-4.36 8.24-2.55-.851-3.4 1.7-.851 2.55s8.05-.396 11.1-3.4c.851-.851 1.7-.851 1.7-.851l-7.55-6.54z"/>
	<path fill="#3E721D" d="m23 15.9c-2.55 4.25 1.81 9.1 4.36 8.24 2.55-.851 3.4 1.7.851 2.55s-8.05-.396-11.1-3.4c-.851-.851-1.7-.851-1.7-.851l7.55-6.54z"/>
	<path fill="#5C913B" d="m9 17c2.55 4.25-1.37 11.4-3.92 10.5s-3.4 1.7-.851 2.55 8.05-.396 11.1-3.4c.851-.851 1.7-.851 1.7-.851l-7.99-8.81zm18 0c-2.55 4.25 1.37 11.4 3.92 10.5 2.55-.851 3.4 1.7.851 2.55-2.55.851-8.05-.396-11.1-3.4-.851-.852-1.7-.852-1.7-.852l7.99-8.81z"/>
	<path fill="#77B255" d="m30.9 32.4c-2.32.774-6.92-5.35-5.92-11.4 2-5-4-7.48-4-9.98 0-6.11-2.03-9.74-3.03-9.74s-2.97 3.63-2.97 9.74c0 2.5-6 4.98-4 9.98 1 6-3.6 12.1-5.92 11.4-2.55-.851-3.4 2.55-.851 3.4 2.55.851 7.07-.533 10.2-3.4 1.86-1.7 3.56-1.7 3.56-1.7s1.7 0 3.56 1.7c3.14 2.87 7.66 4.25 10.2 3.4 2.55-.85 1.7-4.25-.85-3.4z"/>
	<path fill="#292F33" d="m24 23.7c-.169-.207-4.68-1.04-4.71-1.04-.0815 0-.173.0615-.19.142-.151.709-.0359 1.43.322 2.03.36.605.923 1.02 1.59 1.16.16.0338.325.0511.488.0511 1.21 0 2.28-.923 2.55-2.19.0097-.0518-.0041-.108-.0373-.148z"/>
	<path fill="#292F33" d="m12 23.7c.169-.207 4.68-1.04 4.71-1.04.0815 0 .173.0615.19.142.151.709.0359 1.43-.322 2.03-.36.605-.923 1.02-1.59 1.16-.16.0338-.325.0511-.488.0511-1.21 0-2.28-.923-2.55-2.19-.0097-.0518.0041-.108.0373-.148z"/>
</svg>
