<svg xmlns="http://www.w3.org/2000/svg" viewBox="0 0 36 36">
	<path fill="#EA596E" d="m31 11c0-6-13-11-13-11v25s13-8 13-14z"/>
	<path fill="#EA596E" d="m5 11c0-6 13-11 13-11v25c.001 0-13-8-13-14z"/>
	<path fill="#F4ABBA" d="m27 11c0 3.83-9 12-9 12s-9-8.17-9-12c0-5 9-11 9-11s9 6 9 11z"/>
	<path fill="#BE1931" d="m13 15.9c2.55 4.25-1.81 9.1-4.36 8.24-2.55-.851-3.4 1.7-.851 2.55 2.55.851 8.05-.396 11.1-3.4.851-.851 1.7-.851 1.7-.851z"/>
	<path fill="#BE1931" d="m23 15.9c-2.55 4.25 1.81 9.1 4.36 8.24 2.55-.851 3.4 1.7.851 2.55s-8.05-.396-11.1-3.4c-.851-.851-1.7-.851-1.7-.851z"/>
	<path fill="#EA596E" d="m9 17c2.55 4.25-1.37 11.4-3.92 10.5s-3.4 1.7-.851 2.55 8.05-.396 11.1-3.4c.851-.851 1.7-.851 1.7-.851zm18 0c-2.55 4.25 1.37 11.4 3.92 10.5 2.55-.851 3.4 1.7.851 2.55-2.55.851-8.05-.396-11.1-3.4-.851-.852-1.7-.852-1.7-.852z"/>
	<path fill="#F4ABBA" d="m30.9 32.3c-2.32.774-6.92-5.35-5.92-11.4 2-5-4-7.48-4-9.98 0-6.11-2.03-9.74-3.03-9.74s-2.97 3.63-2.97 9.74c0 2.5-6 4.98-4 9.98 1 6-3.6 12.1-5.92 11.4-2.55-.851-3.4 2.55-.851 3.4 2.55.851 7.07-.533 10.2-3.4 1.86-1.7 3.56-1.7 3.56-1.7s1.7 0 3.56 1.7c3.14 2.87 7.66 4.25 10.2 3.4 2.55-.85 1.7-4.25-.85-3.4z"/>
	<path fill="#FFCC4D" d="m19.1 20.9 2.61.46 1.34-2.44c.148-.269.452-.413.753-.361.302.0534.537.293.585.597l.428 2.75 2.61.46c.308.054.545.301.586.61.0413.309-.121.61-.404.745l-2.34 1.11.429 2.76c.0477.308-.109.611-.386.752-.103.0517-.213.0764-.323.0764-.188 0-.373-.0735-.512-.214l-2.02-2.04-2.59 1.23c-.281.133-.617.0706-.83-.156-.214-.227-.256-.565-.106-.838l1.35-2.45-1.82-1.84c-.219-.222-.269-.561-.125-.838.146-.277.456-.427.761-.373z"/>
	<path fill="#FFCC4D" d="m16.9 20.9-2.61.46-1.34-2.44c-.148-.269-.452-.413-.753-.361-.302.0534-.537.293-.585.597l-.428 2.75-2.61.46c-.308.054-.545.301-.586.61-.0413.309.121.61.404.745l2.34 1.11-.429 2.76c-.0477.308.109.611.386.752.103.0517.213.0764.323.0764.188 0 .373-.0735.512-.214l2.02-2.04 2.59 1.23c.281.133.617.0706.83-.156.214-.227.256-.565.106-.838l-1.35-2.45 1.82-1.84c.219-.222.269-.561.125-.838-.146-.277-.456-.427-.761-.373z"/>
</svg>
