<svg xmlns="http://www.w3.org/2000/svg" viewBox="0 0 36 36">
	<path fill="#EA596E" d="M31 11C31 5 18 0 18 0v25s13-8 13-14z"/>
	<path fill="#EA596E" d="m5 11c0-6 13-11 13-11v25c.001 0-13-8-13-14z"/>
	<path fill="#F4ABBA" d="m27 11c0 3.83-9 12-9 12s-9-8.17-9-12c0-5 9-11 9-11s9 6 9 11z"/>
	<path fill="#BE1931" d="m13 15.9c2.55 4.25-1.81 9.1-4.36 8.24-2.55-.851-3.4 1.7-.851 2.55s8.05-.396 11.1-3.4c.851-.851 1.7-.851 1.7-.851l-7.55-6.54z"/>
	<path fill="#BE1931" d="m23 15.9c-2.55 4.25 1.81 9.1 4.36 8.24 2.55-.851 3.4 1.7.851 2.55s-8.05-.396-11.1-3.4c-.851-.851-1.7-.851-1.7-.851l7.55-6.54z"/>
	<path fill="#EA596E" d="m9 17c2.55 4.25-1.37 11.4-3.92 10.5s-3.4 1.7-.851 2.55 8.05-.396 11.1-3.4c.851-.851 1.7-.851 1.7-.851l-7.99-8.81zm18 0c-2.55 4.25 1.37 11.4 3.92 10.5 2.55-.851 3.4 1.7.851 2.55-2.55.851-8.05-.396-11.1-3.4-.851-.852-1.7-.852-1.7-.852l7.99-8.81z"/>
	<path fill="#F4ABBA" d="m30.9 32.4c-2.32.774-6.92-5.35-5.92-11.4 2-5-4-7.48-4-9.98 0-6.11-2.03-9.74-3.03-9.74s-2.97 3.63-2.97 9.74c0 2.5-6 4.98-4 9.98.491 2.95-.368 5.92-1.64 8.1-5.22 2.91-.457 10.3 5.08 3.25 1.86-1.7 3.56-1.7 3.56-1.7s1.7 0 3.56 1.7c3.14 2.87 7.66 4.25 10.2 3.4 2.55-.85 1.7-4.25-.85-3.4z"/>
	<path fill="#292F33" d="m16.8 23.1c-1.81-1.81-4.71-1.83-4.84-1.83-.307 0-.555.248-.555.554-.000555.307.248.556.554.557.0144 0 .866.0089 1.87.298-.123.145-.2.331-.2.536 0 .0683.0106.134.0261.198-1.51.51-2.52 1.25-2.58 1.3-.246.184-.295.532-.111.777.109.146.276.223.445.223.116 0 .233-.0361.333-.111.0206-.0156 2.1-1.56 4.67-1.56.224 0 .427-.136.513-.343.0861-.208.0383-.447-.121-.606z"/>
	<path fill="#292F33" d="m24.9 24.7c-.0633-.0472-1.07-.792-2.58-1.3.0144-.0639.0256-.129.0256-.198 0-.205-.0772-.391-.199-.536 1-.289 1.85-.298 1.87-.298.306-.0011.554-.25.554-.557-.000556-.306-.248-.554-.555-.554-.123 0-3.03.0211-4.84 1.83-.159.159-.207.398-.121.606.0856.207.289.343.513.343 2.55 0 4.65 1.54 4.67 1.56.1.0744.217.11.332.11.169 0 .336-.0772.446-.222.183-.246.133-.593-.112-.777z"/>
	<path fill="#CCD6DD" d="m18.3 25.9c1.54 1.54-2.29 8.93-3.02 9.67-.604.604-2.42.604-3.02-.604-.604-1.21-2.42 0-3.02-.604-1.21-1.21.604-1.81 0-3.02-.604-1.21-1.81-1.81-.604-3.02 1.21-1.21 4.23-.604 6.04-1.81 1.81-1.21 3.02-1.21 3.63-.604z"/>
	<path fill="#F5F8FA" d="m17.7 27c-.0092-.0357-.0305-.065-.0455-.0978-.0173-.038-.0288-.0777-.0541-.112-.0926-.125-.233-.215-.399-.239h-.000576c-.0788-.0109-.158-.0063-.234.0127-.0524.0132-.0972.0409-.143.0673-.0219.0121-.046.0173-.0662.0322-.0639.0472-.119.106-.16.176-1.69 2.81-5.72 4.57-5.76 4.59-.307.132-.448.487-.316.794.0984.229.321.366.555.366.0794 0 .16-.0156.238-.0489.128-.0552 2.33-1.02 4.27-2.71-1.19 2.2-3.01 3.45-3.03 3.47-.277.186-.351.56-.166.838.117.174.308.269.503.269.115 0 .231-.0328.334-.101.157-.105 3.86-2.62 4.49-7.06.0104-.0806.0052-.161-.0144-.237z"/>
</svg>
