<svg xmlns="http://www.w3.org/2000/svg" viewBox="0 0 36 36">
	<path fill="#EA596E" d="m31 11c0-6-13-11-13-11v25s13-8 13-14"/>
	<path fill="#EA596E" d="m5 11c0-6 13-11 13-11v25c.001 0-13-8-13-14"/>
	<path fill="#F4ABBA" d="m27 11c0 3.83-9 12-9 12s-9-8.17-9-12c0-5 9-11 9-11s9 6 9 11"/>
	<path fill="#BE1931" d="m13 15.9c2.55 4.25-1.81 9.1-4.36 8.24-2.55-.851-3.4 1.7-.851 2.55s8.05-.396 11.1-3.4c.851-.851 1.7-.851 1.7-.851l-7.55-6.54"/>
	<path fill="#BE1931" d="m23 15.9c-2.55 4.25 1.81 9.1 4.36 8.24 2.55-.851 3.4 1.7.851 2.55s-8.05-.396-11.1-3.4c-.851-.851-1.7-.851-1.7-.851l7.55-6.54"/>
	<path fill="#EA596E" d="m9 17c2.55 4.25-1.37 11.4-3.92 10.5s-3.4 1.7-.851 2.55 8.05-.396 11.1-3.4c.851-.851 1.7-.851 1.7-.851s-7.99-8.81-7.99-8.81m18 0c-2.55 4.25 1.37 11.4 3.92 10.5 2.55-.851 3.4 1.7.851 2.55-2.55.851-8.05-.396-11.1-3.4-.851-.852-1.7-.852-1.7-.852s7.99-8.81 7.99-8.81"/>
	<path fill="#F4ABBA" d="m30.9 32.4c-2.32.774-6.92-5.35-5.92-11.4 2-5-4-7.48-4-9.98 0-6.11-2.03-9.74-3.03-9.74s-2.97 3.63-2.97 9.74c0 2.5-6 4.98-4 9.98 1 6-3.6 12.1-5.92 11.4-2.55-.851-3.4 2.55-.851 3.4 2.55.851 7.07-.533 10.2-3.4 1.86-1.7 3.56-1.7 3.56-1.7s1.7 0 3.56 1.7c3.14 2.87 7.66 4.25 10.2 3.4 2.55-.85 1.7-4.25-.85-3.4"/>
	<g fill="#292F33">
		<path d="m23.9 24c-.0978.0794-.237.0822-.339.0078-.0067-.0056-.701-.501-2.06-.501-1.36 0-2.05.496-2.06.5-.102.0761-.241.0739-.339-.005-.0989-.0789-.132-.214-.0811-.33.0328-.075.833-1.83 2.48-1.83 1.64 0 2.44 1.76 2.48 1.83.0511.115.0178.249-.0806.328l5e-6-2.1e-5"/>
		<path d="m16.9 24c-.0978.0794-.237.0817-.339.0078-.0072-.0056-.701-.501-2.06-.501-1.36 0-2.05.496-2.06.5-.102.0761-.242.0739-.339-.005-.0989-.0789-.132-.214-.0811-.33.0333-.075.833-1.83 2.48-1.83 1.64 0 2.44 1.76 2.48 1.83.0511.115.0178.249-.08.328l-9e-6-2.2e-5"/>
		<path d="m20.8 27.6h-2.5c-3.11 0-3.89-.555-3.89-.555s.704 2 3.43 2.2c.0578.013.117.0205.178.0205h2.5c.458 0 1.11-.653 1.11-1.11 0-.458-.375-.555-.833-.555l-2e-5 5.9e-5"/>
	</g>
	<path fill="#EA596E" d="m15 18.3c.307.0115.546.27.534.577-.0122.306-.269.544-.575.533-.0867-.0022-1.98-.029-3.52 1.87-.193.237-.543.275-.782.0806-.238-.193-.275-.543-.0806-.782 1.91-2.34 4.32-2.28 4.43-2.27l1e-6 2e-6"/>
	<path fill="#EA596E" d="m20.7 19.4c.101-.0183 2.48-.424 4.7 1.63.226.208.239.56.0294.785-.208.226-.559.238-.785.03-1.79-1.66-3.67-1.36-3.75-1.35-.301.0517-.589-.15-.642-.451-.0528-.301.146-.587.447-.642l4e-6-1e-6"/>
	<path fill="#88C9F9" d="m21 28.4h-1.88c-.344 0-.626.282-.626.626v3.85c0 .344.282.626.626.626.344 0 .626-.282.626-.626v2.19c0 .517.423.939.939.939.517 0 .939-.423.939-.939v-6.02c0-.344-.282-.653-.626-.653"/>
</svg>
