<svg xmlns="http://www.w3.org/2000/svg" viewBox="0 0 36 36">
	<path fill="#BE1931" d="m23 15.9c-2.55 4.25 1.81 9.1 4.36 8.24 2.55-.851 3.4 1.7.851 2.55s-8.05-.396-11.1-3.4c-.851-.851-1.7-.851-1.7-.851z"/>
	<path fill="#BE1931" d="m13 15.9c2.55 4.25-1.81 9.1-4.36 8.24-2.55-.851-3.4 1.7-.851 2.55 2.55.851 8.05-.396 11.1-3.4.851-.851 1.7-.851 1.7-.851z"/>
	<path fill="#EA596E" d="m11.2 12.5c-2.81 0-4.55 1.46-4.64 2.53 3.41 4.97 11.2 9.81 11.4 9.91.153-.0949 7.95-4.94 11.4-9.91-.0974-1.07-1.84-2.53-4.64-2.53-1.8 0-4.81.79-6.72 1.05-1.91-.263-4.93-1.05-6.72-1.05z"/>
	<path fill="#EA596E" d="m9 17c2.55 4.25-1.37 11.4-3.92 10.5s-3.4 1.7-.851 2.55 8.05-.396 11.1-3.4c.851-.851 1.7-.851 1.7-.851zm18 0c-2.55 4.25 1.37 11.4 3.92 10.5 2.55-.851 3.4 1.7.851 2.55-2.55.851-8.05-.396-11.1-3.4-.851-.852-1.7-.852-1.7-.852z"/>
	<path fill="#F4ABBA" d="m21.5 32.3c3.14 2.87 7.66 4.25 10.2 3.4 2.55-.85 1.7-4.25-.852-3.4-2.32.774-6.92-5.35-5.92-11.3 1.51-3.78-1.54-6.12-3.12-8.11-1.35.246-2.75.547-3.84.693-1.1-.146-2.5-.447-3.84-.693-1.58 2-4.64 4.34-3.12 8.11 1 6-3.6 12.1-5.92 11.3-2.55-.851-3.4 2.55-.852 3.4 2.55.851 7.07-.533 10.2-3.4 1.77-1.62 3.34-1.69 3.53-1.7.192.0043 1.77.0817 3.53 1.7z"/>
	<path fill="#F4ABBA" d="m26.5 12.7c-.53-.133-1.11-.221-1.76-.221-1.8 0-4.81.79-6.75 1.05-1.94-.263-4.96-1.05-6.75-1.05-.65 0-1.23.0872-1.76.221 1.79 4.08 8.33 10 8.52 10.2.193-.148 6.73-6.12 8.52-10.2z"/>
	<path fill="#BE1931" d="m13.7 13.9c-.725-1.18-2.83-.899-2.44.847-.718-.86-3.29-.533-2.67.324.169.233.84.332 1.64.477 1.43.26 3.05 1.06 2.84 1.48l5.53 2.03 3.72-1.52c.906-.732 1.75-1.62 2.9-1.9.828-.182 1.7-.221 2.46-.627 1.34-.721-1.51-1.6-2.67-.75-.379-2.28-7.91-.0284-11.3-.361z"/>
	<path fill="#D93047" d="m29.7 8.97-11.7-1.3-12.1 1.3c3.27 1.07 7.68 5.71 7.71 8.39l1.57.421 6.61.163c1.47-3.36 4.82-7.65 7.86-8.97z"/>
	<path fill="#F4ABBA" d="m24.2 16.5c-.313.217-.701.48-1.31.761-.957.444-2.33-.764-3.18-.764-1.15 0-2.22 1.55-3.72.73-.84-.46-1.49-1.26-2.62-1.23-.917.0244-1.4.236-1.82.424.689.724 1.18 1.48 2.54 2.1l3.79 1.8 4.46-1.8z"/>
	<path fill="#E8596E" d="m31.1 3.58c-.24 0-.467.045-.686.109-.688-.845-1.72-1.4-2.9-1.4-.087 0-.169.02-.255.026-.734-.827-1.79-1.36-2.99-1.36-1.5 0-2.8.839-3.49 2.07-.346-.798-1.14-1.36-2.06-1.36-.718 0-1.35.342-1.76.865-.508-1.47-1.89-2.53-3.53-2.53-1.32 0-2.48.689-3.15 1.72-.184-.029-.368-.058-.56-.058-1.43 0-2.66.812-3.29 1.99-.203-.038-.41-.063-.624-.063-1.86 0-3.38 1.51-3.38 3.38s1.51 3.38 3.38 3.38c.588 0 1.14-.159 1.61-.425.376.282.838.456 1.34.456.145 0 .285-.016.422-.043.855 1.38 2.37 2.3 4.11 2.3 1.71 0 3.21-.885 4.07-2.22.72.882 1.8 1.46 3.03 1.46 1.82 0 3.33-1.24 3.78-2.91.034.001.065.01.099.01.283 0 .559-.031.826-.087.654.556 1.49.904 2.42.904 1.17 0 2.21-.551 2.9-1.4.219.064.446.109.686.109 1.36 0 2.46-1.1 2.46-2.46s-1.1-2.46-2.46-2.46z"/>
	<circle fill="#F3AAB9" cx="27.8" cy="5.62" r="2.12"/>
	<path fill="#F3AAB9" d="m19.9 5.76c0-1.19-.967-2.16-2.16-2.16-.368 0-.71.101-1.01.263-.251-.601-.844-1.02-1.54-1.02-.567 0-1.07.285-1.37.718-.67-.623-1.56-1.01-2.55-1.01-1.76 0-3.22 1.21-3.62 2.84-.365-.367-.87-.595-1.43-.595-1.11 0-2.01.901-2.01 2.01s.901 2.01 2.01 2.01c.703 0 1.32-.361 1.68-.907.517 1.08 1.53 1.87 2.75 2.08.39.67 1.11 1.12 1.94 1.12 1.07 0 1.97-.754 2.19-1.76.324.18.691.292 1.09.292 1.07 0 1.96-.749 2.19-1.75 1.04-.155 1.84-1.04 1.84-2.13z"/>
	<g fill="#292F33">
		<circle cx="14.5" cy="23.5" r="2.5"/>
		<circle cx="21.5" cy="23.5" r="2.5"/>
		<ellipse cx="18" cy="28.2" rx="1.65" ry="2.24"/>
	</g>
</svg>
