<svg xmlns="http://www.w3.org/2000/svg" viewBox="0 0 36 36">
	<g fill="#EA596E">
		<path d="m9.01 17.4 8.01 8.82s-.848-3e-5-1.7.85c-3.04 3-8.52 4.25-11.1 3.4l.85-2.55c2.55.83 6.46-6.27 3.91-10.5zm18 .0078c-2.55 4.25 1.37 11.4 3.92 10.5s3.4 1.7.852 2.55-8.05-.395-11.1-3.4c-.851-.851-1.7-.852-1.7-.852z"/>
		<path d="m31.1 11.4c0-5.99-13-11-13-11v25s13-7.99 13-14z"/>
		<path d="m5.07 11.4c0-5.99 13-11 13-11v25c.000922 0-13-7.99-13-14z"/>
	</g>
	<path fill="#F4ABBA" d="m27 11.4c0 3.83-8.99 12-8.99 12s-8.99-8.16-8.99-12c0-4.99 8.99-11 8.99-11s8.99 5.99 8.99 11z"/>
	<path fill="#F4ABBA" d="m18 1.29c1.11.44 1.5 1.75 1.94 2.78.82 2.3 1.04 4.75 1.08 7.17.444 1.69 2 2.72 2.96 4.11 1.28 1.53 1.88 3.74 1.01 5.63-.506 3.26.651 9.9 2.15 9.99 3.87.234-4.09-7 1-9.97 1.49-.738 3.61-.0424 4.66.515 2.37 1.25.969 4.46-1.4 3.21-.502-.267-1.04-1.17-1.62-.128-.682 1.21 6.32 11.2-2.37 11-1.93-.2-4.53-2.09-5.85-3.21-.987-.889-2.21-1.6-3.56-1.7-1.35.101-2.57.811-3.56 1.7-1.32 1.13-3.33 1.9-5.26 2.09-13.2 1.37-2.28-11.3-2.96-12.5-.589-1.04-1.13-.137-1.62.128-2.37 1.26-3.77-1.95-1.4-3.21 1.05-.557 3.17-1.25 4.66-.515 5.09 3.02-3.43 11.9.435 11.6 1.51-.0922 3.23-5.82 2.72-9.08-.862-1.88-.264-4.09 1.01-5.63.959-1.38 2.52-2.42 2.96-4.11.0323-2.42.258-4.88 1.08-7.17.433-1.02.823-2.33 1.94-2.78z"/>
	<circle fill="#292F33" cx="14.5" cy="23.8" r="2.5"/>
	<circle fill="#292F33" cx="21.6" cy="23.8" r="2.5"/>
	<g fill="#D1D3D4">
		<path d="m5.86 14.2s-3.83 1.39-4.21 6.22c0 0-2.4-4.82-.522-10.1z"/>
		<path d="m20 5.98s-2.76-3-7.36-1.5c0 0 3.52-4.07 9.17-4.39z"/>
		<path d="m29.2 16.3s1.97-3.57-.923-7.46c0 0 4.98 2.05 7.08 7.3z"/>
	</g>
	<circle fill="#5C913B" cx="4.57" cy="11" r="3.5"/>
	<circle fill="#BE1931" cx="22.5" cy="3.5" r="3.5"/>
	<circle fill="#3B88C3" cx="32.4" cy="17.9" r="3.5"/>
</svg>
