<svg xmlns="http://www.w3.org/2000/svg" viewBox="0 0 36 36">
  <path fill="#EA596E" d="M30.2 12.5c.592 2.68-2.82 4.65-5.68 4.65s-5.18-2.22-5.18-4.96c0-2.74 2.32-4.96 5.18-4.96s4.9 1.75 5.68 5.27z"/>
  <path fill="#6D6E71" d="M29 2.36A1.36 1.36 0 0 0 27.64 1h-4.27a1.36 1.36 0 0 0-1.36 1.36v15.3c0 .754 2.61 1.36 3.36 1.36h2.27A1.36 1.36 0 0 0 29 17.66z"/>
  <path fill="#231F20" d="M28 2.36A1.36 1.36 0 0 0 26.64 1h-4.27a1.36 1.36 0 0 0-1.36 1.36v15.3c0 .754.611 1.36 1.36 1.36h4.27A1.36 1.36 0 0 0 28 17.66z"/>
  <path fill="#88C9F9" d="M22 3h5v13h-5z"/>
  <path fill="#F4ABBA" d="M29 9.66c-.117 1.2.274 3.36-1.29 4.93-1.2 1.22-2.21 1.55-2.88 2.35-.69.822-1.02 1.81-.865 2.2-.014.03-.035.05-.047.082.286 1.61.501 2.84.336 3.05 0 0-2.51 4.71-4.99 5.71-3.4 1.37-9.57-.811-11.9-1.73-.568-.226-.902-.375-.902-.375v10.1s12.8-.039 14.7 0c1.33.028 3.33-1.46 4.59-2.52 2.13-1.77 4.28-8.39 4.79-10.7.25-.759.436-4.54.057-7.8v-.014a26.477 26.477 0 0 0-.26-1.68c-.253-1.38-.66-2.88-1.33-3.68z"/>
</svg>
