<svg xmlns="http://www.w3.org/2000/svg" viewBox="0 0 36 36">
  <g fill="#EA596E">
    <path d="M27.7 18.4c-2.76 4.6 1.48 12.3 4.24 11.4l.921 2.76c-2.76.921-8.71-.429-12-3.68-.921-.921-1.84-.921-1.84-.921zm-19.5.001c2.76 4.6-1.48 12.3-4.24 11.4l-.921 2.76c2.76.921 8.71-.429 12-3.68.921-.92 1.84-.92 1.84-.92z"/>
    <path d="M32.1 11.9C32.1 5.41 18 0 18 0v27.1s14.1-8.66 14.1-15.2z"/>
    <path d="M3.93 11.9C3.93 5.41 18.03 0 18.03 0v27.1c.001 0-14.1-8.66-14.1-15.2z"/>
  </g>
  <path fill="#F4ABBA" d="M27.7 11.9c0 4.15-9.74 13-9.74 13s-9.74-8.84-9.74-13C8.22 6.49 17.96 0 17.96 0s9.74 6.49 9.74 11.9z"/>
  <path fill="#F4ABBA" d="M18 0c-1.2.477-1.63 1.9-2.1 3.01-.889 2.49-1.13 5.15-1.17 7.77-.481 1.83-2.17 2.95-3.21 4.45-1.39 1.66-2.04 4.05-1.1 6.1.548 3.53-1.32 9.74-2.95 9.84-4.2.254 5.05-9.38-.471-12.6-1.61-.8-3.91-.046-5.05.558-2.57 1.36-1.05 4.84 1.52 3.48.544-.289 1.13-1.27 1.76-.139.739 1.31-11.1 15 3.21 13.5 2.09-.217 4.27-1.05 5.7-2.27 1.07-.964 2.4-1.73 3.86-1.84 1.46.109 2.79.879 3.86 1.84 1.43 1.22 3.61 2.06 5.7 2.27 14.3 1.49 2.47-12.2 3.21-13.5.638-1.13 1.22-.149 1.76.139 2.57 1.37 4.09-2.11 1.52-3.48-1.14-.604-3.44-1.36-5.05-.558-5.52 3.27 3.72 12.9-.471 12.6-1.64-.1-3.5-6.31-2.95-9.84.934-2.04.286-4.43-1.1-6.1-1.04-1.5-2.73-2.62-3.21-4.45-.035-2.62-.28-5.29-1.17-7.77-.469-1.11-.892-2.53-2.1-3.01z"/>
  <g fill="#292F33">
    <circle cx="14.2" cy="25.4" r="2.71"/>
    <circle cx="21.8" cy="25.4" r="2.71"/>
    <path d="M19.7 30.7h-.541a.54.54 0 1 1 0-1.082h.541a.54.54 0 1 1 0 1.082z"/>
  </g>
</svg>
