<svg xmlns="http://www.w3.org/2000/svg" viewBox="0 0 36 36">
	<path fill="#EA596E" d="M31 11C31 5 18 0 18 0v25s13-8 13-14z"/>
	<path fill="#EA596E" d="m5 11c0-6 13-11 13-11v25c.001 0-13-8-13-14z"/>
	<path fill="#F4ABBA" d="m27 11c0 3.83-9 12-9 12s-9-8.17-9-12c0-5 9-11 9-11s9 6 9 11z"/>
	<path fill="#BE1931" d="m13 15.9c2.55 4.25-1.81 9.1-4.36 8.24-2.55-.851-3.4 1.7-.851 2.55s8.05-.396 11.1-3.4c.851-.851 1.7-.851 1.7-.851l-7.55-6.54z"/>
	<path fill="#BE1931" d="m23 15.9c-2.55 4.25 1.81 9.1 4.36 8.24 2.55-.851 3.4 1.7.851 2.55s-8.05-.396-11.1-3.4c-.851-.851-1.7-.851-1.7-.851l7.55-6.54z"/>
	<path fill="#EA596E" d="m9 17c2.55 4.25-1.37 11.4-3.92 10.5s-3.4 1.7-.851 2.55 8.05-.396 11.1-3.4c.851-.851 1.7-.851 1.7-.851l-7.99-8.81zm18 0c-2.55 4.25 1.37 11.4 3.92 10.5 2.55-.851 3.4 1.7.851 2.55-2.55.851-8.05-.396-11.1-3.4-.851-.852-1.7-.852-1.7-.852l7.99-8.81z"/>
	<path fill="#F4ABBA" d="m30.9 32.4c-2.32.774-6.92-5.35-5.92-11.4 2-5-4-7.48-4-9.98 0-6.11-2.03-9.74-3.03-9.74s-2.97 3.63-2.97 9.74c0 2.5-6 4.98-4 9.98 1 6-3.6 12.1-5.92 11.4-2.55-.851-3.4 2.55-.851 3.4 2.55.851 7.07-.533 10.2-3.4 1.86-1.7 3.56-1.7 3.56-1.7s1.7 0 3.56 1.7c3.14 2.87 7.66 4.25 10.2 3.4 2.55-.85 1.7-4.25-.85-3.4z"/>
	<g fill="#292F33">
		<path d="m23.4 25.1c-.262 0-.506-.166-.593-.428-.127-.374-.637-1.45-1.28-1.45-.664 0-1.18 1.14-1.28 1.45-.109.327-.46.505-.791.395-.327-.109-.504-.463-.395-.791.0781-.236.815-2.3 2.47-2.3s2.39 2.07 2.47 2.3c.109.328-.0675.682-.395.791-.065.0225-.131.0325-.197.0325z"/>
		<path d="m16.4 25.1c-.262 0-.506-.166-.593-.427-.127-.374-.636-1.45-1.28-1.45-.664 0-1.18 1.14-1.28 1.45-.109.327-.461.505-.79.395-.327-.109-.504-.463-.395-.79.0781-.236.815-2.3 2.47-2.3s2.39 2.07 2.47 2.3c.109.327-.0675.682-.395.79-.0662.0225-.133.0325-.199.0325z"/>
		<path d="m22 27.2c-.077-.0696-.192-.0739-.275-.0125-.0169.0125-1.7 1.25-3.76 1.25-2.06 0-3.74-1.24-3.76-1.25-.0826-.0614-.198-.0562-.275.0125-.0765.0692-.0938.183-.0406.272.0558.093 1.39 2.27 4.08 2.27 2.69 0 4.02-2.17 4.08-2.27.0532-.0886.0363-.202-.0406-.272z"/>
	</g>
	<g fill="#EA596E">
		<path d="m25 27.5c-1.27 0-2.3 1.03-2.3 2.3 0 .18.0235.353.0625.521.319 1.98 2.52 4.08 4.11 4.65 1.03-.375 2.32-1.4 3.19-2.62-1.34-.368-2.99-2.18-4.06-4.62-.301-.146-.637-.234-.994-.234z"/>
		<path d="m22.7 4.15c-1.69 0-3.06 1.37-3.06 3.06 0 .24.03.471.082.695.426 2.64 3.36 5.43 5.47 6.2.264-.0962.542-.223.826-.379.577-1.01.963-1.96.963-2.72 0-2.28-1.88-4.77-3.92-6.81-.119-.0141-.232-.0449-.355-.0449z"/>
		<path d="m10.7 25.8c-1.07 4.03-3.95 7.11-5.64 6.54-1.13-.377-1.92.0813-2.24.781.947 1.19 2.15 2.21 3.27 2.85.83-.0174 1.73-.168 2.67-.445 1.92-1.32 3.88-3.6 4.24-5.8.058-.244.0898-.495.0898-.754 0-1.51-1.01-2.77-2.39-3.17z"/>
	</g>
	<g fill="#DD2E44">
		<path d="m31.7 29.3c0-1.27-1.03-2.3-2.3-2.3-.771 0-1.45.38-1.87.962-.417-.582-1.1-.962-1.87-.962-1.27 0-2.3 1.03-2.3 2.3 0 .18.023.354.062.522.319 1.98 2.52 4.08 4.1 4.65 1.58-.574 3.79-2.67 4.1-4.65.04-.168.063-.342.063-.522z"/>
		<path d="m31.6 6.79c0-1.69-1.37-3.06-3.06-3.06-1.03 0-1.93.507-2.49 1.28-.556-.775-1.46-1.28-2.49-1.28-1.69 0-3.06 1.37-3.06 3.06 0 .24.03.472.082.696.426 2.64 3.36 5.43 5.47 6.2 2.11-.766 5.04-3.55 5.47-6.2.053-.225.083-.457.083-.697z"/>
		<path d="m12 28.5c0-1.83-1.49-3.32-3.32-3.32-1.11 0-2.09.549-2.7 1.39-.602-.84-1.58-1.39-2.7-1.39-1.83 0-3.32 1.49-3.32 3.32 0 .26.033.511.089.754.461 2.86 3.64 5.88 5.93 6.71 2.28-.829 5.46-3.85 5.93-6.71.058-.244.091-.496.091-.755z"/>
	</g>
</svg>
