<svg xmlns="http://www.w3.org/2000/svg" viewBox="0 0 36 36">
	<path fill="#D99E82" d="m.506.00228c-1.04 11 14.9 27.3 18.2 30.6 3.19 3.19 5.62-.995 8.95.433l4.8 1.49c-9.83-8.92-23.1-21.9-32-32.6z"/>
	<path fill="#F2C994" d="m.506.00228 32.1 30.8c-4.05-8.75 1.3-8.78-1.78-12.4-2.47-2.9-18.5-18.6-30.3-18.4z"/>
	<path fill="#FFE8B6" d="m.506.00228c1.46 10.7 15.2 26.2 18.5 29.5 3.37 3.37 3.91-2.44 12.7 1.61-4.05-8.75 1.75-9.3-1.61-12.7-3.31-3.31-18.8-17-29.5-18.5z"/>
	<path fill="#D99E82" d="m.506.00228c3.87 4.84 14.8 18.2 27 30.4l5.37 5.37c.904.494 1.42-.106 1.74-.424.317-.317 1.37-1.11.619-2.77l-5.57-4.34z"/>
	<path fill="#F2C994" d="m.506.00228c14.5 16.2 15.3 15.3 27.6 27.6l4.89 6.4c1.47.352 2.35-.843 2.3-1.36-.465-1.28-2.97-3.71-5.51-6.17-12.1-12.7-23.1-21.8-29.3-26.4z"/>
	<path fill="#FFE8B6" d="m.506.00228c14.5 16.2 15 17.2 27.2 29.4l5.37 5.37c.904.494 1.42-.106 1.74-.424.317-.317.916-.833.422-1.74l-5.37-5.37c-12.2-12.3-13.2-12.7-29.4-27.2z"/>
</svg>
