<svg xmlns="http://www.w3.org/2000/svg" viewBox="0 0 36 36">
  <path fill="#EA596E" d="M31 11C31 5 18 0 18 0v25s13-8 13-14"/>
  <path fill="#EA596E" d="M5 11C5 5 18 0 18 0v25c.001 0-13-8-13-14"/>
  <path fill="#F4ABBA" d="M27 11c0 3.83-9 12-9 12s-9-8.17-9-12c0-5 9-11 9-11s9 6 9 11"/>
  <path fill="#BE1931" d="M13 15.9c2.55 4.25-1.81 9.1-4.36 8.24-2.55-.851-3.4 1.7-.851 2.55s8.05-.396 11.1-3.4c.851-.851 1.7-.851 1.7-.851l-7.55-6.54"/>
  <path fill="#BE1931" d="M23 15.9c-2.55 4.25 1.81 9.1 4.36 8.24 2.55-.851 3.4 1.7.851 2.55s-8.05-.396-11.1-3.4c-.851-.851-1.7-.851-1.7-.851l7.55-6.54"/>
  <path fill="#EA596E" d="M9 17c2.55 4.25-1.37 11.4-3.92 10.5s-3.4 1.7-.851 2.55 8.05-.396 11.1-3.4c.851-.851 1.7-.851 1.7-.851l-7.99-8.81m18 0c-2.55 4.25 1.37 11.4 3.92 10.5 2.55-.851 3.4 1.7.851 2.55-2.55.851-8.05-.396-11.1-3.4-.851-.852-1.7-.852-1.7-.852l7.99-8.81"/>
  <path fill="#F4ABBA" d="M30.9 32.4c-2.32.774-6.92-5.35-5.92-11.4 2-5-4-7.48-4-9.98 0-6.11-2.03-9.74-3.03-9.74s-2.97 3.63-2.97 9.74c0 2.5-6 4.98-4 9.98 1 6-3.6 12.1-5.92 11.4-2.55-.851-3.4 2.55-.851 3.4 2.55.851 7.07-.533 10.2-3.4 1.86-1.7 3.56-1.7 3.56-1.7s1.7 0 3.56 1.7c3.14 2.87 7.66 4.25 10.2 3.4 2.55-.85 1.7-4.25-.85-3.4"/>
  <path fill="#EA596E" d="M16.2 20a.638.638 0 0 1-.513-.256c-.6-.8-1.23-1.23-1.87-1.27-.842-.058-1.53.573-1.66.701a.64.64 0 0 1-.906 0 .64.64 0 0 1 0-.906c.277-.277 1.29-1.17 2.65-1.07 1.03.073 1.97.673 2.8 1.78a.64.64 0 0 1-.512 1.02"/>
  <g fill="#292F33">
    <circle cx="14.5" cy="23.5" r="2.5"/>
    <path d="M19.7 29.2a.52.52 0 0 1-.234-.056c-.902-.45-1.78-.45-2.68 0a.524.524 0 1 1-.469-.938c1.2-.6 2.42-.6 3.62 0a.526.526 0 0 1-.235.995M26.6 35a.56.56 0 0 1-.561-.561v-10.7a.56.56 0 1 1 1.12 0v10.7a.56.56 0 0 1-.561.56"/>
  </g>
  <circle fill="#F4F7F9" cx="22.4" cy="23.5" r="3.64"/>
  <path fill="#67757F" d="M26.6 22.7c-.029 0-.056.006-.084.009a4.21 4.21 0 0 0-4.12-3.37c-2.32 0-4.2 1.89-4.2 4.2s1.89 4.2 4.2 4.2c1.84 0 3.4-1.18 3.97-2.83a1.12 1.12 0 1 0 .236-2.21m-4.2 3.92c-1.7 0-3.08-1.38-3.08-3.08s1.38-3.08 3.08-3.08 3.08 1.38 3.08 3.08-1.38 3.08-3.08 3.08"/>
  <path fill="#BDDDF4" d="M24.1 20.9a3.08 3.08 0 0 0-4.26 4.26l4.26-4.26m-2.99 5.37a3.08 3.08 0 0 0 4.1-4.1l-4.1 4.1"/>
</svg>
