<svg xmlns="http://www.w3.org/2000/svg" viewBox="0 0 36 36">
	<path fill="#269" d="m13 15.9c2.55 4.25-1.81 9.1-4.36 8.25s-3.4 1.7-.852 2.55c2.33.775 7.1-.198 10.2-2.66 3.1 2.46 7.88 3.43 10.2 2.66 2.55-.851 1.7-3.4-.85-2.55-2.55.851-6.91-3.99-4.36-8.25l-5 4.33z"/>
	<path fill="#55ACEE" d="m18 8.43e-5v.00156c-5.55 2.76-11.2 15.4-11.2 15.4s1.75 2.11 2.79 3.1c1.05 4.22-2.28 9.72-4.54 8.97-2.55-.851-3.4 1.7-.85 2.55 2.55.851 8.05-.395 11.1-3.4.85-.85 1.7-.85 1.7-.85l-3.83-4.23c2.61 2.03 4.84 3.41 4.84 3.41h.0032c.007-.0043 2.21-1.37 4.8-3.38l-3.8 4.19s.851 0 1.7.85c3.01 3.01 8.51 4.25 11.1 3.4 2.55-.85 1.7-3.4-.85-2.55-2.26.753-5.58-4.73-4.55-8.95 1.12-1.07 2.96-3.34 2.96-3.34s-5.23-12.7-11.3-15.2v-.00156h-.0016z"/>
	<path fill="#88C9F9" d="m18 8.43e-5s-9 6-9 11c0 1.34 1.11 3.21 2.54 5.07-.855 1.35-1.33 2.94-.537 4.93 1 6-3.6 12.1-5.92 11.3-2.55-.851-3.4 2.55-.85 3.4 2.55.851 7.07-.533 10.2-3.4 1.86-1.7 3.56-1.7 3.56-1.7s1.7.0011 3.56 1.7c3.14 2.87 7.66 4.25 10.2 3.4 2.55-.85 1.7-4.25-.85-3.4-2.32.774-6.92-5.35-5.92-11.3.796-1.99.319-3.58-.536-4.93 1.43-1.86 2.54-3.73 2.54-5.07 0-5-9-11-9-11z"/>
	<path fill="#744EAA" d="m18.1 8.12s9.77 2.54 11.3 7.11c.653-1.39 1.03-4.45 1.03-6.17 0-5.24-4.1-9.04-10.8-9.04h-3.07c-5.63 0-10.8 3.8-10.8 9.04 0 1.72.378 5 1.03 6.4 1.5-4.57 11.3-7.34 11.3-7.34z"/>
	<path fill="#CBB7EA" d="m30.3 9.81c-1.91-1.52-4.16-2.78-6.3-3.5-.499-.167-1.03.104-1.2.597-.165.496.102 1.03.598 1.2 2.28.758 4.77 2.28 6.67 4.01.123-.851.206-1.81.229-2.31zm-24.4 1.55c2.74-1.96 11.9-7.87 22.4-7.95-.646-.744-1.34-1.28-2.16-1.79-9.16.68-17 5.24-20.4 7.54.0137.622.0628 1.38.153 2.19z"/>
	<path fill="#CBB7EA" d="m29.6 5.32c-.0382-.00546-.115 0-.154 0-3.87 0-7.79.97-11.6 2.88.19-.0574.301-.0874.301-.0874s1.11.29 2.65.848c2.9-1.15 5.82-1.75 8.7-1.75.277 0 .552.0191.783.071-.102-.572-.339-1.38-.628-1.96zm-23.5 1.57c3.38-2.17 9.7-5.29 16.9-6.53-1.09-.322-2.11-.344-3.29-.344h-2.41c-3.72 1.45-7.04 2.54-9.59 3.94-.732.926-1.28 1.79-1.57 2.94z"/>
	<path fill="#FFD983" d="m18.2 3.95c1.21 0 2.2.992 2.2 2.2v2.26c0 1.21-.992 2.2-2.2 2.2-1.21 0-2.2-.992-2.2-2.2v-2.26c0-1.21.992-2.2 2.2-2.2z"/>
	<path fill="#FFAC33" d="m18.2 5.32c.661 0 1.2.541 1.2 1.2v1.51c0 .661-.541 1.2-1.2 1.2-.661 0-1.2-.541-1.2-1.2v-1.51c.0014-.663.542-1.2 1.2-1.2z"/>
	<circle fill="#662113" cx="21.5" cy="23.5" r="2.5"/>
	<circle fill="#662113" cx="14.5" cy="23.5" r="2.5"/>
</svg>
