<?xml version="1.0" encoding="UTF-8" standalone="no"?>
<svg
   xmlns:dc="http://purl.org/dc/elements/1.1/"
   xmlns:cc="http://creativecommons.org/ns#"
   xmlns:rdf="http://www.w3.org/1999/02/22-rdf-syntax-ns#"
   xmlns:svg="http://www.w3.org/2000/svg"
   xmlns="http://www.w3.org/2000/svg"
   xmlns:sodipodi="http://sodipodi.sourceforge.net/DTD/sodipodi-0.dtd"
   xmlns:inkscape="http://www.inkscape.org/namespaces/inkscape"
   viewBox="0 0 500 250"
   version="1.1"
   id="svg43"
   sodipodi:docname="books.svg"
   inkscape:version="0.92.3 (2405546, 2018-03-11)"
   inkscape:export-filename="E:\Users\Richard\Documents\Squimoji\Squimoji\meta\twitter\tweet_books.png"
   inkscape:export-xdpi="96"
   inkscape:export-ydpi="96">
  <metadata
     id="metadata49">
    <rdf:RDF>
      <cc:Work
         rdf:about="">
        <dc:format>image/svg+xml</dc:format>
        <dc:type
           rdf:resource="http://purl.org/dc/dcmitype/StillImage" />
      </cc:Work>
    </rdf:RDF>
  </metadata>
  <defs
     id="defs47" />
  <sodipodi:namedview
     pagecolor="#ffffff"
     bordercolor="#666666"
     borderopacity="1"
     objecttolerance="10"
     gridtolerance="10"
     guidetolerance="10"
     inkscape:pageopacity="0"
     inkscape:pageshadow="2"
     inkscape:window-width="640"
     inkscape:window-height="480"
     id="namedview45"
     showgrid="false"
     inkscape:zoom="1.3081475"
     inkscape:cx="254.48274"
     inkscape:cy="23.522606"
     inkscape:current-layer="svg43" />
  <rect
     fill="#BBDDF5"
     width="500"
     height="250"
     rx="12"
     ry="12"
     id="background" />
  <g
     fill="#292F33"
     aria-label="@squidmoji"
     id="text_container">
    <path
       d="m183 215h-.0911q-1.33 4.34-5.23 4.34-2.5 0-4.03-1.84-1.51-1.84-1.51-4.96 0-4.12 2.1-6.84 2.11-2.73 5.54-2.73 1.31 0 2.33.674 1.04.674 1.33 1.7h.0729q.0365-.51.182-2.1h2.28q-.857 10-.857 10.2 0 3.77 2.17 3.77 1.97 0 3.26-2.13 1.31-2.13 1.31-5.52 0-5.01-3.17-8.18-3.17-3.17-8.79-3.17-5.41 0-8.95 3.79-3.54 3.79-3.54 9.48 0 5.6 3.35 9.04 3.37 3.43 9.08 3.43 4.5 0 7.69-1.49v2.26q-3.15 1.35-7.88 1.35-6.64 0-10.7-3.99-4.05-4.01-4.05-10.5 0-6.67 4.25-11.1 4.27-4.39 10.9-4.39 6.2 0 10.3 3.68 4.07 3.68 4.07 9.61 0 4.34-2.15 7.13-2.13 2.77-5.21 2.77-3.99 0-4.01-4.34zm-3.26-9.92q-2.26 0-3.66 2.15-1.39 2.15-1.39 5.34 0 2.15.93 3.39.948 1.24 2.52 1.24 2.26 0 3.57-2.24 1.33-2.26 1.33-5.98 0-3.9-3.3-3.9z"
       id="path24" />
    <path
       d="m199 222v-3.21q2.44 1.8 5.38 1.8 3.94 0 3.94-2.62 0-.747-.346-1.26-.328-.529-.911-.93-.565-.401-1.35-.711-.766-.328-1.66-.674-1.24-.492-2.19-.984-.93-.51-1.57-1.13-.62-.638-.948-1.44-.31-.802-.31-1.88 0-1.31.602-2.32.602-1.02 1.6-1.7 1-.693 2.28-1.04 1.29-.346 2.66-.346 2.42 0 4.34.839v3.03q-2.06-1.35-4.74-1.35-.839 0-1.51.201-.674.182-1.17.529-.474.346-.747.839-.255.474-.255 1.06 0 .729.255 1.22.273.492.784.875.51.383 1.24.693.729.31 1.66.674 1.24.474 2.22.984.984.492 1.68 1.13.693.62 1.06 1.44.383.82.383 1.95 0 1.39-.62 2.41-.602 1.02-1.62 1.7-1.02.674-2.35 1-1.33.328-2.79.328-2.88 0-4.99-1.11z"
       id="path26" />
    <path
       d="m232 231h-2.99v-11.8h-.0729q-1.95 3.65-6.38 3.65-3.52 0-5.65-2.5-2.11-2.52-2.11-6.84 0-4.65 2.33-7.42 2.33-2.79 6.27-2.79 3.83 0 5.54 3.03h.0729v-2.59h2.99zm-2.99-17v-2.72q0-2.3-1.51-3.88-1.49-1.59-3.81-1.59-2.7 0-4.27 2.01-1.57 1.99-1.57 5.61 0 3.23 1.51 5.07 1.51 1.82 3.9 1.82 2.62 0 4.17-1.79 1.57-1.8 1.57-4.54z"
       id="path28" />
    <path
       d="m253 222h-2.99v-2.95h-.0729q-1.86 3.39-5.76 3.39-6.67 0-6.67-7.95v-11.2h2.97v10.7q0 5.91 4.52 5.91 2.19 0 3.59-1.6 1.42-1.62 1.42-4.23v-10.8h2.99z"
       id="path30" />
    <path
       d="m261 199q-.802 0-1.37-.547-.565-.547-.565-1.39 0-.839.565-1.39.565-.565 1.37-.565.82 0 1.39.565.583.547.583 1.39 0 .802-.583 1.37-.565.565-1.39.565zm1.46 23.4h-2.99v-18.7h2.99z"
       id="path32" />
    <path
       d="m295 222h-2.99v-10.7q0-3.1-.966-4.48-.948-1.39-3.21-1.39-1.91 0-3.26 1.75-1.33 1.75-1.33 4.19v10.6h-2.99v-11.1q0-5.51-4.25-5.51-1.97 0-3.24 1.66-1.28 1.64-1.28 4.28v10.6h-2.99v-18.7h2.99v2.95h.0729q1.99-3.39 5.8-3.39 1.91 0 3.34 1.08 1.42 1.06 1.95 2.79 2.08-3.86 6.2-3.86 6.16 0 6.16 7.6z"
       id="path34" />
    <path
       d="m308 223q-4.14 0-6.62-2.61-2.46-2.62-2.46-6.95 0-4.7 2.57-7.35 2.57-2.64 6.95-2.64 4.17 0 6.51 2.57 2.35 2.57 2.35 7.13 0 4.47-2.53 7.16-2.52 2.68-6.76 2.68zm.219-17q-2.88 0-4.56 1.97-1.68 1.95-1.68 5.4 0 3.32 1.7 5.23 1.7 1.91 4.54 1.91 2.9 0 4.45-1.88 1.57-1.88 1.57-5.34 0-3.5-1.57-5.4-1.55-1.9-4.45-1.9z"
       id="path36" />
    <path
       d="m326 221q0 4.59-1.86 7.07-1.84 2.5-5.29 2.5-1.28 0-2.48-.583v-2.79q1.35.82 2.55.82 4.08 0 4.08-6.53v-18.4h2.99zm-1.46-22.6q-.802 0-1.37-.547-.565-.547-.565-1.39 0-.839.565-1.39.565-.565 1.37-.565.82 0 1.39.565.583.547.583 1.39 0 .802-.583 1.37-.565.565-1.39.565z"
       id="path38" />
    <path
       d="m333 199q-.802 0-1.37-.547-.565-.547-.565-1.39 0-.839.565-1.39.565-.565 1.37-.565.82 0 1.39.565.583.547.583 1.39 0 .802-.583 1.37-.565.565-1.39.565zm1.46 23.4h-2.99v-18.7h2.99z"
       id="path40" />
  </g>
  <g
     id="g1046"
     transform="matrix(2.0833333,0,0,2.0833333,82.198652,15.902079)">
    <path
       id="path1020"
       d="m 35,26 c 0,2.209 -1.791,4 -4,4 H 5 C 2.791,30 1,28.209 1,26 V 6.313 C 1,4.104 6.791,0 9,0 H 29.625 C 32.719,0 35,2.312 35,5.375 Z"
       inkscape:connector-curvature="0"
       style="fill:#a0041e" />
    <path
       id="path1022"
       d="m 33,30 c 0,2.21 -1.79,4 -4,4 H 7 C 4.79,34 3,32.21 3,30 V 6 C 3,1.88 2.979,2 8,2 h 21 c 2.21,0 4,1.79 4,4 z"
       inkscape:connector-curvature="0"
       style="fill:#ccd6dd" />
    <path
       id="path1024"
       d="m 31,31 c 0,1.66 -1.34,3 -3,3 H 4 C 2.34,34 1,32.66 1,31 V 7 C 1,5.34 2.34,4 4,4 h 24 c 1.66,0 3,1.34 3,3 z"
       inkscape:connector-curvature="0"
       style="fill:#e1e8ed" />
    <path
       id="path1026"
       d="m 31,32 c 0,2.21 -1.79,4 -4,4 H 6 C 3.79,36 2,34.21 2,32 V 10 C 2,7.79 3.79,6 6,6 h 21 c 2.21,0 4,1.79 4,4 z"
       inkscape:connector-curvature="0"
       style="fill:#be1931" />
    <path
       id="path1028"
       d="M 6,8 C 3.79,8 2,9.79 2,12 v 20 c 0,2.21 1.79,4 4,4 h 19 c 2.21,0 4,-1.79 4,-4 V 11.7 C 29,9.49 27.54,8.04 25.34,8.04 Z m 12,3.46 c 0,0 7.62,2.93 7.62,6.45 0,1.41 -1.24,3 -2.71,4.41 -0.27,1.08 -0.0576,2.31 0.387,3.3 0.0645,-0.0101 0.129,-0.015 0.189,-0.0352 1.42,-0.473 1.92,0.836 0.695,1.4 0.459,0.484 0.957,0.737 1.39,0.592 1.5,-0.504 1.99,0.994 0.498,1.49 -0.645,0.215 -1.6,0.192 -2.63,-0.0293 0.715,0.982 1.55,1.57 2.14,1.37 1.5,-0.494 1.99,1.5 0.498,2 -1.5,0.494 -4.14,-0.314 -5.98,-2 -1.09,-0.997 -2.09,-0.996 -2.09,-0.996 0,0 -0.998,-0.0013 -2.09,0.996 -1.84,1.68 -4.49,2.49 -5.98,2 -1.5,-0.504 -0.993,-2.49 0.498,-2 0.594,0.201 1.42,-0.387 2.14,-1.37 -1.03,0.223 -1.99,0.247 -2.63,0.0332 -1.5,-0.494 -0.993,-1.99 0.498,-1.49 0.433,0.144 0.934,-0.108 1.39,-0.594 -1.22,-0.565 -0.723,-1.87 0.697,-1.4 0.0584,0.0192 0.121,0.0231 0.182,0.0332 0.446,-1.01 0.661,-2.24 0.387,-3.31 -1.47,-1.41 -2.7,-2.99 -2.7,-4.4 1e-6,-3.51 7.59,-6.44 7.61,-6.45 z m -2.05,12.3 c -0.814,0 -1.47,0.665 -1.47,1.47 0,0.805 0.665,1.46 1.47,1.46 0.806,0 1.46,-0.647 1.46,-1.46 0,-0.814 -0.652,-1.47 -1.46,-1.47 z m 4.1,0 c -0.806,0 -1.46,0.665 -1.46,1.47 0,0.805 0.647,1.46 1.46,1.46 0.814,0 1.47,-0.647 1.47,-1.46 0,-0.814 -0.662,-1.47 -1.47,-1.47 z"
       inkscape:connector-curvature="0"
       style="fill:#dd2e44" />
    <path
       id="path1030"
       d="M 6,6 C 4.312,6 4.269,4.078 5,3.25 5.832,2.309 7.125,2 9.438,2 H 11 V 0 H 8.281 C 4.312,0 1,2.5 1,5.375 V 32 c 0,2.209 1.791,4 4,4 H 7 V 6 Z"
       inkscape:connector-curvature="0"
       style="fill:#a0041e" />
  </g>
  <g
     id="g1074"
     transform="matrix(2.0833333,0,0,2.0833333,169.04721,15.902079)">
    <path
       id="path1048"
       d="m 35,26 c 0,2.209 -1.791,4 -4,4 H 5 C 2.791,30 1,28.209 1,26 V 6.313 C 1,4.104 6.791,0 9,0 H 29.625 C 32.719,0 35,2.312 35,5.375 Z"
       inkscape:connector-curvature="0"
       style="fill:#3e721d" />
    <path
       id="path1050"
       d="m 33,30 c 0,2.21 -1.79,4 -4,4 H 7 C 4.79,34 3,32.21 3,30 V 6 C 3,1.88 2.979,2 8,2 h 21 c 2.21,0 4,1.79 4,4 z"
       inkscape:connector-curvature="0"
       style="fill:#ccd6dd" />
    <path
       id="path1052"
       d="m 31,31 c 0,1.66 -1.34,3 -3,3 H 4 C 2.34,34 1,32.66 1,31 V 7 C 1,5.34 2.34,4 4,4 h 24 c 1.66,0 3,1.34 3,3 z"
       inkscape:connector-curvature="0"
       style="fill:#e1e8ed" />
    <path
       id="path1054"
       d="m 31,32 c 0,2.21 -1.79,4 -4,4 H 6 C 3.79,36 2,34.21 2,32 V 10 C 2,7.79 3.79,6 6,6 h 21 c 2.21,0 4,1.79 4,4 z"
       inkscape:connector-curvature="0"
       style="fill:#5c913b" />
    <path
       id="path1056"
       d="M 6,8 C 3.79,8 2,9.79 2,12 v 20 c 0,2.21 1.79,4 4,4 h 19 c 2.21,0 4,-1.79 4,-4 V 11.7 C 29,9.49 27.54,8.04 25.34,8.04 Z m 12,3.46 c 0,0 7.62,2.93 7.62,6.45 0,1.41 -1.24,3 -2.71,4.41 -0.27,1.08 -0.0576,2.31 0.387,3.3 0.0645,-0.0101 0.129,-0.015 0.189,-0.0352 1.42,-0.473 1.92,0.836 0.695,1.4 0.459,0.484 0.957,0.737 1.39,0.592 1.5,-0.504 1.99,0.994 0.498,1.49 -0.645,0.215 -1.6,0.192 -2.63,-0.0293 0.715,0.982 1.55,1.57 2.14,1.37 1.5,-0.494 1.99,1.5 0.498,2 -1.5,0.494 -4.14,-0.314 -5.98,-2 -1.09,-0.997 -2.09,-0.996 -2.09,-0.996 0,0 -0.998,-0.0013 -2.09,0.996 -1.84,1.68 -4.49,2.49 -5.98,2 -1.5,-0.504 -0.993,-2.49 0.498,-2 0.594,0.201 1.42,-0.387 2.14,-1.37 -1.03,0.223 -1.99,0.247 -2.63,0.0332 -1.5,-0.494 -0.993,-1.99 0.498,-1.49 0.433,0.144 0.934,-0.108 1.39,-0.594 -1.22,-0.565 -0.723,-1.87 0.697,-1.4 0.0584,0.0192 0.121,0.0231 0.182,0.0332 0.446,-1.01 0.661,-2.24 0.387,-3.31 -1.47,-1.41 -2.7,-2.99 -2.7,-4.4 1e-6,-3.51 7.59,-6.44 7.61,-6.45 z m -2.05,12.3 c -0.814,0 -1.47,0.665 -1.47,1.47 0,0.805 0.665,1.46 1.47,1.46 0.806,0 1.46,-0.647 1.46,-1.46 0,-0.814 -0.652,-1.47 -1.46,-1.47 z m 4.1,0 c -0.806,0 -1.46,0.665 -1.46,1.47 0,0.805 0.647,1.46 1.46,1.46 0.814,0 1.47,-0.647 1.47,-1.46 0,-0.814 -0.662,-1.47 -1.47,-1.47 z"
       inkscape:connector-curvature="0"
       style="fill:#77b255" />
    <path
       id="path1058"
       d="M 6,6 C 4.312,6 4.269,4.078 5,3.25 5.832,2.309 7.125,2 9.438,2 H 11 V 0 H 8.281 C 4.312,0 1,2.5 1,5.375 V 32 c 0,2.209 1.791,4 4,4 H 7 V 6 Z"
       inkscape:connector-curvature="0"
       style="fill:#3e721d" />
  </g>
  <g
     id="g1102"
     transform="matrix(2.0833333,0,0,2.0833333,255.92428,15.902079)">
    <path
       id="path1076"
       d="m 35,26 c 0,2.209 -1.791,4 -4,4 H 5 C 2.791,30 1,28.209 1,26 V 6.313 C 1,4.104 6.791,0 9,0 H 29.625 C 32.719,0 35,2.312 35,5.375 Z"
       inkscape:connector-curvature="0"
       style="fill:#226699" />
    <path
       id="path1078"
       d="m 33,30 c 0,2.21 -1.79,4 -4,4 H 7 C 4.79,34 3,32.21 3,30 V 6 C 3,1.88 2.979,2 8,2 h 21 c 2.21,0 4,1.79 4,4 z"
       inkscape:connector-curvature="0"
       style="fill:#ccd6dd" />
    <path
       id="path1080"
       d="m 31,31 c 0,1.66 -1.34,3 -3,3 H 4 C 2.34,34 1,32.66 1,31 V 7 C 1,5.34 2.34,4 4,4 h 24 c 1.66,0 3,1.34 3,3 z"
       inkscape:connector-curvature="0"
       style="fill:#e1e8ed" />
    <path
       id="path1082"
       d="m 31,32 c 0,2.21 -1.79,4 -4,4 H 6 C 3.79,36 2,34.21 2,32 V 10 C 2,7.79 3.79,6 6,6 h 21 c 2.21,0 4,1.79 4,4 z"
       inkscape:connector-curvature="0"
       style="fill:#3b88c3" />
    <path
       id="path1084"
       d="M 6,8 C 3.79,8 2,9.79 2,12 v 20 c 0,2.21 1.79,4 4,4 h 19 c 2.21,0 4,-1.79 4,-4 V 11.7 C 29,9.49 27.54,8.04 25.34,8.04 Z m 12,3.46 c 0,0 7.62,2.93 7.62,6.45 0,1.41 -1.24,3 -2.71,4.41 -0.27,1.08 -0.0576,2.31 0.387,3.3 0.0645,-0.0101 0.129,-0.015 0.189,-0.0352 1.42,-0.473 1.92,0.836 0.695,1.4 0.459,0.484 0.957,0.737 1.39,0.592 1.5,-0.504 1.99,0.994 0.498,1.49 -0.645,0.215 -1.6,0.192 -2.63,-0.0293 0.715,0.982 1.55,1.57 2.14,1.37 1.5,-0.494 1.99,1.5 0.498,2 -1.5,0.494 -4.14,-0.314 -5.98,-2 -1.09,-0.997 -2.09,-0.996 -2.09,-0.996 0,0 -0.998,-0.0013 -2.09,0.996 -1.84,1.68 -4.49,2.49 -5.98,2 -1.5,-0.504 -0.993,-2.49 0.498,-2 0.594,0.201 1.42,-0.387 2.14,-1.37 -1.03,0.223 -1.99,0.247 -2.63,0.0332 -1.5,-0.494 -0.993,-1.99 0.498,-1.49 0.433,0.144 0.934,-0.108 1.39,-0.594 -1.22,-0.565 -0.723,-1.87 0.697,-1.4 0.0584,0.0192 0.121,0.0231 0.182,0.0332 0.446,-1.01 0.661,-2.24 0.387,-3.31 -1.47,-1.41 -2.7,-2.99 -2.7,-4.4 1e-6,-3.51 7.59,-6.44 7.61,-6.45 z m -2.05,12.3 c -0.814,0 -1.47,0.665 -1.47,1.47 0,0.805 0.665,1.46 1.47,1.46 0.806,0 1.46,-0.647 1.46,-1.46 0,-0.814 -0.652,-1.47 -1.46,-1.47 z m 4.1,0 c -0.806,0 -1.46,0.665 -1.46,1.47 0,0.805 0.647,1.46 1.46,1.46 0.814,0 1.47,-0.647 1.47,-1.46 0,-0.814 -0.662,-1.47 -1.47,-1.47 z"
       inkscape:connector-curvature="0"
       style="fill:#55acee" />
    <path
       id="path1086"
       d="M 6,6 C 4.312,6 4.269,4.078 5,3.25 5.832,2.309 7.125,2 9.438,2 H 11 V 0 H 8.281 C 4.312,0 1,2.5 1,5.375 V 32 c 0,2.209 1.791,4 4,4 H 7 V 6 Z"
       inkscape:connector-curvature="0"
       style="fill:#226699" />
  </g>
  <g
     id="g1130"
     transform="matrix(2.0833333,0,0,2.0833333,342.80135,15.902079)">
    <path
       id="path1104"
       d="m 35,26 c 0,2.209 -1.791,4 -4,4 H 5 C 2.791,30 1,28.209 1,26 V 6.313 C 1,4.104 6.791,0 9,0 H 29.625 C 32.719,0 35,2.312 35,5.375 Z"
       inkscape:connector-curvature="0"
       style="fill:#f4900c" />
    <path
       id="path1106"
       d="m 33,30 c 0,2.21 -1.79,4 -4,4 H 7 C 4.79,34 3,32.21 3,30 V 6 C 3,1.88 2.979,2 8,2 h 21 c 2.21,0 4,1.79 4,4 z"
       inkscape:connector-curvature="0"
       style="fill:#ccd6dd" />
    <path
       id="path1108"
       d="m 31,31 c 0,1.66 -1.34,3 -3,3 H 4 C 2.34,34 1,32.66 1,31 V 7 C 1,5.34 2.34,4 4,4 h 24 c 1.66,0 3,1.34 3,3 z"
       inkscape:connector-curvature="0"
       style="fill:#e1e8ed" />
    <path
       id="path1110"
       d="m 31,32 c 0,2.21 -1.79,4 -4,4 H 6 C 3.79,36 2,34.21 2,32 V 10 C 2,7.79 3.79,6 6,6 h 21 c 2.21,0 4,1.79 4,4 z"
       inkscape:connector-curvature="0"
       style="fill:#f4900c" />
    <path
       id="path1112"
       d="M 6,8 C 3.79,8 2,9.79 2,12 v 20 c 0,2.21 1.79,4 4,4 h 19 c 2.21,0 4,-1.79 4,-4 V 11.7 C 29,9.49 27.54,8.04 25.34,8.04 Z m 12,3.46 c 0,0 7.62,2.93 7.62,6.45 0,1.41 -1.24,3 -2.71,4.41 -0.27,1.08 -0.0576,2.31 0.387,3.3 0.0645,-0.0101 0.129,-0.015 0.189,-0.0352 1.42,-0.473 1.92,0.836 0.695,1.4 0.459,0.484 0.957,0.737 1.39,0.592 1.5,-0.504 1.99,0.994 0.498,1.49 -0.645,0.215 -1.6,0.192 -2.63,-0.0293 0.715,0.982 1.55,1.57 2.14,1.37 1.5,-0.494 1.99,1.5 0.498,2 -1.5,0.494 -4.14,-0.314 -5.98,-2 -1.09,-0.997 -2.09,-0.996 -2.09,-0.996 0,0 -0.998,-0.0013 -2.09,0.996 -1.84,1.68 -4.49,2.49 -5.98,2 -1.5,-0.504 -0.993,-2.49 0.498,-2 0.594,0.201 1.42,-0.387 2.14,-1.37 -1.03,0.223 -1.99,0.247 -2.63,0.0332 -1.5,-0.494 -0.993,-1.99 0.498,-1.49 0.433,0.144 0.934,-0.108 1.39,-0.594 -1.22,-0.565 -0.723,-1.87 0.697,-1.4 0.0584,0.0192 0.121,0.0231 0.182,0.0332 0.446,-1.01 0.661,-2.24 0.387,-3.31 -1.47,-1.41 -2.7,-2.99 -2.7,-4.4 1e-6,-3.51 7.59,-6.44 7.61,-6.45 z m -2.05,12.3 c -0.814,0 -1.47,0.665 -1.47,1.47 0,0.805 0.665,1.46 1.47,1.46 0.806,0 1.46,-0.647 1.46,-1.46 0,-0.814 -0.652,-1.47 -1.46,-1.47 z m 4.1,0 c -0.806,0 -1.46,0.665 -1.46,1.47 0,0.805 0.647,1.46 1.46,1.46 0.814,0 1.47,-0.647 1.47,-1.46 0,-0.814 -0.662,-1.47 -1.47,-1.47 z"
       inkscape:connector-curvature="0"
       style="fill:#ffac33" />
    <path
       id="path1114"
       d="M 6,6 C 4.312,6 4.269,4.078 5,3.25 5.832,2.309 7.125,2 9.438,2 H 11 V 0 H 8.281 C 4.312,0 1,2.5 1,5.375 V 32 c 0,2.209 1.791,4 4,4 H 7 V 6 Z"
       inkscape:connector-curvature="0"
       style="fill:#f4900c" />
  </g>
  <g
     id="g956"
     transform="matrix(2.0816564,0,0,2.0816564,169.00454,109.66974)">
    <path
       id="path900"
       d="m 36,26 c 0,2.209 -1.791,4 -4,4 H 8 C 5.791,30 4,28.209 4,26 V 6.313 C 4,4.104 9.791,0 12,0 H 30.625 C 33.719,0 36,2.312 36,5.375 Z"
       inkscape:connector-curvature="0"
       style="fill:#f4900c" />
    <path
       id="path902"
       d="m 34,30 c 0,2.21 -1.79,4 -4,4 H 10 C 7.79,34 6,32.21 6,30 V 6 C 6,1.88 5.979,2 11,2 h 19 c 2.21,0 4,1.79 4,4 z"
       inkscape:connector-curvature="0"
       style="fill:#ccd6dd" />
    <path
       id="path904"
       d="m 32,31 c 0,1.66 -1.34,3 -3,3 H 7 C 5.34,34 4,32.66 4,31 V 7 C 4,5.34 5.34,4 7,4 h 22 c 1.66,0 3,1.34 3,3 z"
       inkscape:connector-curvature="0"
       style="fill:#e1e8ed" />
    <path
       id="path906"
       d="m 32,32 c 0,2.21 -1.79,4 -4,4 H 9 C 6.79,36 5,34.21 5,32 V 10 C 5,7.79 6.79,6 9,6 h 19 c 2.21,0 4,1.79 4,4 z"
       inkscape:connector-curvature="0"
       style="fill:#ffac33" />
    <path
       id="path908"
       d="M 9,8 C 6.79,8 5,9.79 5,12 v 20 c 0,2.21 1.79,4 4,4 h 17 c 2.21,0 4,-1.79 4,-4 V 11.7 C 30,11.148 29.9092,10.64 29.738,10.2 29.567,9.753 29.316,9.364 28.996,9.04 28.676,8.72 28.287,8.469 27.836,8.298 27.389,8.127 26.884,8.036 26.336,8.036 Z m 9.99,3.46 c 0,0 7.62,2.93 7.62,6.45 0,1.41 -1.24,3 -2.71,4.41 -0.27,1.08 -0.0576,2.31 0.387,3.3 0.0645,-0.0101 0.129,-0.015 0.189,-0.0352 1.42,-0.473 1.92,0.836 0.695,1.4 0.459,0.484 0.957,0.737 1.39,0.592 1.5,-0.504 1.99,0.994 0.498,1.49 -0.645,0.215 -1.6,0.192 -2.63,-0.0293 0.715,0.982 1.55,1.57 2.14,1.37 1.5,-0.494 1.99,1.5 0.498,2 -1.5,0.494 -4.14,-0.314 -5.98,-2 -1.09,-0.997 -2.09,-0.996 -2.09,-0.996 0,0 -0.998,-0.0013 -2.09,0.996 -1.84,1.68 -4.49,2.49 -5.98,2 -1.5,-0.504 -0.993,-2.49 0.498,-2 0.594,0.201 1.42,-0.387 2.14,-1.37 -1.03,0.223 -1.99,0.247 -2.63,0.0332 -1.5,-0.494 -0.993,-1.99 0.498,-1.49 0.433,0.144 0.934,-0.108 1.39,-0.594 -1.22,-0.565 -0.723,-1.87 0.697,-1.4 0.0584,0.0192 0.121,0.0231 0.182,0.0332 0.446,-1.01 0.661,-2.24 0.387,-3.31 -1.47,-1.41 -2.7,-2.99 -2.7,-4.4 1e-6,-3.51 7.59,-6.44 7.61,-6.45 z m -2.05,12.3 c -0.814,0 -1.47,0.665 -1.47,1.47 0,0.805 0.665,1.46 1.47,1.46 0.806,0 1.46,-0.647 1.46,-1.46 0,-0.814 -0.652,-1.47 -1.46,-1.47 z m 4.1,0 c -0.806,0 -1.46,0.665 -1.46,1.47 0,0.805 0.647,1.46 1.46,1.46 0.814,0 1.47,-0.647 1.47,-1.46 0,-0.814 -0.662,-1.47 -1.47,-1.47 z"
       inkscape:connector-curvature="0"
       style="fill:#ffcc4d" />
    <path
       id="path910"
       d="M 9,6 C 7.312,6 7.269,4.078 8,3.25 8.832,2.309 10.125,2 12.438,2 H 14 V 0 H 11.281 C 7.312,0 4,2.5 4,5.375 V 32 c 0,2.209 1.791,4 4,4 h 2 V 6 Z"
       inkscape:connector-curvature="0"
       style="fill:#f4900c" />
    <g
       id="g920"
       style="fill:#662113">
      <path
         id="path912"
         d="m 8.54,33 c 0,0.702 -0.667,1.27 -1.49,1.27 -0.822,0 -1.49,-0.569 -1.49,-1.27 0,-0.701 0.667,-1.27 1.49,-1.27 0.823,0 1.49,0.569 1.49,1.27 z"
         inkscape:connector-curvature="0" />
      <path
         id="path914"
         d="m 8.54,25 c 0,0.702 -0.667,1.27 -1.49,1.27 -0.822,0 -1.49,-0.569 -1.49,-1.27 0,-0.701 0.667,-1.27 1.49,-1.27 0.823,0 1.49,0.569 1.49,1.27 z"
         inkscape:connector-curvature="0" />
      <path
         id="path916"
         d="m 8.54,17 c 0,0.702 -0.667,1.27 -1.49,1.27 -0.822,0 -1.49,-0.569 -1.49,-1.27 0,-0.701 0.667,-1.27 1.49,-1.27 0.823,0 1.49,0.569 1.49,1.27 z"
         inkscape:connector-curvature="0" />
      <path
         id="path918"
         d="m 8.54,8.98 c 0,0.702 -0.667,1.27 -1.49,1.27 -0.822,0 -1.49,-0.569 -1.49,-1.27 0,-0.701 0.667,-1.27 1.49,-1.27 0.823,0 1.49,0.569 1.49,1.27 z"
         inkscape:connector-curvature="0" />
    </g>
    <g
       id="g930"
       style="fill:#66757f">
      <path
         id="path922"
         d="m 6.89,32.3 c -0.48,0.055 -0.792,0.375 -1.02,0.729 -0.307,0.485 -1.01,1 -1.88,1 -1.1,0 -2,-0.671 -2,-1.5 0,-0.829 0.896,-1.5 2,-1.5 v -2 c -2.17,0.021 -3.92,1.58 -3.92,3.5 0,1.93 1.77,3.5 3.96,3.5 1.85,0 3.35,-1.04 3.9,-2.57 0.277,-0.759 -0.469,-1.22 -1.05,-1.16 z"
         inkscape:connector-curvature="0" />
      <path
         id="path924"
         d="m 6.89,24.3 c -0.48,0.055 -0.792,0.375 -1.02,0.729 -0.307,0.485 -1.01,1 -1.88,1 -1.1,0 -2,-0.671 -2,-1.5 0,-0.829 0.896,-1.5 2,-1.5 v -2 c -2.17,0.021 -3.92,1.58 -3.92,3.5 0,1.93 1.77,3.5 3.96,3.5 1.85,0 3.35,-1.04 3.9,-2.57 0.277,-0.759 -0.469,-1.22 -1.05,-1.16 z"
         inkscape:connector-curvature="0" />
      <path
         id="path926"
         d="m 6.89,16.3 c -0.48,0.055 -0.792,0.375 -1.02,0.729 -0.307,0.485 -1.01,1 -1.88,1 -1.1,0 -2,-0.671 -2,-1.5 0,-0.829 0.896,-1.5 2,-1.5 v -2 c -2.17,0.021 -3.92,1.58 -3.92,3.5 0,1.93 1.77,3.5 3.96,3.5 1.85,0 3.35,-1.04 3.9,-2.57 0.277,-0.759 -0.469,-1.22 -1.05,-1.16 z"
         inkscape:connector-curvature="0" />
      <path
         id="path928"
         d="M 6.89,8.27 C 6.41,8.325 6.098,8.645 5.87,8.999 c -0.307,0.485 -1.01,1 -1.88,1 -1.1,0 -2,-0.671 -2,-1.5 0,-0.829 0.896,-1.5 2,-1.5 v -2 c -2.17,0.02 -3.92,1.58 -3.92,3.5 0,1.93 1.77,3.5 3.96,3.5 1.85,0 3.35,-1.04 3.9,-2.57 C 8.207,8.67 7.461,8.209 6.88,8.269 Z"
         inkscape:connector-curvature="0" />
    </g>
  </g>
  <g
     id="g1018"
     transform="matrix(2.0827548,0,0,2.0827548,255.93469,109.69057)">
    <path
       id="path989"
       d="m 35,26 c 0,2.21 -1.79,4 -4,4 H 5 C 2.79,30 1,28.21 1,26 V 6.3 C 1,4.09 6.79,-0.01 9,-0.01 h 20.6 c 3.09,0 5.38,2.31 5.38,5.38 z"
       inkscape:connector-curvature="0"
       style="fill:#c1694f" />
    <path
       id="path991"
       d="m 33,30 c 0,2.21 -1.79,4 -4,4 H 7 C 4.79,34 3,32.21 3,30 V 6 C 3,1.88 2.979,2 8,2 h 21 c 2.21,0 4,1.79 4,4 z"
       inkscape:connector-curvature="0"
       style="fill:#ccd6dd" />
    <path
       id="path993"
       d="m 31,31 c 0,1.66 -1.34,3 -3,3 H 4 C 2.34,34 1,32.66 1,31 V 7 C 1,5.34 2.34,4 4,4 h 24 c 1.66,0 3,1.34 3,3 z"
       inkscape:connector-curvature="0"
       style="fill:#e1e8ed" />
    <path
       id="path995"
       d="m 31,32 c 0,2.21 -1.79,4 -4,4 H 6 C 3.79,36 2,34.21 2,32 V 10 C 2,7.79 3.79,6 6,6 h 21 c 2.21,0 4,1.79 4,4 z"
       inkscape:connector-curvature="0"
       style="fill:#c1694f" />
    <path
       id="path997"
       d="M 6,8 C 3.79,8 2,9.79 2,12 v 20 c 0,2.21 1.79,4 4,4 h 19 c 2.21,0 4,-1.79 4,-4 V 11.7 C 29,9.49 27.54,8.04 25.34,8.04 H 6.04 Z m 12,3.47 c 0,0 7.61,2.93 7.61,6.44 1e-6,1.41 -1.24,3 -2.71,4.41 -0.27,1.08 -0.0571,2.3 0.387,3.3 0.0644,-0.0101 0.129,-0.015 0.189,-0.0352 1.42,-0.473 1.92,0.835 0.693,1.4 0.459,0.483 0.956,0.737 1.39,0.592 1.49,-0.503 1.99,0.992 0.5,1.49 -0.644,0.214 -1.6,0.192 -2.63,-0.0293 0.714,0.981 1.55,1.56 2.13,1.37 1.49,-0.493 1.99,1.5 0.498,1.99 -1.5,0.493 -4.14,-0.312 -5.98,-1.99 -1.09,-0.996 -2.08,-0.996 -2.08,-0.996 0,0 -0.995,-1.31e-4 -2.08,0.996 -1.84,1.68 -4.49,2.49 -5.98,1.99 -1.5,-0.503 -0.991,-2.49 0.498,-1.99 0.594,0.201 1.42,-0.386 2.13,-1.37 -1.03,0.222 -1.99,0.247 -2.63,0.0332 -1.5,-0.493 -0.991,-1.99 0.498,-1.49 0.433,0.144 0.933,-0.109 1.39,-0.594 -1.21,-0.565 -0.722,-1.87 0.697,-1.4 0.0584,0.0191 0.119,0.0231 0.18,0.0332 0.446,-1.01 0.66,-2.23 0.387,-3.31 -1.47,-1.41 -2.7,-2.99 -2.7,-4.4 0,-3.51 7.58,-6.43 7.6,-6.44 z m -2.05,12.3 c -0.813,0 -1.47,0.664 -1.47,1.47 0,0.805 0.664,1.46 1.47,1.46 0.805,0 1.46,-0.646 1.46,-1.46 0,-0.813 -0.651,-1.47 -1.46,-1.47 z m 4.1,0 c -0.805,0 -1.46,0.664 -1.46,1.47 0,0.805 0.646,1.46 1.46,1.46 0.813,0 1.47,-0.646 1.47,-1.46 0,-0.813 -0.661,-1.47 -1.47,-1.47 z"
       inkscape:connector-curvature="0"
       style="fill:#d99e82" />
    <path
       id="path999"
       d="M 6,6 C 4.31,6 4.27,4.08 5,3.25 5.832,2.309 7.12,2 9.44,2 H 11 V 0 H 8.28 C 4.31,0 1,2.5 1,5.38 v 26.6 c 0,2.21 1.79,4 4,4 h 2 v -30 z"
       inkscape:connector-curvature="0"
       style="fill:#c1694f" />
    <path
       id="path1001"
       d="m 25,18 c 0,1.1 -0.896,2 -2,2 H 13 c -1.1,0 -2,-0.896 -2,-2 v -2 c 0,-1.1 0.896,-2 2,-2 h 10 c 1.1,0 2,0.896 2,2 z"
       inkscape:connector-curvature="0"
       style="fill:#e1e8ed" />
  </g>
  <g
     id="g987"
     transform="matrix(2.0833333,0,0,2.0833333,342.80135,109.66974)">
    <path
       id="path958"
       d="m 35,26 c 0,2.209 -1.791,4 -4,4 H 5 C 2.791,30 1,28.209 1,26 V 6.313 C 1,4.104 6.791,0 9,0 H 29.625 C 32.719,0 35,2.312 35,5.375 Z"
       inkscape:connector-curvature="0"
       style="fill:#292f33" />
    <path
       id="path960"
       d="m 33,30 c 0,2.21 -1.79,4 -4,4 H 7 C 4.79,34 3,32.21 3,30 V 6 C 3,1.88 2.979,2 8,2 h 21 c 2.21,0 4,1.79 4,4 z"
       inkscape:connector-curvature="0"
       style="fill:#ccd6dd" />
    <path
       id="path962"
       d="m 31,31 c 0,1.66 -1.34,3 -3,3 H 4 C 2.34,34 1,32.66 1,31 V 7 C 1,5.34 2.34,4 4,4 h 24 c 1.66,0 3,1.34 3,3 z"
       inkscape:connector-curvature="0"
       style="fill:#e1e8ed" />
    <path
       id="path964"
       d="m 31,32 c 0,2.21 -1.79,4 -4,4 H 6 C 3.79,36 2,34.21 2,32 V 10 C 2,7.79 3.79,6 6,6 h 21 c 2.21,0 4,1.79 4,4 z"
       inkscape:connector-curvature="0"
       style="fill:#292f33" />
    <path
       id="path966"
       d="m 29,32 c 0,2.21 -1.79,4 -4,4 H 6 C 3.79,36 2,34.21 2,32 V 12 C 2,9.79 3.79,8 6,8 h 19.3 c 2.21,0 3.66,1.46 3.66,3.66 z"
       inkscape:connector-curvature="0"
       style="fill:#66757f" />
    <path
       id="path968"
       d="M 6,6 C 4.312,6 4.269,4.078 5,3.25 5.832,2.309 7.125,2 9.438,2 H 11 V 0 H 8.281 C 4.312,0 1,2.5 1,5.375 V 32 c 0,2.209 1.791,4 4,4 H 7 V 6 Z"
       inkscape:connector-curvature="0"
       style="fill:#292f33" />
    <path
       id="path970"
       d="m 7,8 v 4 h 3 V 8 Z m 3,4 v 4 h 1.11 C 11.793,15.057 12.89,14.21 14,13.51 V 12 Z m 4,0 h 2.77 c 0.731,-0.339 1.22,-0.531 1.23,-0.533 h 0.002 v -3.47 h -4 z m 4,-0.533 V 12 h 1.23 C 18.497,11.66 18,11.467 18,11.467 Z M 19.23,12 C 19.99,12.352 21,12.871 22,13.5 V 12 Z M 22,12 h 4 V 8.06 C 25.786,8.029 25.568,8.0034 25.336,8.0034 h -3.34 z m 4,0 v 4 h 3 v -4 z m 0,4 h -1.1 c 0.438,0.604 0.707,1.24 0.707,1.91 0,0.67 -0.285,1.38 -0.736,2.09 h 1.13 z m 0,4 v 4 h 3 v -4 z m 0,4 h -3.17 c 0.0755,0.564 0.238,1.12 0.459,1.62 0.0644,-0.0101 0.129,-0.0151 0.189,-0.0352 1.42,-0.473 1.92,0.835 0.693,1.4 0.459,0.483 0.956,0.737 1.39,0.592 0.162,-0.0545 0.304,-0.0765 0.441,-0.0879 z m 0,3.48 v 0.518 h 0.93 C 26.8583,27.677 26.528,27.436 26,27.48 Z m 0.93,0.518 c 0.0816,0.365 -0.166,0.823 -0.873,1.06 -0.0169,0.0057 -0.0393,0.0067 -0.0566,0.0117 v 1.25 c 0.0243,0 0.0507,-0.0049 0.0742,-0.0039 0.858,0.0456 1.15,1.05 0.576,1.68 h 2.35 v -4 z m -0.279,4 h -0.65 v 0.4 c 0.0189,-0.0057 0.042,-0.0056 0.0606,-0.0117 0.263,-0.0878 0.445,-0.23 0.59,-0.389 z m -0.65,0.4 c -0.872,0.263 -2.1,0.101 -3.34,-0.4 h -0.658 v 4 h 3 c 0.347,0 0.679,-0.0576 1,-0.141 z m -4,-0.4 v -0.301 c -0.677,-0.342 -1.34,-0.774 -1.92,-1.3 -1.09,-0.996 -2.08,-0.996 -2.08,-0.996 v 2.6 z m -4,0 h -4 v 4 h 4 z m -4,0 v -0.301 c -0.219,0.111 -0.437,0.211 -0.658,0.301 z m -0.658,0 h -3.34 v 0.4 c 0.867,0.266 2.1,0.103 3.34,-0.4 z m -3.34,0.4 C 9.9842,32.3923 9.9609,32.3923 9.9425,32.3863 c -0.263,-0.0884 -0.443,-0.23 -0.588,-0.389 h -2.35 v 4 h 3 z m -0.648,-0.4 h 0.648 v -1.68 c -0.91,-0.0103 -1.24,1.03 -0.648,1.68 z m 0.648,-1.68 c 0.135,0.0015 0.279,0.0212 0.438,0.0742 0.594,0.201 1.42,-0.386 2.13,-1.37 -1,0.217 -1.93,0.241 -2.57,0.0449 z m 0,-1.25 v -1.07 h -0.93 c -0.0862,0.366 0.162,0.827 0.875,1.06 0.0164,0.0054 0.0379,0.0066 0.0547,0.0117 z m -0.93,-1.07 c 0.075,-0.318 0.405,-0.556 0.93,-0.514 v -3.49 h -3 v 4 z m 0.93,-4 h 3.17 c 0.0772,-0.572 0.0639,-1.15 -0.0742,-1.7 -0.769,-0.737 -1.47,-1.52 -1.96,-2.3 h -1.13 z m 0,-4 v -4 h -3 v 4 z m 1.13,0 h 2.87 v -4 h -2.89 c -0.438,0.604 -0.709,1.24 -0.709,1.9 0,0.672 0.285,1.38 0.736,2.1 z m 2.87,-4 h 4 v -4 h -1.23 c -0.761,0.353 -1.77,0.873 -2.77,1.51 z m 4,0 v 4 h 4 v -4 z m 4,0 h 2.9 c -0.684,-0.944 -1.78,-1.79 -2.9,-2.5 z m 0,4 v 4 h 0.828 c -0.076,-0.568 -0.065,-1.15 0.0703,-1.69 0.771,-0.739 1.47,-1.53 1.97,-2.31 z m 0,4 h -1.12 c 0.385,0.265 0.641,0.707 0.641,1.21 0,0.813 -0.658,1.46 -1.47,1.46 -0.813,0 -1.46,-0.654 -1.46,-1.46 0,-0.5 0.253,-0.945 0.637,-1.21 h -1.22 v 4 h 4 z m 0,4 v 3.7 c 0.219,0.111 0.437,0.211 0.658,0.301 h 3.34 v -1.68 c -0.134,0.0013 -0.277,0.0201 -0.436,0.0723 -0.588,0.196 -1.42,-0.386 -2.13,-1.37 0.999,0.216 1.93,0.238 2.57,0.041 v -1.07 z m -4,0 h -4 v 3.7 c 0.677,-0.343 1.34,-0.774 1.92,-1.3 1.09,-0.996 2.08,-0.996 2.08,-0.996 z m -4,0 v -4 h -0.832 c -0.0758,0.562 -0.238,1.11 -0.459,1.61 -0.0604,-0.0101 -0.123,-0.0141 -0.182,-0.0332 -1.42,-0.471 -1.91,0.834 -0.697,1.4 -0.456,0.485 -0.956,0.738 -1.39,0.594 -0.161,-0.0539 -0.305,-0.0749 -0.441,-0.0859 v 0.514 z m 0,-4 h 1.12 c 0.236,-0.163 0.522,-0.258 0.83,-0.258 0.308,0 0.593,0.0953 0.828,0.258 h 1.22 v -4 h -4 z m 2.78,0 h -1.66 c -0.386,0.266 -0.639,0.711 -0.639,1.21 0,0.805 0.664,1.46 1.47,1.46 0.805,0 1.46,-0.646 1.46,-1.46 0,-0.504 -0.249,-0.946 -0.631,-1.21 z m 2.45,0 h 1.65 c -0.237,-0.163 -0.523,-0.258 -0.83,-0.258 -0.305,-10e-7 -0.588,0.0952 -0.822,0.258 z"
       inkscape:connector-curvature="0"
       style="fill:#ccd6dd" />
  </g>
  <g
     id="g921"
     transform="matrix(2.0833333,0,0,2.0833333,82.198652,109.66974)">
    <path
       id="path886"
       d="m 35,26 c 0,2.209 -1.791,4 -4,4 H 5 C 2.791,30 1,28.209 1,26 V 6.313 C 1,4.104 6.791,0 9,0 H 29.625 C 32.719,0 35,2.312 35,5.375 Z"
       inkscape:connector-curvature="0"
       style="fill:#aab8c2" />
    <path
       id="path888"
       d="m 33,30 c 0,2.21 -1.79,4 -4,4 H 7 C 4.79,34 3,32.21 3,30 V 6 C 3,1.88 2.979,2 8,2 h 21 c 2.21,0 4,1.79 4,4 z"
       inkscape:connector-curvature="0"
       style="fill:#f5f8fa" />
    <path
       id="path890"
       d="m 31,31 c 0,1.66 -1.34,3 -3,3 H 4 C 2.34,34 1,32.66 1,31 V 7 C 1,5.34 2.34,4 4,4 h 24 c 1.66,0 3,1.34 3,3 z"
       inkscape:connector-curvature="0"
       style="fill:#ffffff" />
    <path
       id="path892"
       d="m 31,32 c 0,2.21 -1.79,4 -4,4 H 6 C 3.79,36 2,34.21 2,32 V 10 C 2,7.79 3.79,6 6,6 h 21 c 2.21,0 4,1.79 4,4 z"
       inkscape:connector-curvature="0"
       style="fill:#aab8c2" />
    <path
       id="path894"
       d="M 6,8 C 3.79,8 2,9.79 2,12 v 20 c 0,2.21 1.79,4 4,4 h 19 c 2.21,0 4,-1.79 4,-4 V 11.7 C 29,9.49 27.54,8.04 25.34,8.04 Z m 12,3.46 c 0,0 7.62,2.93 7.62,6.45 0,1.41 -1.24,3 -2.71,4.41 -0.27,1.08 -0.0576,2.31 0.387,3.3 0.0645,-0.0101 0.129,-0.015 0.189,-0.0352 1.42,-0.473 1.92,0.836 0.695,1.4 0.459,0.484 0.957,0.737 1.39,0.592 1.5,-0.504 1.99,0.994 0.498,1.49 -0.645,0.215 -1.6,0.192 -2.63,-0.0293 0.715,0.982 1.55,1.57 2.14,1.37 1.5,-0.494 1.99,1.5 0.498,2 -1.5,0.494 -4.14,-0.314 -5.98,-2 -1.09,-0.997 -2.09,-0.996 -2.09,-0.996 0,0 -0.998,-0.0013 -2.09,0.996 -1.84,1.68 -4.49,2.49 -5.98,2 -1.5,-0.504 -0.993,-2.49 0.498,-2 0.594,0.201 1.42,-0.387 2.14,-1.37 -1.03,0.223 -1.99,0.247 -2.63,0.0332 -1.5,-0.494 -0.993,-1.99 0.498,-1.49 0.433,0.144 0.934,-0.108 1.39,-0.594 -1.22,-0.565 -0.723,-1.87 0.697,-1.4 0.0584,0.0192 0.121,0.0231 0.182,0.0332 0.446,-1.01 0.661,-2.24 0.387,-3.31 -1.47,-1.41 -2.7,-2.99 -2.7,-4.4 1e-6,-3.51 7.59,-6.44 7.61,-6.45 z m -2.05,12.3 c -0.814,0 -1.47,0.665 -1.47,1.47 0,0.805 0.665,1.46 1.47,1.46 0.806,0 1.46,-0.647 1.46,-1.46 0,-0.814 -0.652,-1.47 -1.46,-1.47 z m 4.1,0 c -0.806,0 -1.46,0.665 -1.46,1.47 0,0.805 0.647,1.46 1.46,1.46 0.814,0 1.47,-0.647 1.47,-1.46 0,-0.814 -0.662,-1.47 -1.47,-1.47 z"
       inkscape:connector-curvature="0"
       style="fill:#e1e8ed" />
    <path
       id="path896"
       d="M 6,6 C 4.312,6 4.269,4.078 5,3.25 5.832,2.309 7.125,2 9.438,2 H 11 V 0 H 8.281 C 4.312,0 1,2.5 1,5.375 V 32 c 0,2.209 1.791,4 4,4 H 7 V 6 Z"
       inkscape:connector-curvature="0"
       style="fill:#aab8c2" />
    <path
       id="path898"
       d="m 17,3 c -0.552,0 -1,0.448 -1,1 v 23 c 0,0.44 0.288,0.829 0.709,0.957 0.419,0.129 0.876,-0.0353 1.12,-0.402 l 3.17,-4.75 3.17,4.75 C 24.357,27.837 24.674,28 25.001,28 25.0974,27.999816 25.193,27.9858 25.288,27.957 25.71,27.829 25.999,27.44 25.999,27 V 4 c 0,-0.552 -0.447,-1 -1,-1 z"
       inkscape:connector-curvature="0"
       style="fill:#dd2e44" />
    <path
       id="path900-2"
       d="M 15,2 H 27 V 4 H 15 Z"
       inkscape:connector-curvature="0"
       style="fill:#f5f8fa" />
    <path
       id="path902-6"
       d="m 21,12 c -0.0024,9.75e-4 -3.61,1.39 -3.61,3.06 0,0.669 0.583,1.42 1.28,2.09 0.13,0.511 0.0287,1.09 -0.183,1.57 -0.0287,-0.0048 -0.0583,-0.0066 -0.086,-0.0158 -0.674,-0.224 -0.908,0.396 -0.331,0.664 -0.216,0.23 -0.454,0.35 -0.659,0.282 -0.707,-0.237 -0.946,0.473 -0.236,0.707 0.304,0.101 0.76,0.0898 1.25,-0.0158 -0.339,0.466 -0.731,0.745 -1.01,0.65 -0.707,-0.237 -0.946,0.707 -0.236,0.946 0.707,0.237 1.96,-0.148 2.84,-0.946 0.516,-0.473 0.989,-0.473 0.989,-0.473 0,0 0.473,0 0.989,0.473 0.874,0.798 2.13,1.18 2.84,0.946 0.707,-0.236 0.473,-1.18 -0.236,-0.946 -0.279,0.0932 -0.674,-0.184 -1.01,-0.65 0.487,0.105 0.941,0.116 1.25,0.0143 0.707,-0.236 0.472,-0.946 -0.237,-0.707 -0.205,0.0688 -0.442,-0.0511 -0.659,-0.28 0.583,-0.268 0.343,-0.889 -0.329,-0.664 -0.0287,0.0096 -0.0592,0.012 -0.0898,0.0167 -0.211,-0.474 -0.312,-1.06 -0.184,-1.57 0.698,-0.669 1.29,-1.42 1.29,-2.09 0,-1.67 -3.61,-3.06 -3.61,-3.06 z m -0.975,5.83 c 0.384,0 0.693,0.312 0.693,0.698 0,0.386 -0.311,0.693 -0.693,0.693 -0.382,0 -0.698,-0.311 -0.698,-0.693 0,-0.382 0.312,-0.698 0.698,-0.698 z m 1.94,0 c 0.384,0 0.698,0.312 0.698,0.698 0,0.386 -0.312,0.693 -0.698,0.693 -0.386,0 -0.693,-0.311 -0.693,-0.693 0,-0.382 0.311,-0.698 0.693,-0.698 z"
       inkscape:connector-curvature="0"
       style="fill:#be1931" />
  </g>
</svg>
