<?xml version="1.0" encoding="UTF-8" standalone="no"?>
<svg
   xmlns:dc="http://purl.org/dc/elements/1.1/"
   xmlns:cc="http://creativecommons.org/ns#"
   xmlns:rdf="http://www.w3.org/1999/02/22-rdf-syntax-ns#"
   xmlns:svg="http://www.w3.org/2000/svg"
   xmlns="http://www.w3.org/2000/svg"
   xmlns:sodipodi="http://sodipodi.sourceforge.net/DTD/sodipodi-0.dtd"
   xmlns:inkscape="http://www.inkscape.org/namespaces/inkscape"
   viewBox="0 0 500 250"
   version="1.1"
   id="svg43"
   sodipodi:docname="imps.svg"
   inkscape:version="0.92.3 (2405546, 2018-03-11)"
   inkscape:export-filename="E:\Users\Richard\Documents\Squimoji\Squimoji\meta\twitter\tweet_imps.png"
   inkscape:export-xdpi="96"
   inkscape:export-ydpi="96">
  <metadata
     id="metadata49">
    <rdf:RDF>
      <cc:Work
         rdf:about="">
        <dc:format>image/svg+xml</dc:format>
        <dc:type
           rdf:resource="http://purl.org/dc/dcmitype/StillImage" />
        <dc:title></dc:title>
      </cc:Work>
    </rdf:RDF>
  </metadata>
  <defs
     id="defs47" />
  <sodipodi:namedview
     pagecolor="#ffffff"
     bordercolor="#666666"
     borderopacity="1"
     objecttolerance="10"
     gridtolerance="10"
     guidetolerance="10"
     inkscape:pageopacity="0"
     inkscape:pageshadow="2"
     inkscape:window-width="640"
     inkscape:window-height="480"
     id="namedview45"
     showgrid="false"
     inkscape:zoom="0.92499997"
     inkscape:cx="210.21091"
     inkscape:cy="38.7201"
     inkscape:current-layer="svg43" />
  <rect
     fill="#BBDDF5"
     width="500"
     height="250"
     rx="12"
     ry="12"
     id="background"
     style="fill:#292f33;fill-opacity:1" />
  <g
     fill="#292F33"
     aria-label="@squidmoji"
     id="text_container"
     style="fill:#aa8dd8;fill-opacity:1">
    <path
       d="m183 215h-.0911q-1.33 4.34-5.23 4.34-2.5 0-4.03-1.84-1.51-1.84-1.51-4.96 0-4.12 2.1-6.84 2.11-2.73 5.54-2.73 1.31 0 2.33.674 1.04.674 1.33 1.7h.0729q.0365-.51.182-2.1h2.28q-.857 10-.857 10.2 0 3.77 2.17 3.77 1.97 0 3.26-2.13 1.31-2.13 1.31-5.52 0-5.01-3.17-8.18-3.17-3.17-8.79-3.17-5.41 0-8.95 3.79-3.54 3.79-3.54 9.48 0 5.6 3.35 9.04 3.37 3.43 9.08 3.43 4.5 0 7.69-1.49v2.26q-3.15 1.35-7.88 1.35-6.64 0-10.7-3.99-4.05-4.01-4.05-10.5 0-6.67 4.25-11.1 4.27-4.39 10.9-4.39 6.2 0 10.3 3.68 4.07 3.68 4.07 9.61 0 4.34-2.15 7.13-2.13 2.77-5.21 2.77-3.99 0-4.01-4.34zm-3.26-9.92q-2.26 0-3.66 2.15-1.39 2.15-1.39 5.34 0 2.15.93 3.39.948 1.24 2.52 1.24 2.26 0 3.57-2.24 1.33-2.26 1.33-5.98 0-3.9-3.3-3.9z"
       id="path24"
       style="fill:#aa8dd8;fill-opacity:1" />
    <path
       d="m199 222v-3.21q2.44 1.8 5.38 1.8 3.94 0 3.94-2.62 0-.747-.346-1.26-.328-.529-.911-.93-.565-.401-1.35-.711-.766-.328-1.66-.674-1.24-.492-2.19-.984-.93-.51-1.57-1.13-.62-.638-.948-1.44-.31-.802-.31-1.88 0-1.31.602-2.32.602-1.02 1.6-1.7 1-.693 2.28-1.04 1.29-.346 2.66-.346 2.42 0 4.34.839v3.03q-2.06-1.35-4.74-1.35-.839 0-1.51.201-.674.182-1.17.529-.474.346-.747.839-.255.474-.255 1.06 0 .729.255 1.22.273.492.784.875.51.383 1.24.693.729.31 1.66.674 1.24.474 2.22.984.984.492 1.68 1.13.693.62 1.06 1.44.383.82.383 1.95 0 1.39-.62 2.41-.602 1.02-1.62 1.7-1.02.674-2.35 1-1.33.328-2.79.328-2.88 0-4.99-1.11z"
       id="path26"
       style="fill:#aa8dd8;fill-opacity:1" />
    <path
       d="m232 231h-2.99v-11.8h-.0729q-1.95 3.65-6.38 3.65-3.52 0-5.65-2.5-2.11-2.52-2.11-6.84 0-4.65 2.33-7.42 2.33-2.79 6.27-2.79 3.83 0 5.54 3.03h.0729v-2.59h2.99zm-2.99-17v-2.72q0-2.3-1.51-3.88-1.49-1.59-3.81-1.59-2.7 0-4.27 2.01-1.57 1.99-1.57 5.61 0 3.23 1.51 5.07 1.51 1.82 3.9 1.82 2.62 0 4.17-1.79 1.57-1.8 1.57-4.54z"
       id="path28"
       style="fill:#aa8dd8;fill-opacity:1" />
    <path
       d="m253 222h-2.99v-2.95h-.0729q-1.86 3.39-5.76 3.39-6.67 0-6.67-7.95v-11.2h2.97v10.7q0 5.91 4.52 5.91 2.19 0 3.59-1.6 1.42-1.62 1.42-4.23v-10.8h2.99z"
       id="path30"
       style="fill:#aa8dd8;fill-opacity:1" />
    <path
       d="m261 199q-.802 0-1.37-.547-.565-.547-.565-1.39 0-.839.565-1.39.565-.565 1.37-.565.82 0 1.39.565.583.547.583 1.39 0 .802-.583 1.37-.565.565-1.39.565zm1.46 23.4h-2.99v-18.7h2.99z"
       id="path32"
       style="fill:#aa8dd8;fill-opacity:1" />
    <path
       d="m295 222h-2.99v-10.7q0-3.1-.966-4.48-.948-1.39-3.21-1.39-1.91 0-3.26 1.75-1.33 1.75-1.33 4.19v10.6h-2.99v-11.1q0-5.51-4.25-5.51-1.97 0-3.24 1.66-1.28 1.64-1.28 4.28v10.6h-2.99v-18.7h2.99v2.95h.0729q1.99-3.39 5.8-3.39 1.91 0 3.34 1.08 1.42 1.06 1.95 2.79 2.08-3.86 6.2-3.86 6.16 0 6.16 7.6z"
       id="path34"
       style="fill:#aa8dd8;fill-opacity:1" />
    <path
       d="m308 223q-4.14 0-6.62-2.61-2.46-2.62-2.46-6.95 0-4.7 2.57-7.35 2.57-2.64 6.95-2.64 4.17 0 6.51 2.57 2.35 2.57 2.35 7.13 0 4.47-2.53 7.16-2.52 2.68-6.76 2.68zm.219-17q-2.88 0-4.56 1.97-1.68 1.95-1.68 5.4 0 3.32 1.7 5.23 1.7 1.91 4.54 1.91 2.9 0 4.45-1.88 1.57-1.88 1.57-5.34 0-3.5-1.57-5.4-1.55-1.9-4.45-1.9z"
       id="path36"
       style="fill:#aa8dd8;fill-opacity:1" />
    <path
       d="m326 221q0 4.59-1.86 7.07-1.84 2.5-5.29 2.5-1.28 0-2.48-.583v-2.79q1.35.82 2.55.82 4.08 0 4.08-6.53v-18.4h2.99zm-1.46-22.6q-.802 0-1.37-.547-.565-.547-.565-1.39 0-.839.565-1.39.565-.565 1.37-.565.82 0 1.39.565.583.547.583 1.39 0 .802-.583 1.37-.565.565-1.39.565z"
       id="path38"
       style="fill:#aa8dd8;fill-opacity:1" />
    <path
       d="m333 199q-.802 0-1.37-.547-.565-.547-.565-1.39 0-.839.565-1.39.565-.565 1.37-.565.82 0 1.39.565.583.547.583 1.39 0 .802-.583 1.37-.565.565-1.39.565zm1.46 23.4h-2.99v-18.7h2.99z"
       id="path40"
       style="fill:#aa8dd8;fill-opacity:1" />
  </g>
  <g
     id="g885"
     transform="matrix(2.0805318,0,0,2.0805318,157.86084,71.283783)">
    <path
       id="path841"
       d="M 31,11 C 31,5 18,0 18,0 v 25 c 0,0 13,-8 13,-14 z"
       inkscape:connector-curvature="0"
       style="fill:#744eaa" />
    <path
       id="path843"
       d="M 5,11 C 5,5 18,0 18,0 V 25 C 18.001,25 5,17 5,11 Z"
       inkscape:connector-curvature="0"
       style="fill:#744eaa" />
    <path
       id="path845"
       d="m 27,11 c 0,3.83 -9,12 -9,12 0,0 -9,-8.17 -9,-12 0,-5 9,-11 9,-11 0,0 9,6 9,11 z"
       inkscape:connector-curvature="0"
       style="fill:#aa8dd8" />
    <path
       id="path847"
       d="m 13,15.9 c 2.55,4.25 -1.81,9.1 -4.36,8.24 -2.55,-0.851 -3.4,1.7 -0.851,2.55 2.549,0.85 8.05,-0.396 11.1,-3.4 0.851,-0.851 1.7,-0.851 1.7,-0.851 l -7.55,-6.54 z"
       inkscape:connector-curvature="0"
       style="fill:#553986" />
    <path
       id="path849"
       d="m 23,15.9 c -2.55,4.25 1.81,9.1 4.36,8.24 2.55,-0.851 3.4,1.7 0.851,2.55 -2.549,0.85 -8.05,-0.396 -11.1,-3.4 -0.851,-0.851 -1.7,-0.851 -1.7,-0.851 l 7.55,-6.54 z"
       inkscape:connector-curvature="0"
       style="fill:#553986" />
    <path
       id="path851"
       d="m 9,17 c 2.55,4.25 -1.37,11.4 -3.92,10.5 -2.55,-0.9 -3.4,1.7 -0.851,2.55 2.549,0.85 8.05,-0.396 11.1,-3.4 0.851,-0.851 1.7,-0.851 1.7,-0.851 l -7.99,-8.81 z m 18,0 c -2.55,4.25 1.37,11.4 3.92,10.5 2.55,-0.851 3.4,1.7 0.851,2.55 -2.55,0.851 -8.05,-0.396 -11.1,-3.4 -0.851,-0.852 -1.7,-0.852 -1.7,-0.852 l 7.99,-8.81 z"
       inkscape:connector-curvature="0"
       style="fill:#744eaa" />
    <path
       id="path853"
       d="m 30.9,32.4 c -2.32,0.774 -6.92,-5.35 -5.92,-11.4 2,-5 -4,-7.48 -4,-9.98 0,-6.11 -2.03,-9.74 -3.03,-9.74 -1,0 -2.97,3.63 -2.97,9.74 0,2.5 -6,4.98 -4,9.98 1,6 -3.6,12.1 -5.92,11.4 -2.55,-0.851 -3.4,2.55 -0.851,3.4 2.55,0.851 7.07,-0.533 10.2,-3.4 1.86,-1.7 3.56,-1.7 3.56,-1.7 0,0 1.7,0 3.56,1.7 3.14,2.87 7.66,4.25 10.2,3.4 2.55,-0.85 1.7,-4.25 -0.85,-3.4 z"
       inkscape:connector-curvature="0"
       style="fill:#aa8dd8" />
    <g
       id="g861"
       style="fill:#292f33">
      <path
         id="path855"
         d="m 12.1,18.5 a 1.27,1.27 0 0 0 -0.508,2.42 l 1.29,0.637 a 2.5,2.5 0 0 0 -0.906,1.92 2.5,2.5 0 0 0 2.5,2.5 2.5,2.5 0 0 0 2.5,-2.5 2.5,2.5 0 0 0 -0.0469,-0.467 1.27,1.27 0 0 0 0.0098,-2.29 l -4.23,-2.08 a 1.27,1.27 0 0 0 -0.613,-0.139 z"
         inkscape:connector-curvature="0" />
      <path
         id="path857"
         d="m 23.8,18.5 a 1.27,1.27 0 0 0 -0.574,0.139 l -4.23,2.08 a 1.27,1.27 0 0 0 0.0215,2.29 2.5,2.5 0 0 0 -0.0449,0.457 2.5,2.5 0 0 0 2.5,2.5 2.5,2.5 0 0 0 2.5,-2.5 2.5,2.5 0 0 0 -0.898,-1.92 l 1.27,-0.625 a 1.27,1.27 0 0 0 -0.545,-2.42 z"
         inkscape:connector-curvature="0" />
      <path
         id="path859"
         d="m 22.5,30.2 c -0.0278,-0.118 -0.702,-2.74 -4.47,-2.74 -3.77,0 -4.45,2.63 -4.47,2.74 -0.0449,0.185 0.0335,0.374 0.195,0.471 0.162,0.0962 0.367,0.0698 0.501,-0.0655 0.0107,-0.0114 1.13,-1.08 3.78,-1.08 2.65,0 3.77,1.07 3.78,1.08 0.0769,0.0798 0.184,0.125 0.293,0.125 0.0712,0 0.142,-0.0185 0.206,-0.0563 0.16,-0.0954 0.241,-0.29 0.196,-0.474 z"
         inkscape:connector-curvature="0" />
    </g>
    <path
       id="path863"
       d="M 12,5.72 C 10.06,5.72 7.76,3.86 7.05,3.15 6.62,2.72 5.97,2.591 5.41,2.824 4.847,3.056 4.481,3.605 4.481,4.214 c 0,2.6 1.26,7.52 6.02,7.52 0.57,0 1.09,-0.322 1.35,-0.832 l 1.5,-3.01 c 0.233,-0.466 0.208,-1.02 -0.0662,-1.46 -0.274,-0.443 -0.758,-0.713 -1.28,-0.713 z M 30.6,2.83 c -0.564,-0.234 -1.21,-0.105 -1.64,0.327 -0.667,0.666 -3.01,2.57 -4.95,2.57 -0.521,0 -1.01,0.27 -1.28,0.714 -0.274,0.443 -0.299,0.998 -0.0662,1.46 l 1.5,3.01 c 0.255,0.509 0.776,0.831 1.35,0.831 4.76,0 6.02,-4.92 6.02,-7.52 0,-0.609 -0.366,-1.16 -0.928,-1.39 z"
       inkscape:connector-curvature="0"
       style="fill:#aa8dd8" />
  </g>
  <g
     id="g937"
     transform="matrix(2.0805318,0,0,2.0805318,267.28163,71.283783)">
    <path
       id="path887"
       d="M 31,11 C 31,5 18,0 18,0 v 25 c 0,0 13,-8 13,-14"
       inkscape:connector-curvature="0"
       style="fill:#744eaa" />
    <path
       id="path889"
       d="M 5,11 C 5,5 18,0 18,0 V 25 C 18.001,25 5,17 5,11"
       inkscape:connector-curvature="0"
       style="fill:#744eaa" />
    <path
       id="path891"
       d="m 27,11 c 0,3.83 -9,12 -9,12 0,0 -9,-8.17 -9,-12 0,-5 9,-11 9,-11 0,0 9,6 9,11"
       inkscape:connector-curvature="0"
       style="fill:#aa8dd8" />
    <path
       id="path893-4"
       d="m 13,15.9 c 2.55,4.25 -1.81,9.1 -4.36,8.24 -2.55,-0.851 -3.4,1.7 -0.851,2.55 2.549,0.85 8.05,-0.396 11.1,-3.4 0.851,-0.851 1.7,-0.851 1.7,-0.851 L 13.039,15.899 13,15.9"
       inkscape:connector-curvature="0"
       style="fill:#553986" />
    <path
       id="path895-0"
       d="m 23,15.9 c -2.55,4.25 1.81,9.1 4.36,8.24 2.55,-0.851 3.4,1.7 0.851,2.55 -2.549,0.85 -8.05,-0.396 -11.1,-3.4 -0.851,-0.851 -1.7,-0.851 -1.7,-0.851 l 7.55,-6.54 L 23,15.9"
       inkscape:connector-curvature="0"
       style="fill:#553986" />
    <path
       id="path897-7"
       d="m 9,17 c 2.55,4.25 -1.37,11.4 -3.92,10.5 -2.55,-0.9 -3.4,1.7 -0.851,2.55 2.549,0.85 8.05,-0.396 11.1,-3.4 0.851,-0.851 1.7,-0.851 1.7,-0.851 0,0 -7.99,-8.81 -7.99,-8.81 L 9,17 m 18,0 c -2.55,4.25 1.37,11.4 3.92,10.5 2.55,-0.851 3.4,1.7 0.851,2.55 -2.55,0.851 -8.05,-0.396 -11.1,-3.4 -0.851,-0.852 -1.7,-0.852 -1.7,-0.852 0,0 7.99,-8.81 7.99,-8.81 L 27,17"
       inkscape:connector-curvature="0"
       style="fill:#744eaa" />
    <path
       id="path899"
       d="m 30.9,32.4 c -2.32,0.774 -6.92,-5.35 -5.92,-11.4 2,-5 -4,-7.48 -4,-9.98 0,-6.11 -2.03,-9.74 -3.03,-9.74 -1,0 -2.97,3.63 -2.97,9.74 0,2.5 -6,4.98 -4,9.98 1,6 -3.6,12.1 -5.92,11.4 -2.55,-0.851 -3.4,2.55 -0.851,3.4 2.55,0.851 7.07,-0.533 10.2,-3.4 1.86,-1.7 3.56,-1.7 3.56,-1.7 0,0 1.7,0 3.56,1.7 3.14,2.87 7.66,4.25 10.2,3.4 2.55,-0.85 1.7,-4.25 -0.85,-3.4 H 30.9"
       inkscape:connector-curvature="0"
       style="fill:#aa8dd8" />
    <path
       id="path901-1"
       d="M 12,5.72 C 10.06,5.72 7.76,3.86 7.05,3.15 6.62,2.72 5.97,2.591 5.41,2.824 4.847,3.056 4.481,3.605 4.481,4.214 c 0,2.6 1.26,7.52 6.02,7.52 0.57,0 1.09,-0.322 1.35,-0.832 l 1.5,-3.01 C 13.584,7.426 13.559,6.872 13.2848,6.432 13.0108,5.989 12.5268,5.719 12.0048,5.719 12.0048,5.719 12,5.72 12,5.72 M 30.6,2.83 c -0.564,-0.234 -1.21,-0.105 -1.64,0.327 -0.667,0.666 -3.01,2.57 -4.95,2.57 -0.521,0 -1.01,0.27 -1.28,0.714 -0.274,0.443 -0.299,0.998 -0.0662,1.46 l 1.5,3.01 c 0.255,0.509 0.776,0.831 1.35,0.831 4.76,0 6.02,-4.92 6.02,-7.52 0,-0.609 -0.366,-1.16 -0.928,-1.39 L 30.6,2.83"
       inkscape:connector-curvature="0"
       style="fill:#aa8dd8" />
    <g
       id="g913"
       style="fill:#292f33">
      <path
         id="path903"
         d="m 23.2,26.6 c -0.0996,-0.0901 -0.248,-0.0957 -0.355,-0.0162 -0.0218,0.0162 -2.19,1.62 -4.87,1.62 -2.67,0 -4.85,-1.61 -4.87,-1.62 -0.107,-0.0795 -0.256,-0.0728 -0.355,0.0162 -0.0991,0.0895 -0.121,0.237 -0.0526,0.351 0.0722,0.12 1.8,2.93 5.28,2.93 3.48,0 5.21,-2.81 5.28,-2.93 0.0688,-0.115 0.047,-0.262 -0.0526,-0.351 H 23.2"
         inkscape:connector-curvature="0" />
      <path
         id="path905"
         d="m 24.4,19.8 c -0.0137,8.3e-4 -0.0274,0.0021 -0.041,0.0039 -1.92,0.187 -4.01,0.602 -5.86,2.34 -0.582,0.549 0.242,1.42 0.824,0.873 1.56,-1.47 3.27,-1.67 5.17,-1.86 0.799,-0.0511 0.711,-1.41 -0.0879,-1.36 L 24.4,19.8"
         inkscape:connector-curvature="0" />
      <path
         id="path907"
         d="m 11.5,19.7 c 0.0137,8.3e-4 0.0274,0.0021 0.041,0.0039 1.92,0.187 4.01,0.602 5.86,2.34 0.582,0.549 -0.242,1.42 -0.824,0.873 -1.56,-1.47 -3.27,-1.67 -5.17,-1.86 -0.799,-0.0511 -0.711,-1.41 0.0879,-1.36 L 11.5,19.7"
         inkscape:connector-curvature="0" />
      <circle
         id="circle909"
         r="2.5"
         cy="23.5"
         cx="21.5" />
      <circle
         id="circle911"
         r="2.5"
         cy="23.5"
         cx="14.4" />
    </g>
  </g>
</svg>
