<?xml version="1.0" encoding="UTF-8" standalone="no"?>
<svg
   xmlns:dc="http://purl.org/dc/elements/1.1/"
   xmlns:cc="http://creativecommons.org/ns#"
   xmlns:rdf="http://www.w3.org/1999/02/22-rdf-syntax-ns#"
   xmlns:svg="http://www.w3.org/2000/svg"
   xmlns="http://www.w3.org/2000/svg"
   xmlns:sodipodi="http://sodipodi.sourceforge.net/DTD/sodipodi-0.dtd"
   xmlns:inkscape="http://www.inkscape.org/namespaces/inkscape"
   viewBox="0 0 500 250"
   version="1.1"
   id="svg43"
   sodipodi:docname="medals.svg"
   inkscape:version="0.92.3 (2405546, 2018-03-11)"
   inkscape:export-filename="E:\Users\Richard\Documents\Squimoji\Squimoji\meta\twitter\tweet_medals.png"
   inkscape:export-xdpi="96"
   inkscape:export-ydpi="96">
  <metadata
     id="metadata49">
    <rdf:RDF>
      <cc:Work
         rdf:about="">
        <dc:format>image/svg+xml</dc:format>
        <dc:type
           rdf:resource="http://purl.org/dc/dcmitype/StillImage" />
        <dc:title></dc:title>
      </cc:Work>
    </rdf:RDF>
  </metadata>
  <defs
     id="defs47" />
  <sodipodi:namedview
     pagecolor="#ffffff"
     bordercolor="#666666"
     borderopacity="1"
     objecttolerance="10"
     gridtolerance="10"
     guidetolerance="10"
     inkscape:pageopacity="0"
     inkscape:pageshadow="2"
     inkscape:window-width="640"
     inkscape:window-height="480"
     id="namedview45"
     showgrid="false"
     inkscape:zoom="0.92499997"
     inkscape:cx="239.89394"
     inkscape:cy="-39.03264"
     inkscape:current-layer="svg43" />
  <rect
     fill="#BBDDF5"
     width="500"
     height="250"
     rx="12"
     ry="12"
     id="background" />
  <g
     fill="#292F33"
     aria-label="@squidmoji"
     id="text_container">
    <path
       d="m183 215h-.0911q-1.33 4.34-5.23 4.34-2.5 0-4.03-1.84-1.51-1.84-1.51-4.96 0-4.12 2.1-6.84 2.11-2.73 5.54-2.73 1.31 0 2.33.674 1.04.674 1.33 1.7h.0729q.0365-.51.182-2.1h2.28q-.857 10-.857 10.2 0 3.77 2.17 3.77 1.97 0 3.26-2.13 1.31-2.13 1.31-5.52 0-5.01-3.17-8.18-3.17-3.17-8.79-3.17-5.41 0-8.95 3.79-3.54 3.79-3.54 9.48 0 5.6 3.35 9.04 3.37 3.43 9.08 3.43 4.5 0 7.69-1.49v2.26q-3.15 1.35-7.88 1.35-6.64 0-10.7-3.99-4.05-4.01-4.05-10.5 0-6.67 4.25-11.1 4.27-4.39 10.9-4.39 6.2 0 10.3 3.68 4.07 3.68 4.07 9.61 0 4.34-2.15 7.13-2.13 2.77-5.21 2.77-3.99 0-4.01-4.34zm-3.26-9.92q-2.26 0-3.66 2.15-1.39 2.15-1.39 5.34 0 2.15.93 3.39.948 1.24 2.52 1.24 2.26 0 3.57-2.24 1.33-2.26 1.33-5.98 0-3.9-3.3-3.9z"
       id="path24" />
    <path
       d="m199 222v-3.21q2.44 1.8 5.38 1.8 3.94 0 3.94-2.62 0-.747-.346-1.26-.328-.529-.911-.93-.565-.401-1.35-.711-.766-.328-1.66-.674-1.24-.492-2.19-.984-.93-.51-1.57-1.13-.62-.638-.948-1.44-.31-.802-.31-1.88 0-1.31.602-2.32.602-1.02 1.6-1.7 1-.693 2.28-1.04 1.29-.346 2.66-.346 2.42 0 4.34.839v3.03q-2.06-1.35-4.74-1.35-.839 0-1.51.201-.674.182-1.17.529-.474.346-.747.839-.255.474-.255 1.06 0 .729.255 1.22.273.492.784.875.51.383 1.24.693.729.31 1.66.674 1.24.474 2.22.984.984.492 1.68 1.13.693.62 1.06 1.44.383.82.383 1.95 0 1.39-.62 2.41-.602 1.02-1.62 1.7-1.02.674-2.35 1-1.33.328-2.79.328-2.88 0-4.99-1.11z"
       id="path26" />
    <path
       d="m232 231h-2.99v-11.8h-.0729q-1.95 3.65-6.38 3.65-3.52 0-5.65-2.5-2.11-2.52-2.11-6.84 0-4.65 2.33-7.42 2.33-2.79 6.27-2.79 3.83 0 5.54 3.03h.0729v-2.59h2.99zm-2.99-17v-2.72q0-2.3-1.51-3.88-1.49-1.59-3.81-1.59-2.7 0-4.27 2.01-1.57 1.99-1.57 5.61 0 3.23 1.51 5.07 1.51 1.82 3.9 1.82 2.62 0 4.17-1.79 1.57-1.8 1.57-4.54z"
       id="path28" />
    <path
       d="m253 222h-2.99v-2.95h-.0729q-1.86 3.39-5.76 3.39-6.67 0-6.67-7.95v-11.2h2.97v10.7q0 5.91 4.52 5.91 2.19 0 3.59-1.6 1.42-1.62 1.42-4.23v-10.8h2.99z"
       id="path30" />
    <path
       d="m261 199q-.802 0-1.37-.547-.565-.547-.565-1.39 0-.839.565-1.39.565-.565 1.37-.565.82 0 1.39.565.583.547.583 1.39 0 .802-.583 1.37-.565.565-1.39.565zm1.46 23.4h-2.99v-18.7h2.99z"
       id="path32" />
    <path
       d="m295 222h-2.99v-10.7q0-3.1-.966-4.48-.948-1.39-3.21-1.39-1.91 0-3.26 1.75-1.33 1.75-1.33 4.19v10.6h-2.99v-11.1q0-5.51-4.25-5.51-1.97 0-3.24 1.66-1.28 1.64-1.28 4.28v10.6h-2.99v-18.7h2.99v2.95h.0729q1.99-3.39 5.8-3.39 1.91 0 3.34 1.08 1.42 1.06 1.95 2.79 2.08-3.86 6.2-3.86 6.16 0 6.16 7.6z"
       id="path34" />
    <path
       d="m308 223q-4.14 0-6.62-2.61-2.46-2.62-2.46-6.95 0-4.7 2.57-7.35 2.57-2.64 6.95-2.64 4.17 0 6.51 2.57 2.35 2.57 2.35 7.13 0 4.47-2.53 7.16-2.52 2.68-6.76 2.68zm.219-17q-2.88 0-4.56 1.97-1.68 1.95-1.68 5.4 0 3.32 1.7 5.23 1.7 1.91 4.54 1.91 2.9 0 4.45-1.88 1.57-1.88 1.57-5.34 0-3.5-1.57-5.4-1.55-1.9-4.45-1.9z"
       id="path36" />
    <path
       d="m326 221q0 4.59-1.86 7.07-1.84 2.5-5.29 2.5-1.28 0-2.48-.583v-2.79q1.35.82 2.55.82 4.08 0 4.08-6.53v-18.4h2.99zm-1.46-22.6q-.802 0-1.37-.547-.565-.547-.565-1.39 0-.839.565-1.39.565-.565 1.37-.565.82 0 1.39.565.583.547.583 1.39 0 .802-.583 1.37-.565.565-1.39.565z"
       id="path38" />
    <path
       d="m333 199q-.802 0-1.37-.547-.565-.547-.565-1.39 0-.839.565-1.39.565-.565 1.37-.565.82 0 1.39.565.583.547.583 1.39 0 .802-.583 1.37-.565.565-1.39.565zm1.46 23.4h-2.99v-18.7h2.99z"
       id="path40" />
  </g>
  <g
     id="g916"
     transform="matrix(2.0827548,0,0,2.0827548,212.52083,71.283783)">
    <path
       id="path893"
       d="M 18,8 11,0 H 0 l 14,17 11.5,-4.75 z"
       inkscape:connector-curvature="0"
       style="fill:#55acee" />
    <path
       id="path895"
       d="m 25,0 -7,8 5.39,7.31 12.6,-15.3 z"
       inkscape:connector-curvature="0"
       style="fill:#3b88c3" />
    <path
       id="path897"
       d="m 23.3,16 c 0.08,-0.217 0.131,-0.448 0.131,-0.693 0,-1.1 -0.896,-2 -2,-2 h -6.67 c -1.1,0 -2,0.896 -2,2 0,0.245 0.05,0.476 0.131,0.693 -3.26,1.83 -5.46,5.31 -5.46,9.31 0,5.89 4.78,10.7 10.7,10.7 5.89,0 10.7,-4.78 10.7,-10.7 -0.001,-4 -2.21,-7.48 -5.46,-9.31 z"
       inkscape:connector-curvature="0"
       style="fill:#ffac33" />
    <circle
       id="circle899"
       r="8"
       cy="25.299999"
       cx="18.1"
       style="fill:#ffd983" />
    <path
       id="path901"
       d="m 18,18.9 c -0.0029,0.0011 -4.33,1.67 -4.33,3.67 0,0.802 0.699,1.7 1.54,2.5 0.156,0.613 0.0344,1.31 -0.22,1.89 -0.0344,-0.0057 -0.0699,-0.008 -0.103,-0.0189 -0.808,-0.268 -1.09,0.475 -0.397,0.797 -0.26,0.276 -0.544,0.42 -0.791,0.338 -0.848,-0.284 -1.13,0.567 -0.283,0.848 0.365,0.121 0.911,0.108 1.5,-0.0189 -0.406,0.559 -0.877,0.894 -1.21,0.779 -0.848,-0.284 -1.13,0.848 -0.283,1.13 0.848,0.284 2.36,-0.178 3.4,-1.13 0.619,-0.567 1.19,-0.567 1.19,-0.567 0,0 0.567,0 1.19,0.567 1.05,0.957 2.55,1.42 3.4,1.13 0.848,-0.283 0.567,-1.42 -0.283,-1.13 -0.335,0.112 -0.808,-0.221 -1.21,-0.779 0.585,0.126 1.13,0.139 1.5,0.0172 0.848,-0.283 0.566,-1.13 -0.284,-0.848 -0.246,0.0825 -0.53,-0.0613 -0.791,-0.336 0.699,-0.321 0.411,-1.07 -0.395,-0.797 -0.0344,0.0115 -0.0711,0.0143 -0.108,0.0201 -0.253,-0.569 -0.374,-1.27 -0.221,-1.88 0.837,-0.802 1.54,-1.71 1.54,-2.51 0,-2 -4.33,-3.67 -4.33,-3.67 z m -1.17,6.99 c 0.46,0 0.831,0.374 0.831,0.837 0,0.463 -0.373,0.831 -0.831,0.831 -0.458,0 -0.837,-0.373 -0.837,-0.831 0,-0.458 0.374,-0.837 0.837,-0.837 z m 2.33,0 c 0.46,0 0.837,0.374 0.837,0.837 0,0.463 -0.374,0.831 -0.837,0.831 -0.463,0 -0.831,-0.373 -0.831,-0.831 0,-0.458 0.373,-0.837 0.831,-0.837 z"
       inkscape:connector-curvature="0"
       style="fill:#ffac33" />
  </g>
  <g
     id="g941"
     transform="matrix(2.0827548,0,0,2.0827548,312.46876,71.073423)">
    <path
       id="path918-1"
       d="m 5.12,5 h 6 C 12.22,5 13,4.896 13,6 V 4 C 13,2.9 12.227,2 11.12,2 h -8 c -2,0 -3.58,2.12 -3,5 0,0 1.79,9.38 1.92,9.96 C 2.373,18.5 4.16,20 6.08,20 h 6.96 c 1.1,0 -0.039,-1.9 -0.039,-3 v -2 c 0,1.1 -0.773,2 -1.88,2 h -4 c -1.1,0 -1.83,-1.04 -2,-2 C 4.951,14.04 3.541,7.67 3.541,7.67 3.208,5.75 4.02,5 5.121,5 Z m 25.8,0 h -6 C 23.82,5 21.98,4.896 21.98,6 V 4 c 0,-1.1 1.83,-2 2.94,-2 h 8 c 2,0 3.58,2.12 3,5 0,0 -1.63,9.42 -1.77,10 -0.354,1.5 -2.04,3 -4,3 H 23 c -1.1,0 -1.02,-1.9 -1.02,-3 v -2 c 0,1.1 1.83,2 2.94,2 h 4 c 1.1,0 1.83,-1.04 2,-2 C 31.09,14.04 32.5,7.67 32.5,7.67 32.832,5.75 32.021,5 30.92,5 Z m -10.1,17 c 0,-6.96 -2.71,0 -2.71,0 0,0 -3,-6.96 -3,0 0,6.96 -3.29,10 -3.29,10 h 12.3 c -0.001,0 -3.29,-3.04 -3.29,-10 z"
       inkscape:connector-curvature="0"
       style="fill:#ffac33" />
    <path
       id="path920"
       d="m 29.1,6.58 c 0,6.78 -6.77,18.2 -11,18.2 -4.23,0 -11,-11.4 -11,-18.2 0,-5.2 1,-6.32 3,-6.32 1.37,0 6.02,-0.027 8,-0.027 l 7,-0.001 c 2.92,-0.001 4,0.684 4,6.35 z"
       inkscape:connector-curvature="0"
       style="fill:#ffcc4d" />
    <path
       id="path922-1"
       d="m 27,33 c 0,1.1 0.227,2 -0.877,2 h -16 c -1.1,0 -1.12,-0.896 -1.12,-2 v -1 c 0,-1.1 1.16,-2 2.21,-2 h 13.9 c 1.04,0 1.88,0.896 1.88,2 v 1 z"
       inkscape:connector-curvature="0"
       style="fill:#c1694f" />
    <path
       id="path924-2"
       d="m 29,34.6 c 0,0.76 0.165,1.38 -1.25,1.38 H 8.55 c -1.29,0 -1.5,-0.615 -1.5,-1.38 v -0.25 c 0,-0.76 0.738,-1.38 1.5,-1.38 h 19.2 c 0.759,0 1.25,0.615 1.25,1.38 z"
       inkscape:connector-curvature="0"
       style="fill:#c1694f" />
    <path
       id="path926-3"
       d="m 18.1,2 c -0.0036,0.00143 -5.4,2.08 -5.4,4.57 0,0.999 0.871,2.12 1.91,3.12 0.194,0.764 0.0428,1.63 -0.273,2.35 -0.0428,-0.0072 -0.0871,-0.01 -0.128,-0.0236 -1.01,-0.334 -1.36,0.592 -0.495,0.992 -0.323,0.344 -0.678,0.523 -0.985,0.421 -1.06,-0.353 -1.41,0.707 -0.353,1.06 0.455,0.151 1.14,0.134 1.86,-0.0236 -0.506,0.696 -1.09,1.11 -1.51,0.971 -1.06,-0.353 -1.41,1.06 -0.353,1.41 1.06,0.353 2.93,-0.221 4.24,-1.41 0.771,-0.707 1.48,-0.707 1.48,-0.707 0,0 0.706,0 1.48,0.707 1.31,1.19 3.18,1.76 4.24,1.41 1.06,-0.353 0.707,-1.76 -0.353,-1.41 -0.417,0.139 -1.01,-0.275 -1.51,-0.971 0.728,0.157 1.41,0.173 1.86,0.0214 1.06,-0.352 0.705,-1.41 -0.354,-1.06 -0.307,0.103 -0.66,-0.0764 -0.985,-0.419 0.871,-0.4 0.513,-1.33 -0.492,-0.992 -0.0428,0.0143 -0.0885,0.0178 -0.134,0.025 -0.315,-0.708 -0.466,-1.58 -0.275,-2.34 1.04,-0.999 1.92,-2.13 1.92,-3.13 0,-2.49 -5.4,-4.57 -5.4,-4.57 z m -1.46,8.71 c 0.573,0 1.04,0.465 1.04,1.04 0,0.577 -0.464,1.04 -1.04,1.04 -0.571,0 -1.04,-0.464 -1.04,-1.04 0,-0.571 0.465,-1.04 1.04,-1.04 z m 2.91,0 c 0.573,0 1.04,0.465 1.04,1.04 0,0.577 -0.465,1.04 -1.04,1.04 -0.575,0 -1.04,-0.464 -1.04,-1.04 0,-0.571 0.464,-1.04 1.04,-1.04 z"
       inkscape:connector-curvature="0"
       style="fill:#ffac33" />
  </g>
  <g
     id="g969"
     transform="matrix(2.0827548,0,0,2.0827548,112.51041,71.315023)">
    <path
       id="path943"
       d="M 25,0 H 11 C 9.9,0 9,0.896 9,2 v 11 c 0,0 0,1 1,2 l 6.43,5 h 3.14 L 26,15 c 1,-1 1,-2 1,-2 V 2 C 27,0.9 26.104,0 25,0 Z"
       inkscape:connector-curvature="0"
       style="fill:#55acee" />
    <path
       id="path945"
       d="M 12,0 V 16.555 L 16.429,20 h 3.142 L 24,16.555 V 0 Z"
       inkscape:connector-curvature="0"
       style="fill:#e1e8ed" />
    <path
       id="path947"
       d="M 14,0 V 18.111 L 16.429,20 h 3.142 L 22,18.111 V 0 Z"
       inkscape:connector-curvature="0"
       style="fill:#dd2e44" />
    <path
       id="path949"
       d="m 21.9,21 c 0.06,-0.163 0.098,-0.337 0.098,-0.52 0,-0.828 -0.672,-1.5 -1.5,-1.5 h -5 c -0.829,0 -1.5,0.672 -1.5,1.5 0,0.183 0.038,0.357 0.098,0.52 -2.44,1.37 -4.1,3.98 -4.1,6.98 0,4.42 3.58,8 8,8 4.42,0 8,-3.58 8,-8 0,-3 -1.65,-5.61 -4.1,-6.98 z"
       inkscape:connector-curvature="0"
       style="fill:#ffac33" />
    <circle
       id="circle951"
       r="6"
       cy="28"
       cx="18"
       style="fill:#ffd983" />
    <path
       id="path953"
       d="m 18,23 c -0.0022,8.78e-4 -3.32,1.28 -3.32,2.81 0,0.615 0.536,1.3 1.18,1.92 0.119,0.47 0.0263,1.01 -0.168,1.44 -0.0263,-0.0044 -0.0536,-0.0062 -0.079,-0.0145 -0.619,-0.205 -0.834,0.364 -0.304,0.61 -0.199,0.212 -0.417,0.322 -0.606,0.259 -0.65,-0.217 -0.869,0.435 -0.217,0.65 0.28,0.0931 0.698,0.0825 1.15,-0.0145 -0.311,0.428 -0.672,0.685 -0.931,0.597 -0.65,-0.217 -0.869,0.65 -0.217,0.869 0.65,0.217 1.8,-0.136 2.61,-0.869 0.474,-0.435 0.909,-0.435 0.909,-0.435 0,0 0.434,0 0.909,0.435 0.803,0.733 1.95,1.08 2.61,0.869 0.65,-0.217 0.435,-1.08 -0.217,-0.869 -0.256,0.0856 -0.619,-0.169 -0.931,-0.597 0.448,0.0966 0.865,0.107 1.15,0.0132 0.65,-0.216 0.434,-0.869 -0.218,-0.65 -0.189,0.0632 -0.406,-0.047 -0.606,-0.258 0.536,-0.246 0.315,-0.816 -0.302,-0.61 -0.0263,0.0088 -0.0544,0.011 -0.0825,0.0154 -0.194,-0.435 -0.287,-0.97 -0.169,-1.44 0.641,-0.615 1.18,-1.31 1.18,-1.92 0,-1.53 -3.32,-2.81 -3.32,-2.81 z m -0.896,5.36 c 0.352,0 0.637,0.286 0.637,0.641 0,0.355 -0.285,0.637 -0.637,0.637 -0.352,0 -0.641,-0.285 -0.641,-0.637 0,-0.352 0.286,-0.641 0.641,-0.641 z m 1.79,0 c 0.352,0 0.641,0.286 0.641,0.641 0,0.355 -0.286,0.637 -0.641,0.637 -0.355,0 -0.637,-0.285 -0.637,-0.637 0,-0.352 0.285,-0.641 0.637,-0.641 z"
       inkscape:connector-curvature="0"
       style="fill:#ffac33" />
  </g>
</svg>
