<svg xmlns="http://www.w3.org/2000/svg" viewBox="0 0 500 250">
	<rect fill="#BBDDF5" width="500" height="250" rx="12" ry="12" id="background"/>
	<g transform="matrix(3.47 0 0 3.47 188 41.3)" id="emoji_container">
	</g>
	<g fill="#292F33" aria-label="@squidmoji" id="text_container">
		<path d="m183 215h-.0911q-1.33 4.34-5.23 4.34-2.5 0-4.03-1.84-1.51-1.84-1.51-4.96 0-4.12 2.1-6.84 2.11-2.73 5.54-2.73 1.31 0 2.33.674 1.04.674 1.33 1.7h.0729q.0365-.51.182-2.1h2.28q-.857 10-.857 10.2 0 3.77 2.17 3.77 1.97 0 3.26-2.13 1.31-2.13 1.31-5.52 0-5.01-3.17-8.18-3.17-3.17-8.79-3.17-5.41 0-8.95 3.79-3.54 3.79-3.54 9.48 0 5.6 3.35 9.04 3.37 3.43 9.08 3.43 4.5 0 7.69-1.49v2.26q-3.15 1.35-7.88 1.35-6.64 0-10.7-3.99-4.05-4.01-4.05-10.5 0-6.67 4.25-11.1 4.27-4.39 10.9-4.39 6.2 0 10.3 3.68 4.07 3.68 4.07 9.61 0 4.34-2.15 7.13-2.13 2.77-5.21 2.77-3.99 0-4.01-4.34zm-3.26-9.92q-2.26 0-3.66 2.15-1.39 2.15-1.39 5.34 0 2.15.93 3.39.948 1.24 2.52 1.24 2.26 0 3.57-2.24 1.33-2.26 1.33-5.98 0-3.9-3.3-3.9z"/>
		<path d="m199 222v-3.21q2.44 1.8 5.38 1.8 3.94 0 3.94-2.62 0-.747-.346-1.26-.328-.529-.911-.93-.565-.401-1.35-.711-.766-.328-1.66-.674-1.24-.492-2.19-.984-.93-.51-1.57-1.13-.62-.638-.948-1.44-.31-.802-.31-1.88 0-1.31.602-2.32.602-1.02 1.6-1.7 1-.693 2.28-1.04 1.29-.346 2.66-.346 2.42 0 4.34.839v3.03q-2.06-1.35-4.74-1.35-.839 0-1.51.201-.674.182-1.17.529-.474.346-.747.839-.255.474-.255 1.06 0 .729.255 1.22.273.492.784.875.51.383 1.24.693.729.31 1.66.674 1.24.474 2.22.984.984.492 1.68 1.13.693.62 1.06 1.44.383.82.383 1.95 0 1.39-.62 2.41-.602 1.02-1.62 1.7-1.02.674-2.35 1-1.33.328-2.79.328-2.88 0-4.99-1.11z"/>
		<path d="m232 231h-2.99v-11.8h-.0729q-1.95 3.65-6.38 3.65-3.52 0-5.65-2.5-2.11-2.52-2.11-6.84 0-4.65 2.33-7.42 2.33-2.79 6.27-2.79 3.83 0 5.54 3.03h.0729v-2.59h2.99zm-2.99-17v-2.72q0-2.3-1.51-3.88-1.49-1.59-3.81-1.59-2.7 0-4.27 2.01-1.57 1.99-1.57 5.61 0 3.23 1.51 5.07 1.51 1.82 3.9 1.82 2.62 0 4.17-1.79 1.57-1.8 1.57-4.54z"/>
		<path d="m253 222h-2.99v-2.95h-.0729q-1.86 3.39-5.76 3.39-6.67 0-6.67-7.95v-11.2h2.97v10.7q0 5.91 4.52 5.91 2.19 0 3.59-1.6 1.42-1.62 1.42-4.23v-10.8h2.99z"/>
		<path d="m261 199q-.802 0-1.37-.547-.565-.547-.565-1.39 0-.839.565-1.39.565-.565 1.37-.565.82 0 1.39.565.583.547.583 1.39 0 .802-.583 1.37-.565.565-1.39.565zm1.46 23.4h-2.99v-18.7h2.99z"/>
		<path d="m295 222h-2.99v-10.7q0-3.1-.966-4.48-.948-1.39-3.21-1.39-1.91 0-3.26 1.75-1.33 1.75-1.33 4.19v10.6h-2.99v-11.1q0-5.51-4.25-5.51-1.97 0-3.24 1.66-1.28 1.64-1.28 4.28v10.6h-2.99v-18.7h2.99v2.95h.0729q1.99-3.39 5.8-3.39 1.91 0 3.34 1.08 1.42 1.06 1.95 2.79 2.08-3.86 6.2-3.86 6.16 0 6.16 7.6z"/>
		<path d="m308 223q-4.14 0-6.62-2.61-2.46-2.62-2.46-6.95 0-4.7 2.57-7.35 2.57-2.64 6.95-2.64 4.17 0 6.51 2.57 2.35 2.57 2.35 7.13 0 4.47-2.53 7.16-2.52 2.68-6.76 2.68zm.219-17q-2.88 0-4.56 1.97-1.68 1.95-1.68 5.4 0 3.32 1.7 5.23 1.7 1.91 4.54 1.91 2.9 0 4.45-1.88 1.57-1.88 1.57-5.34 0-3.5-1.57-5.4-1.55-1.9-4.45-1.9z"/>
		<path d="m326 221q0 4.59-1.86 7.07-1.84 2.5-5.29 2.5-1.28 0-2.48-.583v-2.79q1.35.82 2.55.82 4.08 0 4.08-6.53v-18.4h2.99zm-1.46-22.6q-.802 0-1.37-.547-.565-.547-.565-1.39 0-.839.565-1.39.565-.565 1.37-.565.82 0 1.39.565.583.547.583 1.39 0 .802-.583 1.37-.565.565-1.39.565z"/>
		<path d="m333 199q-.802 0-1.37-.547-.565-.547-.565-1.39 0-.839.565-1.39.565-.565 1.37-.565.82 0 1.39.565.583.547.583 1.39 0 .802-.583 1.37-.565.565-1.39.565zm1.46 23.4h-2.99v-18.7h2.99z"/>
	</g>
</svg>
